<svg width="66" height="65" viewBox="0 0 66 65" fill="none" xmlns="http://www.w3.org/2000/svg">
<g clip-path="url(#clip0)">
<path d="M60.1523 32.9243L33.4236 59.6529C31.4437 61.6328 28.1911 61.6328 26.2112 59.6529L5.84648 39.2883C3.86658 37.3084 3.86658 34.0557 5.84648 32.0758L32.5751 5.34712C34.555 3.36722 37.8077 3.36722 39.7876 5.34712L60.1523 25.7118C62.1322 27.6917 62.1322 30.9444 60.1523 32.9243Z" stroke="#231F20" stroke-width="2" stroke-miterlimit="10"/>
<path d="M17.7965 30.0252L17.7965 41.3389" stroke="#231F20" stroke-width="2" stroke-miterlimit="10" stroke-linecap="round"/>
<path d="M23.4534 35.682L12.1396 35.682" stroke="#231F20" stroke-width="2" stroke-miterlimit="10" stroke-linecap="round"/>
<path d="M29.11 41.3389L29.11 52.6526" stroke="#231F20" stroke-width="2" stroke-miterlimit="10" stroke-linecap="round"/>
<path d="M34.7668 46.9957L23.4531 46.9957" stroke="#231F20" stroke-width="2" stroke-miterlimit="10" stroke-linecap="round"/>
<path d="M26.9889 20.8328L26.9889 32.1465" stroke="#231F20" stroke-width="2" stroke-miterlimit="10" stroke-linecap="round"/>
<path d="M32.6457 26.4896L21.332 26.4896" stroke="#231F20" stroke-width="2" stroke-miterlimit="10" stroke-linecap="round"/>
<path d="M36.1813 11.6404L36.1813 22.9541" stroke="#231F20" stroke-width="2" stroke-miterlimit="10" stroke-linecap="round"/>
<path d="M41.8381 17.2972L30.5244 17.2972" stroke="#231F20" stroke-width="2" stroke-miterlimit="10" stroke-linecap="round"/>
</g>
<defs>
<clipPath id="clip0">
<rect x="0.826172" y="35.682" width="50" height="41" transform="rotate(-45 0.826172 35.682)" fill="white"/>
</clipPath>
</defs>
</svg>
