<svg width="91" height="91" viewBox="0 0 91 91" fill="none" xmlns="http://www.w3.org/2000/svg">
<g clip-path="url(#clip0)">
<path d="M31.3971 50.7679C30.6192 50.5558 29.9828 50.2022 29.4172 49.6365C27.5787 47.798 27.5787 44.8282 29.4172 42.9897C30.2657 42.1412 31.3263 41.6462 32.4577 41.6462" stroke="#231F20" stroke-width="2" stroke-miterlimit="10"/>
<path d="M48.155 57.4855C48.155 58.6169 47.7307 59.8896 46.8115 60.8089C45.2559 62.3645 42.9224 62.5767 41.0839 61.4453L40.7304 61.9403L32.5986 70.072L32.9522 63.3545L19.5172 71.1326L27.3661 57.7683L21.2849 58.7583L29.9823 50.0609" stroke="#231F20" stroke-width="2" stroke-miterlimit="10"/>
<path d="M41.5086 57.344C39.1045 59.7482 35.1447 59.7482 32.7405 57.344C30.4071 55.0106 30.3363 51.2629 32.4577 48.8587C32.5991 48.7173 32.6698 48.6466 32.8112 48.5052" stroke="#231F20" stroke-width="2" stroke-miterlimit="10"/>
<path d="M37.8316 30.8982L32.8818 25.9485L33.9425 24.8878C37.0538 21.7766 41.8621 21.4937 45.3976 24.0393" stroke="#231F20" stroke-width="2" stroke-miterlimit="10"/>
<path d="M66.2574 44.899C69.1565 48.3638 68.9444 53.5257 65.7624 56.7076L64.7018 57.7683L59.0449 52.1115" stroke="#231F20" stroke-width="2" stroke-miterlimit="10"/>
<path d="M51.2668 59.8896L33.0235 41.6463L30.7607 39.3835L46.9535 23.1908C52.6103 17.5339 61.8027 17.5339 67.4596 23.1908L67.5303 23.2615C73.1871 28.9184 73.1871 38.1108 67.5303 43.7676L51.2668 59.8896Z" stroke="#231F20" stroke-width="2" stroke-miterlimit="10"/>
<path d="M67.5303 22.413L72.48 17.4632" stroke="#231F20" stroke-width="2" stroke-miterlimit="10" stroke-linecap="round"/>
<path d="M49.8522 44.3332C51.0238 43.1617 51.0238 41.2622 49.8522 40.0906C48.6807 38.919 46.7812 38.919 45.6096 40.0906C44.438 41.2622 44.438 43.1617 45.6096 44.3332C46.7812 45.5048 48.6807 45.5048 49.8522 44.3332Z" stroke="#231F20" stroke-width="2" stroke-miterlimit="10"/>
<path d="M58.3376 35.848C59.5092 34.6764 59.5092 32.7769 58.3376 31.6054C57.166 30.4338 55.2665 30.4338 54.095 31.6054C52.9234 32.7769 52.9234 34.6764 54.095 35.848C55.2665 37.0196 57.166 37.0196 58.3376 35.848Z" stroke="#231F20" stroke-width="2" stroke-miterlimit="10"/>
</g>
<defs>
<clipPath id="clip0">
<rect x="0.142578" y="57.2733" width="80.3" height="47" transform="rotate(-45 0.142578 57.2733)" fill="white"/>
</clipPath>
</defs>
</svg>
