<svg width="69" height="67" viewBox="0 0 69 67" fill="none" xmlns="http://www.w3.org/2000/svg">
<g clip-path="url(#clip0)">
<path d="M40.6658 15.1437C41.6658 13.4116 43.8515 12.826 45.5835 13.826C47.3156 14.826 47.9012 17.0116 46.9012 18.7437" stroke="#231F20" stroke-width="2" stroke-miterlimit="10"/>
<path d="M29.6537 50.817C28.3537 53.0686 25.435 53.9239 23.0968 52.5739C20.7585 51.2239 19.9898 48.3552 21.3398 46.017" stroke="#231F20" stroke-width="2" stroke-miterlimit="10"/>
<path d="M41.5587 56.9974L10.2086 38.8974L25.7727 19.9395C30.1753 14.514 37.9215 13.0972 44.0703 16.6472C50.1324 20.1472 52.7786 27.564 50.3678 34.1395L41.5587 56.9974Z" stroke="#231F20" stroke-width="2" stroke-miterlimit="10"/>
<path d="M22.9694 14.3951C21.174 13.7049 19.5275 15.7566 20.5998 17.2994C21.622 18.9288 19.9756 20.9805 18.1802 20.2903C16.3847 19.6001 14.7383 21.6518 15.8106 23.1946C16.8328 24.824 15.2364 26.7891 13.4409 26.0989C11.6455 25.4087 9.99909 27.4604 11.0713 29.0032C12.0936 30.6326 10.4972 32.5977 8.70171 31.9075C6.90627 31.2173 5.25986 33.269 6.3321 34.8118" stroke="#231F20" stroke-width="2" stroke-miterlimit="10"/>
<path d="M57.0039 34.0451C58.4993 35.2549 57.5457 37.7065 55.6735 37.5493C53.7513 37.4788 52.8477 39.8438 54.3431 41.0536C55.8386 42.2634 54.885 44.7151 53.0127 44.5579C51.0905 44.4874 50.1869 46.8524 51.6824 48.0622C53.1778 49.272 52.2242 51.7237 50.352 51.5665C48.4297 51.4959 47.5261 53.861 49.0216 55.0708C50.517 56.2806 49.5634 58.7323 47.6912 58.5751" stroke="#231F20" stroke-width="2" stroke-miterlimit="10"/>
<path d="M42.627 20.548C46.6973 22.898 48.4614 27.8425 46.8042 32.3128L41.9327 45.5505" stroke="#231F20" stroke-width="2" stroke-miterlimit="10"/>
</g>
<defs>
<clipPath id="clip0">
<rect x="24" y="0.209961" width="51.7" height="46.8" transform="rotate(30 24 0.209961)" fill="white"/>
</clipPath>
</defs>
</svg>
