<svg width="197" height="46" viewBox="0 0 197 46" fill="none" xmlns="http://www.w3.org/2000/svg">
<rect width="197" height="46" fill="#3725E4"/>
<path d="M22.4453 28.192C24.4933 28.192 25.7253 27.024 25.7253 25.696C25.7253 24.608 25.1013 23.984 24.1893 23.664C24.8933 23.376 25.5173 22.784 25.5173 21.76C25.5173 20.48 24.3813 19.552 22.5253 19.552C21.3093 19.552 20.1893 19.92 19.3253 20.592L19.9333 21.456C20.6533 20.88 21.6293 20.624 22.4453 20.624C23.4693 20.624 24.2373 21.088 24.2373 21.856C24.2373 22.72 23.4853 23.28 22.3973 23.28H21.2773V24.288H22.3813C23.7253 24.288 24.4613 24.816 24.4613 25.648C24.4613 26.608 23.4853 27.12 22.4133 27.12C21.4213 27.12 20.4773 26.752 19.6453 26.048L19.0213 26.96C20.0293 27.776 21.1333 28.192 22.4453 28.192ZM30.4728 28.176C31.9288 28.176 32.8728 27.504 33.4488 26.768V28H34.6648V22.944C34.6648 21.888 34.3768 21.088 33.8008 20.512C33.2088 19.92 32.2968 19.6 31.1288 19.6C29.9128 19.6 29.0328 19.888 28.1208 20.304L28.4888 21.312C29.2568 20.96 30.0248 20.72 31.0008 20.72C32.5528 20.72 33.4488 21.488 33.4488 22.96V23.216C32.7128 23.008 31.9768 22.864 30.9208 22.864C28.8248 22.864 27.3848 23.792 27.3848 25.568C27.3848 27.296 28.9208 28.176 30.4728 28.176ZM30.7128 27.184C29.5928 27.184 28.6328 26.576 28.6328 25.536C28.6328 24.512 29.5128 23.84 31.0488 23.84C32.0568 23.84 32.8568 24.016 33.4648 24.192V24.96C33.4648 26.272 32.2328 27.184 30.7128 27.184ZM37.2744 28H38.5064V20.816H43.2104V28H44.4424V19.728H37.2744V28ZM47.1963 28H48.3803L53.3083 21.456V28H54.5403V19.728H53.3403L48.4283 26.272V19.728H47.1963V28ZM61.0181 28.192C62.5701 28.192 63.5621 27.52 64.3941 26.592L63.5781 25.84C62.9221 26.544 62.1381 27.088 61.0821 27.088C59.3541 27.088 58.0421 25.664 58.0421 23.872C58.0421 22.064 59.3221 20.64 61.0021 20.64C62.1221 20.64 62.8901 21.168 63.5461 21.856L64.3301 21.024C63.5621 20.208 62.5861 19.552 61.0181 19.552C58.6021 19.552 56.7781 21.536 56.7781 23.872C56.7781 26.224 58.6021 28.192 61.0181 28.192ZM68.8947 28.176C70.3507 28.176 71.2947 27.504 71.8707 26.768V28H73.0867V22.944C73.0867 21.888 72.7987 21.088 72.2227 20.512C71.6307 19.92 70.7187 19.6 69.5507 19.6C68.3347 19.6 67.4547 19.888 66.5427 20.304L66.9107 21.312C67.6787 20.96 68.4467 20.72 69.4227 20.72C70.9747 20.72 71.8707 21.488 71.8707 22.96V23.216C71.1347 23.008 70.3987 22.864 69.3427 22.864C67.2467 22.864 65.8067 23.792 65.8067 25.568C65.8067 27.296 67.3427 28.176 68.8947 28.176ZM69.1347 27.184C68.0147 27.184 67.0547 26.576 67.0547 25.536C67.0547 24.512 67.9347 23.84 69.4707 23.84C70.4787 23.84 71.2787 24.016 71.8867 24.192V24.96C71.8867 26.272 70.6547 27.184 69.1347 27.184ZM77.6963 28H78.9443V20.816H81.9043V19.728H74.7363V20.816H77.6963V28ZM83.6963 28H87.2803C89.1683 28 90.4003 26.96 90.4003 25.312C90.4003 23.568 88.9283 22.832 87.1363 22.832H84.9283V19.728H83.6963V28ZM84.9283 26.912V23.888H87.1203C88.3843 23.888 89.1523 24.384 89.1523 25.344C89.1523 26.384 88.4003 26.912 87.1683 26.912H84.9283ZM96.0337 28.192C97.5857 28.192 98.5777 27.52 99.4097 26.592L98.5937 25.84C97.9377 26.544 97.1537 27.088 96.0977 27.088C94.3697 27.088 93.0577 25.664 93.0577 23.872C93.0577 22.064 94.3377 20.64 96.0177 20.64C97.1377 20.64 97.9057 21.168 98.5617 21.856L99.3457 21.024C98.5777 20.208 97.6017 19.552 96.0337 19.552C93.6177 19.552 91.7937 21.536 91.7937 23.872C91.7937 26.224 93.6177 28.192 96.0337 28.192ZM100.71 28H102.23C102.998 27.008 103.75 26 104.518 24.992H106.806V28H108.038V19.728H104.15C102.182 19.728 101.03 20.784 101.03 22.304C101.03 23.648 102.006 24.512 103.238 24.8L100.71 28ZM104.246 23.952C103.094 23.952 102.262 23.36 102.262 22.352C102.262 21.408 102.982 20.816 104.214 20.816H106.806V23.952H104.246ZM115.587 28H116.819V24.384H121.587V28H122.819V19.728H121.587V23.296H116.819V19.728H115.587V28ZM128.035 28.176C129.491 28.176 130.435 27.504 131.011 26.768V28H132.227V22.944C132.227 21.888 131.939 21.088 131.363 20.512C130.771 19.92 129.859 19.6 128.691 19.6C127.475 19.6 126.595 19.888 125.683 20.304L126.051 21.312C126.819 20.96 127.587 20.72 128.563 20.72C130.115 20.72 131.011 21.488 131.011 22.96V23.216C130.275 23.008 129.539 22.864 128.483 22.864C126.387 22.864 124.947 23.792 124.947 25.568C124.947 27.296 126.483 28.176 128.035 28.176ZM128.275 27.184C127.155 27.184 126.195 26.576 126.195 25.536C126.195 24.512 127.075 23.84 128.611 23.84C129.619 23.84 130.419 24.016 131.027 24.192V24.96C131.027 26.272 129.795 27.184 128.275 27.184ZM139.634 28H140.866V26L142.61 24.208L145.554 28H147.01L143.458 23.312L146.914 19.728H145.394L140.866 24.496V19.728H139.634V28ZM149.992 30.608C151.24 30.608 152.04 29.984 152.744 28.272L156.216 19.728H154.904L152.248 26.624L149.24 19.728H147.88L151.64 27.968C151.144 29.136 150.68 29.52 149.944 29.52C149.416 29.52 149.048 29.424 148.648 29.216L148.232 30.192C148.792 30.464 149.304 30.608 149.992 30.608ZM158.165 30.56H159.397V26.416C160.037 27.344 161.029 28.176 162.565 28.176C164.565 28.176 166.517 26.576 166.517 23.872C166.517 21.12 164.549 19.552 162.565 19.552C161.045 19.552 160.069 20.4 159.397 21.392V19.728H158.165V30.56ZM162.341 27.072C160.805 27.072 159.349 25.792 159.349 23.872C159.349 21.952 160.805 20.656 162.341 20.656C163.909 20.656 165.253 21.904 165.253 23.856C165.253 25.888 163.941 27.072 162.341 27.072ZM172.518 28.192C174.07 28.192 175.062 27.52 175.894 26.592L175.078 25.84C174.422 26.544 173.638 27.088 172.582 27.088C170.854 27.088 169.542 25.664 169.542 23.872C169.542 22.064 170.822 20.64 172.502 20.64C173.622 20.64 174.39 21.168 175.046 21.856L175.83 21.024C175.062 20.208 174.086 19.552 172.518 19.552C170.102 19.552 168.278 21.536 168.278 23.872C168.278 26.224 170.102 28.192 172.518 28.192Z" fill="white"/>
</svg>
