<svg width="24" height="24" viewBox="0 0 24 24" fill="none" xmlns="http://www.w3.org/2000/svg">
<g clip-path="url(#clip0)">
<path d="M20.7004 2.89999L19.1004 1.29999C18.6004 0.799988 17.9004 0.799988 17.5004 1.29999L13.5004 5.29999C13.0004 5.79999 13.0004 6.49999 13.5004 6.99999L15.5004 8.99999C15.7004 9.19999 15.7004 9.59999 15.5004 9.89999L9.90039 15.5C9.70039 15.7 9.30039 15.7 9.00039 15.5L7.00039 13.5C6.50039 13 5.80039 13 5.40039 13.5L1.40039 17.5C0.900391 18 0.900391 18.7 1.40039 19.1L3.00039 20.7L4.00039 21.8C5.60039 23.4 8.30039 23.4 10.0004 21.8L21.8004 9.99999C23.4004 8.39999 23.4004 5.69999 21.8004 3.99999L20.7004 2.89999Z" fill="white" stroke="black" stroke-width="2" stroke-miterlimit="10"/>
</g>
<defs>
<clipPath id="clip0">
<rect width="24" height="24" fill="white"/>
</clipPath>
</defs>
</svg>
