<svg width="20" height="26" viewBox="0 0 20 26" fill="none" xmlns="http://www.w3.org/2000/svg">
<path d="M18.1977 9.59885C18.1977 13.2841 13.0384 21.023 10.7044 24.4012C10.1516 25.1996 8.98465 25.1996 8.43186 24.4012C6.15931 21.023 1 13.2841 1 9.59885C1 4.86948 4.86948 1 9.59885 1C14.3282 1 18.1977 4.86948 18.1977 9.59885Z" fill="white" stroke="black" stroke-width="2" stroke-miterlimit="10" stroke-linecap="round"/>
<path d="M9.59831 11.81C10.9891 11.81 12.1165 10.6825 12.1165 9.29173C12.1165 7.90095 10.9891 6.7735 9.59831 6.7735C8.20753 6.7735 7.08008 7.90095 7.08008 9.29173C7.08008 10.6825 8.20753 11.81 9.59831 11.81Z" fill="white" stroke="black" stroke-width="2" stroke-miterlimit="10" stroke-linecap="round"/>
</svg>
