<svg width="717" height="501" viewBox="0 0 717 501" fill="none" xmlns="http://www.w3.org/2000/svg">
<g filter="url(#filter0_d)">
<rect x="35" y="35" width="647" height="431" rx="22" fill="white"/>
</g>
<path d="M61.848 98H65.236V93.292L67.018 91.444L71.792 98H75.862L69.306 89.134L75.576 82.6H71.484L65.236 89.332V82.6H61.848V98ZM80.9103 98.22C82.5383 98.22 83.6603 97.626 84.4743 96.724V98H87.7083V91.158C87.7083 89.574 87.3123 88.276 86.4323 87.396C85.5963 86.56 84.2763 86.076 82.4503 86.076C80.4483 86.076 79.1723 86.45 77.8743 87.022L78.7103 89.574C79.7883 89.178 80.6903 88.936 81.9663 88.936C83.6383 88.936 84.4963 89.706 84.4963 91.092V91.29C83.6603 91.004 82.8023 90.806 81.6143 90.806C78.8203 90.806 76.8623 91.994 76.8623 94.568C76.8623 96.944 78.6883 98.22 80.9103 98.22ZM81.9223 95.91C80.8443 95.91 80.0963 95.382 80.0963 94.48C80.0963 93.38 80.9763 92.808 82.4063 92.808C83.2203 92.808 83.9683 92.984 84.5403 93.248V93.842C84.5403 95.052 83.4843 95.91 81.9223 95.91ZM91.9938 86.208C91.9938 94.568 91.3338 95.294 90.0798 95.294C89.9258 95.294 89.5078 95.25 89.3758 95.228L89.1558 97.934C89.5958 98.044 90.4098 98.132 90.8498 98.132C93.7978 98.132 95.1398 96.878 95.1398 89.068H98.1318V98H101.476V86.208H91.9938ZM110.053 98.264C112.187 98.264 113.771 97.428 114.871 96.064L112.957 94.37C112.033 95.228 111.219 95.58 110.097 95.58C108.601 95.58 107.545 94.788 107.215 93.27H115.421C115.443 92.962 115.465 92.654 115.465 92.39C115.465 89.046 113.661 85.988 109.723 85.988C106.291 85.988 103.893 88.76 103.893 92.126C103.893 95.778 106.511 98.264 110.053 98.264ZM107.171 91.18C107.435 89.662 108.337 88.672 109.723 88.672C111.131 88.672 112.011 89.684 112.209 91.18H107.171ZM128.759 86.208H125.415V90.74H121.301V86.208H117.957V98H121.301V93.49H125.415V98H128.759V86.208ZM135.138 95.14C135.864 93.402 135.996 91.334 136.018 89.332V89.068H139.164V95.14H135.138ZM140.902 98V100.772H143.718L144.114 95.14H142.508V86.208H132.872V87.22C132.872 90.058 132.718 93.028 131.728 95.14H130.452V100.772H133.268L133.51 98H140.902ZM149.274 98.22C150.902 98.22 152.024 97.626 152.838 96.724V98H156.072V91.158C156.072 89.574 155.676 88.276 154.796 87.396C153.96 86.56 152.64 86.076 150.814 86.076C148.812 86.076 147.536 86.45 146.238 87.022L147.074 89.574C148.152 89.178 149.054 88.936 150.33 88.936C152.002 88.936 152.86 89.706 152.86 91.092V91.29C152.024 91.004 151.166 90.806 149.978 90.806C147.184 90.806 145.226 91.994 145.226 94.568C145.226 96.944 147.052 98.22 149.274 98.22ZM150.286 95.91C149.208 95.91 148.46 95.382 148.46 94.48C148.46 93.38 149.34 92.808 150.77 92.808C151.584 92.808 152.332 92.984 152.904 93.248V93.842C152.904 95.052 151.848 95.91 150.286 95.91ZM158.949 101.52H162.293V96.46C163.085 97.406 164.185 98.22 165.967 98.22C168.761 98.22 171.335 96.064 171.335 92.126C171.335 88.144 168.717 85.988 165.967 85.988C164.229 85.988 163.107 86.802 162.293 87.902V86.208H158.949V101.52ZM165.109 95.382C163.547 95.382 162.249 94.084 162.249 92.126C162.249 90.124 163.547 88.826 165.109 88.826C166.671 88.826 167.991 90.124 167.991 92.082C167.991 94.106 166.671 95.382 165.109 95.382ZM173.795 98H179.735C182.573 98 184.267 96.482 184.267 93.996C184.267 91.356 182.287 90.102 179.559 90.102H177.139V86.208H173.795V98ZM179.229 92.632C180.329 92.632 180.901 93.138 180.901 93.952C180.901 94.854 180.351 95.36 179.251 95.36H177.139V92.632H179.229ZM192.787 98H196.087V90.982L199.321 95.756L202.599 90.916V98H205.987V86.208H202.599L199.365 91.158L196.175 86.208H192.787V98ZM214.574 98.264C216.708 98.264 218.292 97.428 219.392 96.064L217.478 94.37C216.554 95.228 215.74 95.58 214.618 95.58C213.122 95.58 212.066 94.788 211.736 93.27H219.942C219.964 92.962 219.986 92.654 219.986 92.39C219.986 89.046 218.182 85.988 214.244 85.988C210.812 85.988 208.414 88.76 208.414 92.126C208.414 95.778 211.032 98.264 214.574 98.264ZM211.692 91.18C211.956 89.662 212.858 88.672 214.244 88.672C215.652 88.672 216.532 89.684 216.73 91.18H211.692ZM222.478 101.52H225.822V96.46C226.614 97.406 227.714 98.22 229.496 98.22C232.29 98.22 234.864 96.064 234.864 92.126C234.864 88.144 232.246 85.988 229.496 85.988C227.758 85.988 226.636 86.802 225.822 87.902V86.208H222.478V101.52ZM228.638 95.382C227.076 95.382 225.778 94.084 225.778 92.126C225.778 90.124 227.076 88.826 228.638 88.826C230.2 88.826 231.52 90.124 231.52 92.082C231.52 94.106 230.2 95.382 228.638 95.382ZM243.11 98.264C246.784 98.264 249.512 95.514 249.512 92.126C249.512 88.694 246.806 85.988 243.154 85.988C239.48 85.988 236.752 88.738 236.752 92.126C236.752 95.558 239.458 98.264 243.11 98.264ZM243.154 95.382C241.306 95.382 240.052 93.864 240.052 92.126C240.052 90.344 241.196 88.87 243.11 88.87C244.958 88.87 246.212 90.388 246.212 92.126C246.212 93.908 245.068 95.382 243.154 95.382ZM262.648 86.208H251.934V98H255.278V89.068H259.304V98H262.648V86.208ZM265.641 101.52H268.985V96.46C269.777 97.406 270.877 98.22 272.659 98.22C275.453 98.22 278.027 96.064 278.027 92.126C278.027 88.144 275.409 85.988 272.659 85.988C270.921 85.988 269.799 86.802 268.985 87.902V86.208H265.641V101.52ZM271.801 95.382C270.239 95.382 268.941 94.084 268.941 92.126C268.941 90.124 270.239 88.826 271.801 88.826C273.363 88.826 274.683 90.124 274.683 92.082C274.683 94.106 273.363 95.382 271.801 95.382ZM291.464 86.208H288.318L283.72 93.094V86.208H280.486V98H283.632L288.23 91.136V98H291.464V86.208ZM304.901 86.208H298.719C295.639 86.208 293.945 87.792 293.945 90.146C293.945 91.972 294.913 93.094 296.409 93.666L293.395 98H297.267L299.753 94.216H301.557V98H304.901V86.208ZM299.291 91.796C298.081 91.796 297.333 91.268 297.333 90.322C297.333 89.354 298.059 88.826 299.269 88.826H301.557V91.796H299.291ZM317.118 86.208H306.734V89.068H310.232V98H313.62V89.068H317.118V86.208ZM329.921 86.208H326.775L322.177 93.094V86.208H318.943V98H322.089L326.687 91.136V98H329.921V86.208ZM343.886 86.208H340.74L336.142 93.094V86.208H332.908V98H336.054L340.652 91.136V98H343.886V86.208ZM338.496 85.086C340.52 85.086 341.884 83.854 342.192 81.742L340.234 81.39C339.948 82.292 339.42 82.864 338.496 82.864C337.572 82.864 337.044 82.292 336.758 81.39L334.8 81.742C335.108 83.854 336.472 85.086 338.496 85.086Z" fill="black"/>
<path d="M561.296 98H572.692V95.074H565.982L568.49 93.138C571.218 91.026 572.538 89.75 572.538 87.176C572.538 84.25 570.426 82.38 567.236 82.38C564.486 82.38 563.012 83.502 561.494 85.57L563.87 87.484C565.014 86.076 565.828 85.416 567.016 85.416C568.226 85.416 569.084 86.12 569.084 87.418C569.084 88.694 568.336 89.53 566.422 91.114L561.296 95.316V98ZM581.933 98.264C586.047 98.264 588.797 94.766 588.797 90.3C588.797 85.79 586.047 82.336 581.977 82.336C577.885 82.336 575.113 85.834 575.113 90.3C575.113 94.81 577.819 98.264 581.933 98.264ZM581.977 95.206C579.931 95.206 578.589 93.116 578.589 90.3C578.589 87.44 579.909 85.394 581.933 85.394C583.957 85.394 585.321 87.506 585.321 90.3C585.321 93.138 584.023 95.206 581.977 95.206ZM590.858 98H602.254V95.074H595.544L598.052 93.138C600.78 91.026 602.1 89.75 602.1 87.176C602.1 84.25 599.988 82.38 596.798 82.38C594.048 82.38 592.574 83.502 591.056 85.57L593.432 87.484C594.576 86.076 595.39 85.416 596.578 85.416C597.788 85.416 598.646 86.12 598.646 87.418C598.646 88.694 597.898 89.53 595.984 91.114L590.858 95.316V98ZM611.495 98.264C615.609 98.264 618.359 94.766 618.359 90.3C618.359 85.79 615.609 82.336 611.539 82.336C607.447 82.336 604.675 85.834 604.675 90.3C604.675 94.81 607.381 98.264 611.495 98.264ZM611.539 95.206C609.493 95.206 608.151 93.116 608.151 90.3C608.151 87.44 609.471 85.394 611.495 85.394C613.519 85.394 614.883 87.506 614.883 90.3C614.883 93.138 613.585 95.206 611.539 95.206Z" fill="#3725E4"/>
<g clip-path="url(#clip0)">
<path d="M646.146 82L653.246 89.1C653.746 89.6 653.746 90.5 653.246 91.1L646.146 98.2" stroke="#3725E4" stroke-width="2" stroke-miterlimit="10" stroke-linecap="round"/>
<path d="M651.846 90.1001H634.646" stroke="#3725E4" stroke-width="2" stroke-miterlimit="10" stroke-linecap="round"/>
</g>
<path d="M77.0499 257H78.1419V247.13H77.3299L74.9359 247.956L75.2019 248.852L77.0499 248.278V257Z" fill="black"/>
<path d="M77.054 302.22C80.464 302.22 82.994 300.548 82.994 297.688C82.994 295.818 82.07 294.828 80.508 294.014C81.696 293.288 82.466 292.298 82.466 290.648C82.466 288.228 80.31 286.38 77.054 286.38C73.798 286.38 71.642 288.25 71.642 290.604C71.642 292.298 72.412 293.288 73.6 294.014C71.972 294.762 71.114 295.862 71.114 297.732C71.114 300.46 73.644 302.22 77.054 302.22ZM77.054 292.892C75.712 292.892 74.854 292.078 74.854 291C74.854 290.01 75.668 289.174 77.054 289.174C78.44 289.174 79.254 290.032 79.254 290.978C79.254 292.1 78.396 292.892 77.054 292.892ZM77.054 299.426C75.382 299.426 74.392 298.568 74.392 297.512C74.392 296.28 75.514 295.576 77.054 295.576C78.594 295.576 79.716 296.28 79.716 297.468C79.716 298.59 78.726 299.426 77.054 299.426Z" fill="#3725E4"/>
<path d="M69.3994 345H72.7434V329.49H70.4334L66.0114 330.81L66.7154 333.582L69.3994 332.922V345ZM81.4746 345.264C85.0166 345.264 87.3266 343.196 87.3266 339.94C87.3266 336.42 84.9286 334.968 81.9366 334.968C81.0786 334.968 80.5286 335.078 79.9126 335.232L80.0886 332.57H86.6446V329.6H77.1846L76.7446 337.19L78.7026 338.488C79.4286 338.18 80.3086 337.916 81.2766 337.916C82.8826 337.916 84.0046 338.686 84.0046 340.006C84.0046 341.414 83.0146 342.184 81.4306 342.184C80.0666 342.184 78.9226 341.568 77.7566 340.512L75.7106 342.954C77.2066 344.384 79.0106 345.264 81.4746 345.264Z" fill="#3725E4"/>
<path d="M64.4237 388H75.8197V385.074H69.1097L71.6177 383.138C74.3457 381.026 75.6657 379.75 75.6657 377.176C75.6657 374.25 73.5537 372.38 70.3637 372.38C67.6137 372.38 66.1397 373.502 64.6217 375.57L66.9977 377.484C68.1417 376.076 68.9557 375.416 70.1437 375.416C71.3537 375.416 72.2117 376.12 72.2117 377.418C72.2117 378.694 71.4637 379.53 69.5497 381.114L64.4237 385.316V388ZM78.1307 388H89.5267V385.074H82.8167L85.3247 383.138C88.0527 381.026 89.3727 379.75 89.3727 377.176C89.3727 374.25 87.2607 372.38 84.0707 372.38C81.3207 372.38 79.8467 373.502 78.3287 375.57L80.7047 377.484C81.8487 376.076 82.6627 375.416 83.8507 375.416C85.0607 375.416 85.9187 376.12 85.9187 377.418C85.9187 378.694 85.1707 379.53 83.2567 381.114L78.1307 385.316V388Z" fill="#3725E4"/>
<path d="M64.494 431H75.89V428.074H69.18L71.688 426.138C74.416 424.026 75.736 422.75 75.736 420.176C75.736 417.25 73.624 415.38 70.434 415.38C67.684 415.38 66.21 416.502 64.692 418.57L67.068 420.484C68.212 419.076 69.026 418.416 70.214 418.416C71.424 418.416 72.282 419.12 72.282 420.418C72.282 421.694 71.534 422.53 69.62 424.114L64.494 428.316V431ZM83.767 431.264C88.145 431.264 90.499 427.854 90.499 422.86C90.499 419.78 89.773 418.108 88.673 417.008C87.507 415.842 86.297 415.336 84.229 415.336C80.753 415.336 78.355 417.624 78.355 420.726C78.355 423.894 80.511 425.742 83.855 425.742C85.197 425.742 86.231 425.324 86.979 424.686C86.759 426.754 85.747 428.184 83.855 428.184C82.557 428.184 81.611 427.766 80.489 426.864L78.707 429.438C80.005 430.516 81.523 431.264 83.767 431.264ZM84.405 422.926C82.733 422.926 81.721 421.98 81.721 420.616C81.721 419.208 82.667 418.24 84.339 418.24C86.033 418.24 87.045 419.23 87.045 420.594C87.045 421.958 86.077 422.926 84.405 422.926Z" fill="#3725E4"/>
<path d="M168.02 257H174.866V255.992H169.672L172.29 253.668C173.998 252.156 174.768 251.288 174.768 249.86C174.768 248.236 173.494 247.06 171.73 247.06C170.008 247.06 169.084 247.83 168.202 249.146L169.014 249.734C169.798 248.642 170.526 248.054 171.646 248.054C172.71 248.054 173.62 248.782 173.62 249.93C173.62 250.91 173.088 251.68 171.576 253.01L168.02 256.146V257Z" fill="black"/>
<path d="M170.899 302.264C175.277 302.264 177.631 298.854 177.631 293.86C177.631 290.78 176.905 289.108 175.805 288.008C174.639 286.842 173.429 286.336 171.361 286.336C167.885 286.336 165.487 288.624 165.487 291.726C165.487 294.894 167.643 296.742 170.987 296.742C172.329 296.742 173.363 296.324 174.111 295.686C173.891 297.754 172.879 299.184 170.987 299.184C169.689 299.184 168.743 298.766 167.621 297.864L165.839 300.438C167.137 301.516 168.655 302.264 170.899 302.264ZM171.537 293.926C169.865 293.926 168.853 292.98 168.853 291.616C168.853 290.208 169.799 289.24 171.471 289.24C173.165 289.24 174.177 290.23 174.177 291.594C174.177 292.958 173.209 293.926 171.537 293.926Z" fill="#3725E4"/>
<path d="M163.03 345H166.374V329.49H164.064L159.642 330.81L160.346 333.582L163.03 332.922V345ZM175.854 345.264C179.198 345.264 181.728 343.086 181.728 339.94C181.728 336.684 179.374 334.99 176.316 334.99C174.798 334.99 173.896 335.474 173.126 335.98C173.346 333.956 174.314 332.416 176.228 332.416C177.548 332.416 178.362 332.878 179.374 333.648L181.156 331.03C179.792 329.952 178.428 329.336 176.338 329.336C171.74 329.336 169.584 332.988 169.584 337.74C169.584 340.842 170.288 342.492 171.41 343.614C172.488 344.692 173.852 345.264 175.854 345.264ZM175.722 342.36C174.05 342.36 173.038 341.37 173.038 340.072C173.038 338.73 174.006 337.806 175.678 337.806C177.35 337.806 178.362 338.752 178.362 340.05C178.362 341.414 177.394 342.36 175.722 342.36Z" fill="#3725E4"/>
<path d="M163.727 386H170.573V384.992H165.379L167.997 382.668C169.705 381.156 170.475 380.288 170.475 378.86C170.475 377.236 169.201 376.06 167.437 376.06C165.715 376.06 164.791 376.83 163.909 378.146L164.721 378.734C165.505 377.642 166.233 377.054 167.353 377.054C168.417 377.054 169.327 377.782 169.327 378.93C169.327 379.91 168.795 380.68 167.283 382.01L163.727 385.146V386ZM175.79 386.168C177.61 386.168 179.066 384.964 179.066 383.214C179.066 381.394 177.54 380.568 175.832 380.428L178.912 377.012V376.2H172.654V377.194H177.442L174.348 380.68L174.572 381.338H175.202C176.812 381.338 177.946 382.01 177.946 383.228C177.946 384.404 176.994 385.16 175.804 385.16C174.6 385.16 173.69 384.628 172.934 383.704L172.136 384.418C172.934 385.454 174.152 386.168 175.79 386.168Z" fill="black"/>
<path d="M163.013 431.264C166.445 431.264 168.557 429.13 168.557 426.226C168.557 423.322 166.511 422.222 164.421 421.87L168.315 418.152V415.6H157.909V418.504H163.959L160.285 422.2L160.813 424.356H162.221C164.113 424.356 165.235 425.06 165.235 426.314C165.235 427.502 164.333 428.228 163.057 428.228C161.495 428.228 160.395 427.568 159.339 426.38L157.007 428.602C158.327 430.164 160.241 431.264 163.013 431.264ZM177.843 431.264C181.957 431.264 184.707 427.766 184.707 423.3C184.707 418.79 181.957 415.336 177.887 415.336C173.795 415.336 171.023 418.834 171.023 423.3C171.023 427.81 173.729 431.264 177.843 431.264ZM177.887 428.206C175.841 428.206 174.499 426.116 174.499 423.3C174.499 420.44 175.819 418.394 177.843 418.394C179.867 418.394 181.231 420.506 181.231 423.3C181.231 426.138 179.933 428.206 177.887 428.206Z" fill="#3725E4"/>
<path d="M265.584 257.168C267.404 257.168 268.86 255.964 268.86 254.214C268.86 252.394 267.334 251.568 265.626 251.428L268.706 248.012V247.2H262.448V248.194H267.236L264.142 251.68L264.366 252.338H264.996C266.606 252.338 267.74 253.01 267.74 254.228C267.74 255.404 266.788 256.16 265.598 256.16C264.394 256.16 263.484 255.628 262.728 254.704L261.93 255.418C262.728 256.454 263.946 257.168 265.584 257.168Z" fill="black"/>
<path d="M256.264 302H259.608V286.49H257.298L252.876 287.81L253.58 290.582L256.264 289.922V302ZM269.637 302.264C273.751 302.264 276.501 298.766 276.501 294.3C276.501 289.79 273.751 286.336 269.681 286.336C265.589 286.336 262.817 289.834 262.817 294.3C262.817 298.81 265.523 302.264 269.637 302.264ZM269.681 299.206C267.635 299.206 266.293 297.116 266.293 294.3C266.293 291.44 267.613 289.394 269.637 289.394C271.661 289.394 273.025 291.506 273.025 294.3C273.025 297.138 271.727 299.206 269.681 299.206Z" fill="#3725E4"/>
<path d="M257.988 345H261.332V329.49H259.022L254.6 330.81L255.304 333.582L257.988 332.922V345ZM265.202 345H269.03L275.938 332.152V329.6H264.85V332.526H272.088L265.202 345Z" fill="#3725E4"/>
<path d="M252.325 388H263.721V385.074H257.011L259.519 383.138C262.247 381.026 263.567 379.75 263.567 377.176C263.567 374.25 261.455 372.38 258.265 372.38C255.515 372.38 254.041 373.502 252.523 375.57L254.899 377.484C256.043 376.076 256.857 375.416 258.045 375.416C259.255 375.416 260.113 376.12 260.113 377.418C260.113 378.694 259.365 379.53 257.451 381.114L252.325 385.316V388ZM273.388 388H276.622V384.678H278.69V381.928H276.622V372.49H273.762L265.314 382.28L265.864 384.678H273.388V388ZM269.296 381.928L273.388 377.132V381.928H269.296Z" fill="#3725E4"/>
<path d="M260.893 431.264C264.325 431.264 266.437 429.13 266.437 426.226C266.437 423.322 264.391 422.222 262.301 421.87L266.195 418.152V415.6H255.789V418.504H261.839L258.165 422.2L258.693 424.356H260.101C261.993 424.356 263.115 425.06 263.115 426.314C263.115 427.502 262.213 428.228 260.937 428.228C259.375 428.228 258.275 427.568 257.219 426.38L254.887 428.602C256.207 430.164 258.121 431.264 260.893 431.264ZM271.631 431H274.975V415.49H272.665L268.243 416.81L268.947 419.582L271.631 418.922V431Z" fill="#3725E4"/>
<path d="M359.361 257H360.425V254.676H361.951V253.752H360.425V247.13H359.459L353.915 253.878L354.195 254.676H359.361V257ZM355.245 253.752L359.361 248.698V253.752H355.245Z" fill="black"/>
<path d="M355.997 300H357.089V290.13H356.277L353.883 290.956L354.149 291.852L355.997 291.278V300ZM361.015 300H362.107V290.13H361.295L358.901 290.956L359.167 291.852L361.015 291.278V300Z" fill="black"/>
<path d="M350.355 345H353.699V329.49H351.389L346.967 330.81L347.671 333.582L350.355 332.922V345ZM362.651 345.22C366.061 345.22 368.591 343.548 368.591 340.688C368.591 338.818 367.667 337.828 366.105 337.014C367.293 336.288 368.063 335.298 368.063 333.648C368.063 331.228 365.907 329.38 362.651 329.38C359.395 329.38 357.239 331.25 357.239 333.604C357.239 335.298 358.009 336.288 359.197 337.014C357.569 337.762 356.711 338.862 356.711 340.732C356.711 343.46 359.241 345.22 362.651 345.22ZM362.651 335.892C361.309 335.892 360.451 335.078 360.451 334C360.451 333.01 361.265 332.174 362.651 332.174C364.037 332.174 364.851 333.032 364.851 333.978C364.851 335.1 363.993 335.892 362.651 335.892ZM362.651 342.426C360.979 342.426 359.989 341.568 359.989 340.512C359.989 339.28 361.111 338.576 362.651 338.576C364.191 338.576 365.313 339.28 365.313 340.468C365.313 341.59 364.323 342.426 362.651 342.426Z" fill="#3725E4"/>
<path d="M350.704 386H357.55V384.992H352.356L354.974 382.668C356.682 381.156 357.452 380.288 357.452 378.86C357.452 377.236 356.178 376.06 354.414 376.06C352.692 376.06 351.768 376.83 350.886 378.146L351.698 378.734C352.482 377.642 353.21 377.054 354.33 377.054C355.394 377.054 356.304 377.782 356.304 378.93C356.304 379.91 355.772 380.68 354.26 382.01L350.704 385.146V386ZM362.655 386.168C364.699 386.168 366.155 384.866 366.155 382.948C366.155 381.058 364.671 379.924 362.767 379.924C361.955 379.924 361.409 380.106 360.835 380.358L361.045 377.222H365.721V376.2H360.079L359.799 380.974L360.541 381.464C361.115 381.156 361.773 380.904 362.599 380.904C364.027 380.904 365.035 381.744 365.035 382.962C365.035 384.236 364.069 385.16 362.669 385.16C361.675 385.16 360.737 384.642 359.883 383.816L359.155 384.614C360.037 385.496 361.255 386.168 362.655 386.168Z" fill="black"/>
<path d="M451.413 259.264C454.955 259.264 457.265 257.196 457.265 253.94C457.265 250.42 454.867 248.968 451.875 248.968C451.017 248.968 450.467 249.078 449.851 249.232L450.027 246.57H456.583V243.6H447.123L446.683 251.19L448.641 252.488C449.367 252.18 450.247 251.916 451.215 251.916C452.821 251.916 453.943 252.686 453.943 254.006C453.943 255.414 452.953 256.184 451.369 256.184C450.005 256.184 448.861 255.568 447.695 254.512L445.649 256.954C447.145 258.384 448.949 259.264 451.413 259.264Z" fill="#3725E4"/>
<path d="M444.554 302H447.898V286.49H445.588L441.166 287.81L441.87 290.582L444.554 289.922V302ZM450.997 302H462.393V299.074H455.683L458.191 297.138C460.919 295.026 462.239 293.75 462.239 291.176C462.239 288.25 460.127 286.38 456.937 286.38C454.187 286.38 452.713 287.502 451.195 289.57L453.571 291.484C454.715 290.076 455.529 289.416 456.717 289.416C457.927 289.416 458.785 290.12 458.785 291.418C458.785 292.694 458.037 293.53 456.123 295.114L450.997 299.316V302Z" fill="#3725E4"/>
<g opacity="0.8">
<path d="M447.597 343H448.689V333.13H447.877L445.483 333.956L445.749 334.852L447.597 334.278V343ZM454.238 343.168C456.66 343.168 458.312 340.97 458.312 337.862C458.312 334.334 456.674 333.032 454.518 333.032C452.432 333.032 450.99 334.502 450.99 336.364C450.99 338.156 452.39 339.43 454.406 339.43C455.764 339.43 456.646 338.716 457.178 337.862V337.988C457.178 340.424 456.002 342.16 454.266 342.16C453.398 342.16 452.656 341.81 451.858 341.11L451.214 341.964C452.04 342.65 452.964 343.168 454.238 343.168ZM454.532 338.478C453.104 338.478 452.124 337.582 452.124 336.336C452.124 335.09 453.006 334.012 454.476 334.012C455.946 334.012 456.968 334.992 456.968 336.238C456.968 337.386 456.03 338.478 454.532 338.478Z" fill="black"/>
</g>
<path d="M439.073 388H450.469V385.074H443.759L446.267 383.138C448.995 381.026 450.315 379.75 450.315 377.176C450.315 374.25 448.203 372.38 445.013 372.38C442.263 372.38 440.789 373.502 439.271 375.57L441.647 377.484C442.791 376.076 443.605 375.416 444.793 375.416C446.003 375.416 446.861 376.12 446.861 377.418C446.861 378.694 446.113 379.53 444.199 381.114L439.073 385.316V388ZM459.16 388.264C462.504 388.264 465.034 386.086 465.034 382.94C465.034 379.684 462.68 377.99 459.622 377.99C458.104 377.99 457.202 378.474 456.432 378.98C456.652 376.956 457.62 375.416 459.534 375.416C460.854 375.416 461.668 375.878 462.68 376.648L464.462 374.03C463.098 372.952 461.734 372.336 459.644 372.336C455.046 372.336 452.89 375.988 452.89 380.74C452.89 383.842 453.594 385.492 454.716 386.614C455.794 387.692 457.158 388.264 459.16 388.264ZM459.028 385.36C457.356 385.36 456.344 384.37 456.344 383.072C456.344 381.73 457.312 380.806 458.984 380.806C460.656 380.806 461.668 381.752 461.668 383.05C461.668 384.414 460.7 385.36 459.028 385.36Z" fill="#3725E4"/>
<path d="M530.189 345H541.585V342.074H534.875L537.383 340.138C540.111 338.026 541.431 336.75 541.431 334.176C541.431 331.25 539.319 329.38 536.129 329.38C533.379 329.38 531.905 330.502 530.387 332.57L532.763 334.484C533.907 333.076 534.721 332.416 535.909 332.416C537.119 332.416 537.977 333.12 537.977 334.418C537.977 335.694 537.229 336.53 535.315 338.114L530.189 342.316V345ZM550.826 345.264C554.94 345.264 557.69 341.766 557.69 337.3C557.69 332.79 554.94 329.336 550.87 329.336C546.778 329.336 544.006 332.834 544.006 337.3C544.006 341.81 546.712 345.264 550.826 345.264ZM550.87 342.206C548.824 342.206 547.482 340.116 547.482 337.3C547.482 334.44 548.802 332.394 550.826 332.394C552.85 332.394 554.214 334.506 554.214 337.3C554.214 340.138 552.916 342.206 550.87 342.206Z" fill="#3725E4"/>
<path d="M546.292 259.264C549.636 259.264 552.166 257.086 552.166 253.94C552.166 250.684 549.812 248.99 546.754 248.99C545.236 248.99 544.334 249.474 543.564 249.98C543.784 247.956 544.752 246.416 546.666 246.416C547.986 246.416 548.8 246.878 549.812 247.648L551.594 245.03C550.23 243.952 548.866 243.336 546.776 243.336C542.178 243.336 540.022 246.988 540.022 251.74C540.022 254.842 540.726 256.492 541.848 257.614C542.926 258.692 544.29 259.264 546.292 259.264ZM546.16 256.36C544.488 256.36 543.476 255.37 543.476 254.072C543.476 252.73 544.444 251.806 546.116 251.806C547.788 251.806 548.8 252.752 548.8 254.05C548.8 255.414 547.832 256.36 546.16 256.36Z" fill="#3725E4"/>
<g opacity="0.8">
<path d="M541.321 300H542.413V290.13H541.601L539.207 290.956L539.473 291.852L541.321 291.278V300ZM548.187 300.168C550.007 300.168 551.463 298.964 551.463 297.214C551.463 295.394 549.937 294.568 548.229 294.428L551.309 291.012V290.2H545.051V291.194H549.839L546.745 294.68L546.969 295.338H547.599C549.209 295.338 550.343 296.01 550.343 297.228C550.343 298.404 549.391 299.16 548.201 299.16C546.997 299.16 546.087 298.628 545.331 297.704L544.533 298.418C545.331 299.454 546.549 300.168 548.187 300.168Z" fill="black"/>
</g>
<g opacity="0.8">
<path d="M538.511 386H545.357V384.992H540.163L542.781 382.668C544.489 381.156 545.259 380.288 545.259 378.86C545.259 377.236 543.985 376.06 542.221 376.06C540.499 376.06 539.575 376.83 538.693 378.146L539.505 378.734C540.289 377.642 541.017 377.054 542.137 377.054C543.201 377.054 544.111 377.782 544.111 378.93C544.111 379.91 543.579 380.68 542.067 382.01L538.511 385.146V386ZM547.974 386H549.206L553.658 377.026V376.2H547.008V377.208H552.398L547.974 386Z" fill="black"/>
</g>
<path d="M634.64 259H638.468L645.376 246.152V243.6H634.288V246.526H641.526L634.64 259Z" fill="#3725E4"/>
<g opacity="0.8">
<path d="M635.403 300H636.495V290.13H635.683L633.289 290.956L633.555 291.852L635.403 291.278V300ZM643.963 300H645.027V297.676H646.553V296.752H645.027V290.13H644.061L638.517 296.878L638.797 297.676H643.963V300ZM639.847 296.752L643.963 291.698V296.752H639.847Z" fill="black"/>
</g>
<path d="M629.686 345H641.082V342.074H634.372L636.88 340.138C639.608 338.026 640.928 336.75 640.928 334.176C640.928 331.25 638.816 329.38 635.626 329.38C632.876 329.38 631.402 330.502 629.884 332.57L632.26 334.484C633.404 333.076 634.218 332.416 635.406 332.416C636.616 332.416 637.474 333.12 637.474 334.418C637.474 335.694 636.726 336.53 634.812 338.114L629.686 342.316V345ZM646.231 345H649.575V329.49H647.265L642.843 330.81L643.547 333.582L646.231 332.922V345Z" fill="#3725E4"/>
<g opacity="0.8">
<path d="M631.675 386H638.521V384.992H633.327L635.945 382.668C637.653 381.156 638.423 380.288 638.423 378.86C638.423 377.236 637.149 376.06 635.385 376.06C633.663 376.06 632.739 376.83 631.857 378.146L632.669 378.734C633.453 377.642 634.181 377.054 635.301 377.054C636.365 377.054 637.275 377.782 637.275 378.93C637.275 379.91 636.743 380.68 635.231 382.01L631.675 385.146V386ZM643.794 386.14C645.88 386.14 647.476 385.02 647.476 383.354C647.476 382.164 646.622 381.366 645.46 380.932C646.37 380.512 647.14 379.812 647.14 378.678C647.14 377.138 645.586 376.06 643.794 376.06C642.002 376.06 640.448 377.138 640.448 378.65C640.448 379.812 641.218 380.512 642.128 380.932C640.952 381.352 640.112 382.178 640.112 383.34C640.112 385.006 641.708 386.14 643.794 386.14ZM643.794 380.54C642.548 380.54 641.554 379.812 641.554 378.748C641.554 377.74 642.52 377.026 643.794 377.026C645.068 377.026 646.034 377.754 646.034 378.72C646.034 379.812 645.04 380.54 643.794 380.54ZM643.794 385.174C642.184 385.174 641.232 384.334 641.232 383.34C641.232 382.22 642.366 381.45 643.794 381.45C645.222 381.45 646.356 382.22 646.356 383.312C646.356 384.334 645.404 385.174 643.794 385.174Z" fill="black"/>
</g>
<rect x="35.6807" y="171" width="645.638" height="40" fill="#F9F9F9"/>
<path d="M71.801 196H72.907V187.208H78.423V196H79.529V186.2H71.801V196ZM71.619 214H72.697V210.836H76.869V214H77.947V206.762H76.869V209.884H72.697V206.762H71.619V214Z" fill="black"/>
<path d="M165.786 196H170.14C172.282 196 173.696 195.006 173.696 193.326C173.696 191.954 172.758 191.282 171.596 190.932C172.366 190.596 173.15 189.938 173.15 188.664C173.15 188.006 172.926 187.488 172.52 187.068C171.974 186.508 171.078 186.2 169.958 186.2H165.786V196ZM166.878 195.006V191.548H169.972C171.68 191.548 172.576 192.164 172.576 193.228C172.576 194.348 171.652 195.006 170.168 195.006H166.878ZM166.878 190.568V187.194H169.86C171.26 187.194 172.03 187.824 172.03 188.79C172.03 189.966 171.106 190.568 169.776 190.568H166.878ZM177.458 196H178.55V189.714H181.14V188.762H174.868V189.714H177.458V196Z" fill="black"/>
<path d="M263.57 196.168C265.348 196.168 266.468 195.538 267.49 194.502L266.762 193.732C265.824 194.628 264.942 195.146 263.598 195.146C261.442 195.146 259.804 193.368 259.804 191.1C259.804 188.818 261.428 187.054 263.598 187.054C264.928 187.054 265.852 187.614 266.678 188.398L267.406 187.614C266.426 186.69 265.39 186.032 263.612 186.032C260.728 186.032 258.656 188.328 258.656 191.1C258.656 193.942 260.742 196.168 263.57 196.168ZM269.244 198.24H270.322V194.614C270.882 195.426 271.75 196.154 273.094 196.154C274.844 196.154 276.552 194.754 276.552 192.388C276.552 189.98 274.83 188.608 273.094 188.608C271.764 188.608 270.91 189.35 270.322 190.218V188.762H269.244V198.24ZM272.898 195.188C271.554 195.188 270.28 194.068 270.28 192.388C270.28 190.708 271.554 189.574 272.898 189.574C274.27 189.574 275.446 190.666 275.446 192.374C275.446 194.152 274.298 195.188 272.898 195.188Z" fill="black"/>
<path d="M359.608 196H360.714V186.2H359.608V190.792C358.782 191.282 357.634 191.744 356.64 191.744C355.268 191.744 354.498 190.96 354.498 189.714V186.2H353.392V189.896C353.392 191.8 354.652 192.78 356.556 192.78C357.508 192.78 358.852 192.248 359.608 191.814V196ZM365.058 196H366.15V189.714H368.74V188.762H362.468V189.714H365.058V196Z" fill="black"/>
<path d="M445.699 196H446.805V187.208H452.321V196H453.427V186.2H445.699V196ZM457.767 196H458.859V189.714H461.449V188.762H455.177V189.714H457.767V196Z" fill="black"/>
<path d="M542.802 196.168C544.58 196.168 545.7 195.538 546.722 194.502L545.994 193.732C545.056 194.628 544.174 195.146 542.83 195.146C540.674 195.146 539.036 193.368 539.036 191.1C539.036 188.818 540.66 187.054 542.83 187.054C544.16 187.054 545.084 187.614 545.91 188.398L546.638 187.614C545.658 186.69 544.622 186.032 542.844 186.032C539.96 186.032 537.888 188.328 537.888 191.1C537.888 193.942 539.974 196.168 542.802 196.168ZM551.877 196.168C554.019 196.168 555.587 194.46 555.587 192.444C555.587 190.456 554.005 188.846 552.115 188.846C550.575 188.846 549.623 189.56 549.119 190.414C549.231 189.028 549.735 188.216 551.233 187.838L555.153 186.872L554.943 185.962L550.911 186.914C548.391 187.516 548.209 189.756 548.209 192.094C548.209 194.614 549.679 196.168 551.877 196.168ZM551.905 195.202C550.449 195.202 549.315 193.984 549.315 192.472C549.315 190.96 550.379 189.742 551.877 189.742C553.333 189.742 554.467 190.96 554.467 192.472C554.467 193.984 553.403 195.202 551.905 195.202Z" fill="black"/>
<path d="M633.669 196H638.023C640.165 196 641.579 195.006 641.579 193.326C641.579 191.954 640.641 191.282 639.479 190.932C640.249 190.596 641.033 189.938 641.033 188.664C641.033 188.006 640.809 187.488 640.403 187.068C639.857 186.508 638.961 186.2 637.841 186.2H633.669V196ZM634.761 195.006V191.548H637.855C639.563 191.548 640.459 192.164 640.459 193.228C640.459 194.348 639.535 195.006 638.051 195.006H634.761ZM634.761 190.568V187.194H637.743C639.143 187.194 639.913 187.824 639.913 188.79C639.913 189.966 638.989 190.568 637.659 190.568H634.761ZM646.853 196.168C648.211 196.168 649.079 195.58 649.807 194.768L649.093 194.11C648.519 194.726 647.833 195.202 646.909 195.202C645.397 195.202 644.249 193.956 644.249 192.388C644.249 190.806 645.369 189.56 646.839 189.56C647.819 189.56 648.491 190.022 649.065 190.624L649.751 189.896C649.079 189.182 648.225 188.608 646.853 188.608C644.739 188.608 643.143 190.344 643.143 192.388C643.143 194.446 644.739 196.168 646.853 196.168Z" fill="black"/>
<g clip-path="url(#clip1)">
<path d="M80.3682 137.914L80.251 138.43C80.0999 138.435 79.9072 138.458 79.6729 138.5C79.4385 138.542 79.264 138.581 79.1494 138.617C78.9463 138.685 78.8005 138.792 78.7119 138.938C78.6234 139.083 78.5583 139.24 78.5166 139.406L76.6494 147.477C76.639 147.518 76.6312 147.565 76.626 147.617C76.6208 147.669 76.6182 147.711 76.6182 147.742C76.6182 147.852 76.6416 147.951 76.6885 148.039C76.7354 148.122 76.8135 148.198 76.9229 148.266C76.9958 148.312 77.1494 148.359 77.3838 148.406C77.6234 148.453 77.8109 148.479 77.9463 148.484L77.8213 149H72.9385L73.0635 148.484C73.251 148.474 73.4854 148.456 73.7666 148.43C74.0479 148.398 74.2458 148.354 74.3604 148.297C74.5426 148.198 74.6885 148.083 74.7979 147.953C74.9124 147.823 74.988 147.664 75.0244 147.477L76.9385 139.219H76.8525L70.7979 148.82H70.4307L69.04 139.023H68.9619L67.3916 145.836C67.3291 146.112 67.277 146.38 67.2354 146.641C67.1937 146.901 67.1729 147.112 67.1729 147.273C67.1729 147.445 67.1911 147.594 67.2275 147.719C67.264 147.839 67.3161 147.938 67.3838 148.016C67.4775 148.125 67.6755 148.224 67.9775 148.312C68.2796 148.401 68.5166 148.458 68.6885 148.484L68.5635 149H64.0869L64.2119 148.484C64.4567 148.458 64.7015 148.422 64.9463 148.375C65.1911 148.328 65.4176 148.24 65.626 148.109C65.8343 147.969 66.0114 147.74 66.1572 147.422C66.3031 147.104 66.4515 146.604 66.6025 145.922L67.9307 140.172C67.9567 140.052 67.9749 139.945 67.9854 139.852C68.001 139.753 68.0088 139.656 68.0088 139.562C68.0088 139.396 67.988 139.258 67.9463 139.148C67.9046 139.034 67.8499 138.938 67.7822 138.859C67.6468 138.708 67.4619 138.602 67.2275 138.539C66.9984 138.477 66.7874 138.44 66.5947 138.43L66.7119 137.914H70.4463L71.6572 146.25L75.9697 139.273C76.1312 139.008 76.2796 138.734 76.415 138.453C76.5505 138.172 76.6286 137.992 76.6494 137.914H80.3682ZM84.9619 147.969H84.9072C84.7926 148.062 84.6546 148.182 84.4932 148.328C84.3369 148.469 84.152 148.604 83.9385 148.734C83.7354 148.865 83.514 148.977 83.2744 149.07C83.0348 149.169 82.7744 149.219 82.4932 149.219C81.738 149.219 81.1442 148.948 80.7119 148.406C80.2848 147.865 80.0713 147.125 80.0713 146.188C80.0713 145.542 80.1911 144.914 80.4307 144.305C80.6702 143.695 81.001 143.148 81.4229 142.664C81.8239 142.201 82.3005 141.828 82.8525 141.547C83.4046 141.26 83.9723 141.117 84.5557 141.117C84.9255 141.117 85.277 141.167 85.6104 141.266C85.9489 141.365 86.2145 141.477 86.4072 141.602L87.8369 141.234L87.9307 141.352L86.7432 146.391C86.7015 146.552 86.6572 146.75 86.6104 146.984C86.5687 147.214 86.5479 147.383 86.5479 147.492C86.5479 147.789 86.6104 147.99 86.7354 148.094C86.8604 148.198 87.0713 148.25 87.3682 148.25C87.4671 148.25 87.6077 148.234 87.79 148.203C87.9723 148.172 88.113 148.138 88.2119 148.102L88.0947 148.602C87.626 148.789 87.277 148.924 87.0479 149.008C86.8187 149.091 86.54 149.133 86.2119 149.133C85.8369 149.133 85.54 149.023 85.3213 148.805C85.1025 148.586 84.9827 148.307 84.9619 147.969ZM86.0791 143.031C86.0791 142.859 86.0609 142.695 86.0244 142.539C85.988 142.383 85.9124 142.237 85.7979 142.102C85.6937 141.971 85.5505 141.867 85.3682 141.789C85.1859 141.711 84.9567 141.672 84.6807 141.672C84.3005 141.672 83.9307 141.797 83.5713 142.047C83.2119 142.297 82.889 142.633 82.6025 143.055C82.3317 143.451 82.1104 143.93 81.9385 144.492C81.7666 145.055 81.6807 145.625 81.6807 146.203C81.6807 146.521 81.6989 146.802 81.7354 147.047C81.7718 147.292 81.8421 147.516 81.9463 147.719C82.0452 147.917 82.1885 148.07 82.376 148.18C82.5635 148.289 82.8005 148.344 83.0869 148.344C83.3786 148.344 83.6833 148.263 84.001 148.102C84.3239 147.935 84.6859 147.646 85.0869 147.234L86.0791 143.031ZM97.3994 144.102C97.3994 144.799 97.277 145.461 97.0322 146.086C96.7874 146.711 96.4619 147.253 96.0557 147.711C95.6025 148.216 95.1104 148.591 94.5791 148.836C94.0531 149.081 93.5114 149.203 92.9541 149.203C92.5062 149.203 92.139 149.148 91.8525 149.039C91.5661 148.93 91.3109 148.794 91.0869 148.633L90.6338 150.68C90.6025 150.81 90.5765 150.932 90.5557 151.047C90.54 151.161 90.5322 151.253 90.5322 151.32C90.5322 151.461 90.5817 151.573 90.6807 151.656C90.7848 151.74 90.902 151.799 91.0322 151.836C91.1624 151.878 91.3083 151.909 91.4697 151.93C91.6312 151.951 91.777 151.966 91.9072 151.977L91.7979 152.469H87.4932L87.6025 151.977C87.7692 151.966 87.9255 151.953 88.0713 151.938C88.2171 151.922 88.3551 151.896 88.4854 151.859C88.6468 151.812 88.7744 151.724 88.8682 151.594C88.9671 151.469 89.0374 151.312 89.0791 151.125L90.7119 143.938C90.7536 143.74 90.7926 143.542 90.8291 143.344C90.8656 143.141 90.8838 142.966 90.8838 142.82C90.8838 142.529 90.8369 142.333 90.7432 142.234C90.6546 142.135 90.4593 142.086 90.1572 142.086C90.0426 142.086 89.8968 142.109 89.7197 142.156C89.5426 142.198 89.4046 142.232 89.3057 142.258L89.4229 141.758C89.8187 141.581 90.1755 141.445 90.4932 141.352C90.8109 141.253 91.0817 141.203 91.3057 141.203C91.6702 141.203 91.9463 141.297 92.1338 141.484C92.3213 141.667 92.4385 141.922 92.4854 142.25H92.5479C92.902 141.922 93.2796 141.651 93.6807 141.438C94.0869 141.224 94.4906 141.117 94.8916 141.117C95.6833 141.117 96.2979 141.388 96.7354 141.93C97.1781 142.466 97.3994 143.19 97.3994 144.102ZM94.9619 147.328C95.2275 146.901 95.4307 146.417 95.5713 145.875C95.7171 145.328 95.79 144.75 95.79 144.141C95.79 143.865 95.764 143.589 95.7119 143.312C95.665 143.031 95.5869 142.799 95.4775 142.617C95.363 142.414 95.2067 142.258 95.0088 142.148C94.8109 142.034 94.5505 141.977 94.2275 141.977C93.988 141.977 93.7223 142.049 93.4307 142.195C93.1442 142.341 92.7926 142.615 92.376 143.016L91.376 147.445C91.4124 147.742 91.5713 148.021 91.8525 148.281C92.139 148.536 92.4827 148.664 92.8838 148.664C93.2952 148.664 93.6807 148.544 94.04 148.305C94.3994 148.065 94.7067 147.74 94.9619 147.328ZM111.563 148.117L111.446 148.617C110.967 148.81 110.584 148.943 110.298 149.016C110.011 149.094 109.767 149.133 109.563 149.133C109.147 149.133 108.834 149.026 108.626 148.812C108.418 148.594 108.313 148.326 108.313 148.008C108.313 147.893 108.324 147.768 108.345 147.633C108.366 147.492 108.399 147.328 108.446 147.141L109.212 144.227C109.269 144.003 109.313 143.799 109.345 143.617C109.381 143.435 109.399 143.289 109.399 143.18C109.399 142.831 109.324 142.555 109.173 142.352C109.022 142.148 108.782 142.047 108.454 142.047C108.105 142.047 107.761 142.13 107.423 142.297C107.09 142.458 106.712 142.763 106.29 143.211L104.931 149H103.478L104.704 143.781C104.73 143.667 104.754 143.547 104.774 143.422C104.8 143.292 104.813 143.195 104.813 143.133C104.813 142.794 104.728 142.529 104.556 142.336C104.389 142.143 104.142 142.047 103.813 142.047C103.517 142.047 103.188 142.122 102.829 142.273C102.47 142.419 102.053 142.75 101.579 143.266L100.259 149H98.8057L99.9697 143.938C100.011 143.755 100.05 143.56 100.087 143.352C100.129 143.143 100.149 142.966 100.149 142.82C100.149 142.518 100.1 142.32 100.001 142.227C99.902 142.128 99.7093 142.078 99.4229 142.078C99.3083 142.078 99.1598 142.099 98.9775 142.141C98.8005 142.182 98.6624 142.216 98.5635 142.242L98.6807 141.742C99.0869 141.56 99.4463 141.424 99.7588 141.336C100.071 141.247 100.34 141.203 100.563 141.203C100.98 141.203 101.274 141.318 101.446 141.547C101.623 141.771 101.717 142.078 101.728 142.469H101.774C102.389 141.984 102.894 141.638 103.29 141.43C103.686 141.221 104.157 141.117 104.704 141.117C105.168 141.117 105.543 141.253 105.829 141.523C106.121 141.789 106.285 142.125 106.321 142.531H106.353C106.91 142.068 107.405 141.716 107.837 141.477C108.274 141.237 108.782 141.117 109.36 141.117C109.86 141.117 110.243 141.263 110.509 141.555C110.78 141.841 110.915 142.219 110.915 142.688C110.915 142.781 110.899 142.948 110.868 143.188C110.842 143.427 110.798 143.664 110.735 143.898L110.079 146.406C110.032 146.573 109.988 146.766 109.946 146.984C109.905 147.198 109.884 147.365 109.884 147.484C109.884 147.781 109.946 147.984 110.071 148.094C110.196 148.198 110.407 148.25 110.704 148.25C110.803 148.25 110.946 148.237 111.134 148.211C111.321 148.185 111.465 148.154 111.563 148.117Z" fill="#3725E4"/>
<path d="M170.517 144.5L169.821 140.172L167.165 144.5H170.517ZM169.321 149L169.438 148.484C169.6 148.469 169.787 148.448 170.001 148.422C170.22 148.391 170.389 148.357 170.509 148.32C170.67 148.268 170.79 148.214 170.868 148.156C170.951 148.099 170.993 148.01 170.993 147.891C170.993 147.849 170.962 147.594 170.899 147.125C170.837 146.656 170.748 145.997 170.634 145.148H166.743C166.571 145.419 166.389 145.734 166.196 146.094C166.004 146.448 165.855 146.719 165.751 146.906C165.657 147.073 165.566 147.26 165.478 147.469C165.394 147.672 165.353 147.807 165.353 147.875C165.353 148.047 165.491 148.185 165.767 148.289C166.043 148.393 166.389 148.458 166.806 148.484L166.688 149H162.431L162.548 148.484C162.683 148.474 162.86 148.445 163.079 148.398C163.293 148.346 163.472 148.279 163.618 148.195C163.8 148.091 163.975 147.964 164.142 147.812C164.313 147.656 164.496 147.424 164.688 147.117C165.59 145.69 166.576 144.102 167.649 142.352C168.728 140.602 169.675 139.07 170.493 137.758H171.118L172.595 147.359C172.626 147.552 172.678 147.716 172.751 147.852C172.824 147.982 172.933 148.104 173.079 148.219C173.183 148.292 173.324 148.354 173.501 148.406C173.678 148.453 173.834 148.479 173.97 148.484L173.853 149H169.321ZM183.392 148.094L183.274 148.594C182.806 148.781 182.441 148.917 182.181 149C181.92 149.089 181.657 149.133 181.392 149.133C180.975 149.133 180.662 149.026 180.454 148.812C180.246 148.594 180.142 148.326 180.142 148.008C180.142 147.893 180.152 147.768 180.173 147.633C180.194 147.492 180.228 147.328 180.274 147.141L181.04 144.227C181.097 144.003 181.142 143.799 181.173 143.617C181.209 143.435 181.228 143.289 181.228 143.18C181.228 142.831 181.144 142.555 180.978 142.352C180.811 142.148 180.563 142.047 180.235 142.047C179.918 142.047 179.561 142.151 179.165 142.359C178.769 142.568 178.397 142.87 178.048 143.266L176.728 149H175.274L176.438 143.938C176.465 143.812 176.501 143.633 176.548 143.398C176.6 143.159 176.626 142.966 176.626 142.82C176.626 142.529 176.576 142.333 176.478 142.234C176.379 142.135 176.181 142.086 175.884 142.086C175.769 142.086 175.623 142.107 175.446 142.148C175.269 142.185 175.131 142.216 175.032 142.242L175.149 141.742C175.556 141.56 175.915 141.424 176.228 141.336C176.54 141.247 176.808 141.203 177.032 141.203C177.444 141.203 177.738 141.315 177.915 141.539C178.092 141.763 178.186 142.073 178.196 142.469H178.243C178.816 142.01 179.311 141.672 179.728 141.453C180.144 141.229 180.618 141.117 181.149 141.117C181.649 141.117 182.04 141.263 182.321 141.555C182.603 141.841 182.743 142.219 182.743 142.688C182.743 142.781 182.728 142.948 182.696 143.188C182.67 143.427 182.626 143.664 182.563 143.898L181.907 146.406C181.86 146.573 181.813 146.766 181.767 146.984C181.725 147.198 181.704 147.365 181.704 147.484C181.704 147.781 181.769 147.984 181.899 148.094C182.03 148.198 182.243 148.25 182.54 148.25C182.639 148.25 182.78 148.234 182.962 148.203C183.149 148.167 183.293 148.13 183.392 148.094ZM192.556 144.102C192.556 144.799 192.433 145.461 192.188 146.086C191.944 146.711 191.618 147.253 191.212 147.711C190.759 148.216 190.267 148.591 189.735 148.836C189.209 149.081 188.668 149.203 188.11 149.203C187.662 149.203 187.295 149.148 187.009 149.039C186.722 148.93 186.467 148.794 186.243 148.633L185.79 150.68C185.759 150.81 185.733 150.932 185.712 151.047C185.696 151.161 185.688 151.253 185.688 151.32C185.688 151.461 185.738 151.573 185.837 151.656C185.941 151.74 186.058 151.799 186.188 151.836C186.319 151.878 186.465 151.909 186.626 151.93C186.787 151.951 186.933 151.966 187.063 151.977L186.954 152.469H182.649L182.759 151.977C182.925 151.966 183.082 151.953 183.228 151.938C183.373 151.922 183.511 151.896 183.642 151.859C183.803 151.812 183.931 151.724 184.024 151.594C184.123 151.469 184.194 151.312 184.235 151.125L185.868 143.938C185.91 143.74 185.949 143.542 185.985 143.344C186.022 143.141 186.04 142.966 186.04 142.82C186.04 142.529 185.993 142.333 185.899 142.234C185.811 142.135 185.616 142.086 185.313 142.086C185.199 142.086 185.053 142.109 184.876 142.156C184.699 142.198 184.561 142.232 184.462 142.258L184.579 141.758C184.975 141.581 185.332 141.445 185.649 141.352C185.967 141.253 186.238 141.203 186.462 141.203C186.826 141.203 187.103 141.297 187.29 141.484C187.478 141.667 187.595 141.922 187.642 142.25H187.704C188.058 141.922 188.436 141.651 188.837 141.438C189.243 141.224 189.647 141.117 190.048 141.117C190.84 141.117 191.454 141.388 191.892 141.93C192.334 142.466 192.556 143.19 192.556 144.102ZM190.118 147.328C190.384 146.901 190.587 146.417 190.728 145.875C190.873 145.328 190.946 144.75 190.946 144.141C190.946 143.865 190.92 143.589 190.868 143.312C190.821 143.031 190.743 142.799 190.634 142.617C190.519 142.414 190.363 142.258 190.165 142.148C189.967 142.034 189.707 141.977 189.384 141.977C189.144 141.977 188.879 142.049 188.587 142.195C188.3 142.341 187.949 142.615 187.532 143.016L186.532 147.445C186.569 147.742 186.728 148.021 187.009 148.281C187.295 148.536 187.639 148.664 188.04 148.664C188.451 148.664 188.837 148.544 189.196 148.305C189.556 148.065 189.863 147.74 190.118 147.328ZM200.337 142.742C200.337 143.294 200.162 143.768 199.813 144.164C199.47 144.56 198.967 144.875 198.306 145.109C197.821 145.286 197.332 145.43 196.837 145.539C196.342 145.648 195.795 145.74 195.196 145.812C195.196 146.635 195.347 147.266 195.649 147.703C195.957 148.135 196.405 148.352 196.993 148.352C197.514 148.352 197.972 148.221 198.368 147.961C198.769 147.701 199.162 147.312 199.548 146.797L199.993 147.125C199.576 147.76 199.056 148.268 198.431 148.648C197.806 149.029 197.157 149.219 196.485 149.219C195.563 149.219 194.858 148.961 194.368 148.445C193.884 147.93 193.642 147.198 193.642 146.25C193.642 145.594 193.743 144.969 193.946 144.375C194.155 143.776 194.457 143.229 194.853 142.734C195.238 142.25 195.709 141.859 196.267 141.562C196.829 141.266 197.449 141.117 198.126 141.117C198.876 141.117 199.431 141.271 199.79 141.578C200.155 141.88 200.337 142.268 200.337 142.742ZM198.899 142.547C198.899 142.344 198.871 142.185 198.813 142.07C198.756 141.951 198.683 141.862 198.595 141.805C198.501 141.742 198.402 141.703 198.298 141.688C198.194 141.672 198.087 141.664 197.978 141.664C197.353 141.664 196.774 142.008 196.243 142.695C195.717 143.383 195.384 144.24 195.243 145.266C195.608 145.214 196.019 145.141 196.478 145.047C196.936 144.948 197.316 144.82 197.618 144.664C198.05 144.44 198.371 144.154 198.579 143.805C198.793 143.451 198.899 143.031 198.899 142.547ZM209.095 148.594C208.626 148.781 208.264 148.917 208.009 149C207.754 149.089 207.493 149.133 207.228 149.133C206.811 149.133 206.498 149.026 206.29 148.812C206.087 148.594 205.985 148.326 205.985 148.008C205.985 147.893 205.996 147.768 206.017 147.633C206.037 147.492 206.071 147.328 206.118 147.141L206.899 144.094C207.024 143.594 207.118 143.198 207.181 142.906C207.243 142.615 207.274 142.383 207.274 142.211C207.274 142.122 207.186 142.026 207.009 141.922C206.837 141.812 206.642 141.758 206.423 141.758C205.959 141.758 205.55 142.013 205.196 142.523C204.842 143.029 204.465 143.875 204.063 145.062C203.907 145.531 203.725 146.018 203.517 146.523C203.308 147.029 203.09 147.464 202.86 147.828C202.6 148.24 202.329 148.562 202.048 148.797C201.767 149.031 201.449 149.148 201.095 149.148C200.829 149.148 200.626 149.068 200.485 148.906C200.34 148.74 200.267 148.539 200.267 148.305C200.267 148.102 200.342 147.901 200.493 147.703C200.644 147.505 200.855 147.406 201.126 147.406C201.267 147.406 201.412 147.438 201.563 147.5C201.715 147.557 201.876 147.633 202.048 147.727C202.277 147.492 202.519 147.062 202.774 146.438C203.03 145.807 203.215 145.318 203.329 144.969C203.465 144.557 203.629 144.109 203.821 143.625C204.014 143.135 204.23 142.719 204.47 142.375C204.735 141.995 205.066 141.69 205.462 141.461C205.863 141.232 206.35 141.117 206.923 141.117C207.491 141.117 207.938 141.211 208.267 141.398C208.595 141.586 208.759 141.812 208.759 142.078C208.759 142.224 208.728 142.451 208.665 142.758C208.608 143.065 208.543 143.349 208.47 143.609L207.728 146.406C207.681 146.573 207.634 146.766 207.587 146.984C207.54 147.198 207.517 147.365 207.517 147.484C207.517 147.781 207.582 147.984 207.712 148.094C207.847 148.198 208.063 148.25 208.36 148.25C208.459 148.25 208.6 148.234 208.782 148.203C208.97 148.167 209.113 148.13 209.212 148.094L209.095 148.594ZM215.376 146.32C215.376 145.857 215.248 145.503 214.993 145.258C214.738 145.008 214.392 144.883 213.954 144.883C213.725 144.883 213.485 144.909 213.235 144.961C212.991 145.008 212.816 145.044 212.712 145.07L212.392 146.297C212.345 146.464 212.3 146.672 212.259 146.922C212.222 147.172 212.204 147.375 212.204 147.531C212.204 147.932 212.313 148.224 212.532 148.406C212.756 148.589 213.022 148.68 213.329 148.68C213.73 148.68 214.063 148.596 214.329 148.43C214.6 148.263 214.808 148.062 214.954 147.828C215.095 147.604 215.199 147.357 215.267 147.086C215.34 146.815 215.376 146.56 215.376 146.32ZM216.985 146.25C216.985 147.13 216.629 147.849 215.915 148.406C215.207 148.958 214.256 149.234 213.063 149.234C212.319 149.234 211.751 149.086 211.36 148.789C210.97 148.487 210.774 148.073 210.774 147.547C210.774 147.422 210.782 147.284 210.798 147.133C210.813 146.977 210.863 146.734 210.946 146.406L211.626 143.883C211.678 143.674 211.728 143.464 211.774 143.25C211.821 143.031 211.845 142.859 211.845 142.734C211.845 142.458 211.793 142.273 211.688 142.18C211.584 142.086 211.384 142.039 211.087 142.039C210.972 142.039 210.819 142.057 210.626 142.094C210.438 142.13 210.295 142.161 210.196 142.188L210.313 141.688C210.725 141.505 211.092 141.37 211.415 141.281C211.738 141.193 211.993 141.148 212.181 141.148C212.608 141.148 212.91 141.25 213.087 141.453C213.269 141.651 213.36 141.922 213.36 142.266C213.36 142.37 213.347 142.5 213.321 142.656C213.3 142.812 213.267 142.974 213.22 143.141L212.837 144.484C212.983 144.464 213.196 144.435 213.478 144.398C213.759 144.362 213.998 144.344 214.196 144.344C215.082 144.344 215.767 144.505 216.251 144.828C216.741 145.151 216.985 145.625 216.985 146.25Z" fill="#999999"/>
<path d="M284.368 137.914L284.251 138.43C284.1 138.435 283.907 138.458 283.673 138.5C283.438 138.542 283.264 138.581 283.149 138.617C282.946 138.685 282.8 138.792 282.712 138.938C282.623 139.083 282.558 139.24 282.517 139.406L280.649 147.477C280.639 147.518 280.631 147.565 280.626 147.617C280.621 147.669 280.618 147.711 280.618 147.742C280.618 147.852 280.642 147.951 280.688 148.039C280.735 148.122 280.813 148.198 280.923 148.266C280.996 148.312 281.149 148.359 281.384 148.406C281.623 148.453 281.811 148.479 281.946 148.484L281.821 149H276.938L277.063 148.484C277.251 148.474 277.485 148.456 277.767 148.43C278.048 148.398 278.246 148.354 278.36 148.297C278.543 148.198 278.688 148.083 278.798 147.953C278.912 147.823 278.988 147.664 279.024 147.477L280.938 139.219H280.853L274.798 148.82H274.431L273.04 139.023H272.962L271.392 145.836C271.329 146.112 271.277 146.38 271.235 146.641C271.194 146.901 271.173 147.112 271.173 147.273C271.173 147.445 271.191 147.594 271.228 147.719C271.264 147.839 271.316 147.938 271.384 148.016C271.478 148.125 271.675 148.224 271.978 148.312C272.28 148.401 272.517 148.458 272.688 148.484L272.563 149H268.087L268.212 148.484C268.457 148.458 268.701 148.422 268.946 148.375C269.191 148.328 269.418 148.24 269.626 148.109C269.834 147.969 270.011 147.74 270.157 147.422C270.303 147.104 270.451 146.604 270.603 145.922L271.931 140.172C271.957 140.052 271.975 139.945 271.985 139.852C272.001 139.753 272.009 139.656 272.009 139.562C272.009 139.396 271.988 139.258 271.946 139.148C271.905 139.034 271.85 138.938 271.782 138.859C271.647 138.708 271.462 138.602 271.228 138.539C270.998 138.477 270.787 138.44 270.595 138.43L270.712 137.914H274.446L275.657 146.25L279.97 139.273C280.131 139.008 280.28 138.734 280.415 138.453C280.55 138.172 280.629 137.992 280.649 137.914H284.368ZM288.962 147.969H288.907C288.793 148.062 288.655 148.182 288.493 148.328C288.337 148.469 288.152 148.604 287.938 148.734C287.735 148.865 287.514 148.977 287.274 149.07C287.035 149.169 286.774 149.219 286.493 149.219C285.738 149.219 285.144 148.948 284.712 148.406C284.285 147.865 284.071 147.125 284.071 146.188C284.071 145.542 284.191 144.914 284.431 144.305C284.67 143.695 285.001 143.148 285.423 142.664C285.824 142.201 286.3 141.828 286.853 141.547C287.405 141.26 287.972 141.117 288.556 141.117C288.925 141.117 289.277 141.167 289.61 141.266C289.949 141.365 290.215 141.477 290.407 141.602L291.837 141.234L291.931 141.352L290.743 146.391C290.701 146.552 290.657 146.75 290.61 146.984C290.569 147.214 290.548 147.383 290.548 147.492C290.548 147.789 290.61 147.99 290.735 148.094C290.86 148.198 291.071 148.25 291.368 148.25C291.467 148.25 291.608 148.234 291.79 148.203C291.972 148.172 292.113 148.138 292.212 148.102L292.095 148.602C291.626 148.789 291.277 148.924 291.048 149.008C290.819 149.091 290.54 149.133 290.212 149.133C289.837 149.133 289.54 149.023 289.321 148.805C289.103 148.586 288.983 148.307 288.962 147.969ZM290.079 143.031C290.079 142.859 290.061 142.695 290.024 142.539C289.988 142.383 289.912 142.237 289.798 142.102C289.694 141.971 289.55 141.867 289.368 141.789C289.186 141.711 288.957 141.672 288.681 141.672C288.3 141.672 287.931 141.797 287.571 142.047C287.212 142.297 286.889 142.633 286.603 143.055C286.332 143.451 286.11 143.93 285.938 144.492C285.767 145.055 285.681 145.625 285.681 146.203C285.681 146.521 285.699 146.802 285.735 147.047C285.772 147.292 285.842 147.516 285.946 147.719C286.045 147.917 286.188 148.07 286.376 148.18C286.563 148.289 286.8 148.344 287.087 148.344C287.379 148.344 287.683 148.263 288.001 148.102C288.324 147.935 288.686 147.646 289.087 147.234L290.079 143.031ZM298.22 147.906H298.173C297.933 148.099 297.704 148.276 297.485 148.438C297.267 148.599 297.05 148.734 296.837 148.844C296.587 148.969 296.36 149.057 296.157 149.109C295.954 149.167 295.688 149.195 295.36 149.195C294.86 149.195 294.472 149.052 294.196 148.766C293.92 148.474 293.782 148.094 293.782 147.625C293.782 147.5 293.793 147.352 293.813 147.18C293.834 147.008 293.884 146.753 293.962 146.414L294.571 143.938C294.623 143.708 294.665 143.505 294.696 143.328C294.733 143.151 294.751 142.982 294.751 142.82C294.751 142.529 294.701 142.336 294.603 142.242C294.509 142.143 294.313 142.094 294.017 142.094C293.902 142.094 293.756 142.115 293.579 142.156C293.402 142.198 293.264 142.232 293.165 142.258L293.282 141.758C293.688 141.576 294.045 141.438 294.353 141.344C294.665 141.25 294.915 141.203 295.103 141.203C295.519 141.203 295.824 141.302 296.017 141.5C296.215 141.693 296.313 141.969 296.313 142.328C296.313 142.422 296.303 142.549 296.282 142.711C296.261 142.872 296.23 143.034 296.188 143.195L295.493 146.086C295.441 146.305 295.397 146.51 295.36 146.703C295.329 146.891 295.313 147.034 295.313 147.133C295.313 147.482 295.389 147.758 295.54 147.961C295.691 148.164 295.931 148.266 296.259 148.266C296.592 148.266 296.933 148.18 297.282 148.008C297.636 147.831 297.991 147.565 298.345 147.211L299.712 141.328L301.071 141.234L301.165 141.352L300.001 146.383C299.949 146.596 299.902 146.812 299.86 147.031C299.819 147.245 299.798 147.396 299.798 147.484C299.798 147.781 299.86 147.984 299.985 148.094C300.116 148.198 300.329 148.25 300.626 148.25C300.725 148.25 300.866 148.234 301.048 148.203C301.23 148.172 301.371 148.138 301.47 148.102L301.353 148.602C300.92 148.779 300.558 148.911 300.267 149C299.98 149.089 299.715 149.133 299.47 149.133C299.048 149.133 298.733 149.01 298.524 148.766C298.321 148.521 298.22 148.234 298.22 147.906ZM299.431 138.547C299.629 138.328 299.795 138.089 299.931 137.828C300.071 137.562 300.191 137.281 300.29 136.984L300.782 137.25C300.688 137.609 300.548 137.958 300.36 138.297C300.178 138.63 299.951 138.922 299.681 139.172C299.394 139.432 299.087 139.635 298.759 139.781C298.431 139.922 298.035 139.992 297.571 139.992C296.967 139.992 296.504 139.862 296.181 139.602C295.863 139.341 295.704 139.008 295.704 138.602C295.704 138.279 295.795 138.029 295.978 137.852C296.165 137.669 296.386 137.578 296.642 137.578C296.824 137.578 296.975 137.633 297.095 137.742C297.215 137.846 297.274 138 297.274 138.203C297.274 138.38 297.241 138.547 297.173 138.703C297.105 138.859 297.043 138.992 296.985 139.102C297.105 139.169 297.228 139.216 297.353 139.242C297.483 139.263 297.621 139.273 297.767 139.273C298.11 139.273 298.42 139.211 298.696 139.086C298.978 138.956 299.222 138.776 299.431 138.547Z" fill="#999999"/>
<path d="M353.485 149L353.603 148.484C353.733 148.474 353.918 148.458 354.157 148.438C354.397 148.417 354.566 148.385 354.665 148.344C354.847 148.276 354.988 148.177 355.087 148.047C355.186 147.917 355.256 147.755 355.298 147.562L357.165 139.484C357.175 139.443 357.183 139.401 357.188 139.359C357.194 139.312 357.196 139.266 357.196 139.219C357.196 139.104 357.173 139.005 357.126 138.922C357.084 138.839 357.006 138.766 356.892 138.703C356.767 138.635 356.61 138.576 356.423 138.523C356.235 138.471 356.069 138.44 355.923 138.43L356.04 137.914H360.626L360.509 138.43C360.363 138.435 360.178 138.458 359.954 138.5C359.73 138.542 359.561 138.581 359.446 138.617C359.243 138.685 359.097 138.792 359.009 138.938C358.92 139.083 358.855 139.24 358.813 139.406L357.267 146.078L364.157 139.523C364.162 139.492 364.17 139.443 364.181 139.375C364.191 139.307 364.196 139.247 364.196 139.195C364.196 139.086 364.173 138.987 364.126 138.898C364.079 138.81 363.998 138.737 363.884 138.68C363.774 138.622 363.61 138.57 363.392 138.523C363.173 138.477 362.998 138.445 362.868 138.43L362.985 137.914H367.571L367.454 138.43C367.308 138.435 367.126 138.458 366.907 138.5C366.688 138.542 366.522 138.581 366.407 138.617C366.204 138.685 366.058 138.792 365.97 138.938C365.881 139.083 365.816 139.24 365.774 139.406L363.915 147.477C363.905 147.518 363.897 147.565 363.892 147.617C363.886 147.669 363.884 147.714 363.884 147.75C363.884 147.859 363.907 147.956 363.954 148.039C364.001 148.122 364.076 148.198 364.181 148.266C364.259 148.312 364.399 148.359 364.603 148.406C364.811 148.453 364.988 148.479 365.134 148.484L365.017 149H360.431L360.548 148.484C360.678 148.474 360.866 148.458 361.11 148.438C361.355 148.417 361.527 148.385 361.626 148.344C361.808 148.276 361.949 148.177 362.048 148.047C362.147 147.917 362.217 147.755 362.259 147.562L363.853 140.719L356.954 147.281C356.933 147.349 356.915 147.43 356.899 147.523C356.884 147.617 356.876 147.69 356.876 147.742C356.876 147.857 356.897 147.958 356.938 148.047C356.985 148.135 357.069 148.208 357.188 148.266C357.298 148.318 357.454 148.365 357.657 148.406C357.866 148.448 358.043 148.474 358.188 148.484L358.071 149H353.485ZM378.907 144.188C378.907 144.818 378.806 145.438 378.603 146.047C378.399 146.651 378.103 147.185 377.712 147.648C377.306 148.143 376.821 148.531 376.259 148.812C375.696 149.094 375.066 149.234 374.368 149.234C373.54 149.234 372.868 148.961 372.353 148.414C371.837 147.867 371.579 147.112 371.579 146.148C371.579 145.982 371.584 145.831 371.595 145.695C371.605 145.56 371.623 145.404 371.649 145.227H369.954L369.095 149H367.634L368.798 143.938C368.834 143.771 368.873 143.581 368.915 143.367C368.957 143.148 368.978 142.966 368.978 142.82C368.978 142.529 368.928 142.336 368.829 142.242C368.735 142.143 368.54 142.094 368.243 142.094C368.129 142.094 367.983 142.115 367.806 142.156C367.629 142.198 367.491 142.232 367.392 142.258L367.509 141.758C367.915 141.576 368.272 141.438 368.579 141.344C368.892 141.25 369.142 141.203 369.329 141.203C369.746 141.203 370.05 141.302 370.243 141.5C370.441 141.693 370.54 141.969 370.54 142.328C370.54 142.411 370.53 142.539 370.509 142.711C370.488 142.878 370.454 143.062 370.407 143.266L370.095 144.609H371.767C371.902 144.109 372.1 143.648 372.36 143.227C372.621 142.799 372.931 142.43 373.29 142.117C373.655 141.805 374.069 141.56 374.532 141.383C374.996 141.206 375.493 141.117 376.024 141.117C376.905 141.117 377.605 141.393 378.126 141.945C378.647 142.492 378.907 143.24 378.907 144.188ZM377.313 143.891C377.313 143.125 377.186 142.565 376.931 142.211C376.675 141.852 376.316 141.672 375.853 141.672C375.353 141.672 374.923 141.828 374.563 142.141C374.209 142.448 373.918 142.857 373.688 143.367C373.47 143.857 373.316 144.38 373.228 144.938C373.139 145.49 373.095 145.982 373.095 146.414C373.095 147.19 373.217 147.763 373.462 148.133C373.712 148.497 374.09 148.68 374.595 148.68C375.048 148.68 375.449 148.534 375.798 148.242C376.147 147.951 376.428 147.581 376.642 147.133C376.866 146.674 377.032 146.164 377.142 145.602C377.256 145.039 377.313 144.469 377.313 143.891ZM382.751 144.602H385.892L386.657 141.328L388.017 141.234L388.11 141.352L386.946 146.383C386.91 146.534 386.866 146.732 386.813 146.977C386.767 147.216 386.743 147.385 386.743 147.484C386.743 147.781 386.808 147.984 386.938 148.094C387.069 148.198 387.282 148.25 387.579 148.25C387.678 148.25 387.819 148.234 388.001 148.203C388.188 148.167 388.332 148.13 388.431 148.094L388.313 148.594C387.845 148.781 387.48 148.917 387.22 149C386.959 149.089 386.696 149.133 386.431 149.133C386.014 149.133 385.701 149.026 385.493 148.812C385.285 148.594 385.181 148.326 385.181 148.008C385.181 147.893 385.191 147.768 385.212 147.633C385.238 147.492 385.272 147.32 385.313 147.117L385.751 145.227H382.61L381.751 149H380.29L381.454 143.938C381.491 143.771 381.53 143.581 381.571 143.367C381.613 143.148 381.634 142.966 381.634 142.82C381.634 142.529 381.584 142.336 381.485 142.242C381.392 142.143 381.196 142.094 380.899 142.094C380.785 142.094 380.639 142.115 380.462 142.156C380.285 142.198 380.147 142.232 380.048 142.258L380.165 141.758C380.571 141.576 380.928 141.438 381.235 141.344C381.548 141.25 381.798 141.203 381.985 141.203C382.402 141.203 382.707 141.302 382.899 141.5C383.097 141.693 383.196 141.969 383.196 142.328C383.196 142.411 383.186 142.539 383.165 142.711C383.144 142.878 383.11 143.062 383.063 143.266L382.751 144.602ZM394.532 146.32C394.532 145.857 394.405 145.503 394.149 145.258C393.894 145.008 393.548 144.883 393.11 144.883C392.881 144.883 392.642 144.909 392.392 144.961C392.147 145.008 391.972 145.044 391.868 145.07L391.548 146.297C391.501 146.464 391.457 146.672 391.415 146.922C391.379 147.172 391.36 147.375 391.36 147.531C391.36 147.932 391.47 148.224 391.688 148.406C391.912 148.589 392.178 148.68 392.485 148.68C392.886 148.68 393.22 148.596 393.485 148.43C393.756 148.263 393.965 148.062 394.11 147.828C394.251 147.604 394.355 147.357 394.423 147.086C394.496 146.815 394.532 146.56 394.532 146.32ZM396.142 146.25C396.142 147.13 395.785 147.849 395.071 148.406C394.363 148.958 393.412 149.234 392.22 149.234C391.475 149.234 390.907 149.086 390.517 148.789C390.126 148.487 389.931 148.073 389.931 147.547C389.931 147.422 389.938 147.284 389.954 147.133C389.97 146.977 390.019 146.734 390.103 146.406L390.782 143.883C390.834 143.674 390.884 143.464 390.931 143.25C390.978 143.031 391.001 142.859 391.001 142.734C391.001 142.458 390.949 142.273 390.845 142.18C390.741 142.086 390.54 142.039 390.243 142.039C390.129 142.039 389.975 142.057 389.782 142.094C389.595 142.13 389.451 142.161 389.353 142.188L389.47 141.688C389.881 141.505 390.248 141.37 390.571 141.281C390.894 141.193 391.149 141.148 391.337 141.148C391.764 141.148 392.066 141.25 392.243 141.453C392.425 141.651 392.517 141.922 392.517 142.266C392.517 142.37 392.504 142.5 392.478 142.656C392.457 142.812 392.423 142.974 392.376 143.141L391.993 144.484C392.139 144.464 392.353 144.435 392.634 144.398C392.915 144.362 393.155 144.344 393.353 144.344C394.238 144.344 394.923 144.505 395.407 144.828C395.897 145.151 396.142 145.625 396.142 146.25Z" fill="#999999"/>
<path d="M447.485 149L447.603 148.484C447.733 148.474 447.918 148.458 448.157 148.438C448.397 148.417 448.566 148.385 448.665 148.344C448.847 148.276 448.988 148.177 449.087 148.047C449.186 147.917 449.256 147.755 449.298 147.562L451.165 139.484C451.175 139.443 451.183 139.401 451.188 139.359C451.194 139.312 451.196 139.266 451.196 139.219C451.196 139.104 451.173 139.005 451.126 138.922C451.084 138.839 451.006 138.766 450.892 138.703C450.767 138.635 450.61 138.576 450.423 138.523C450.235 138.471 450.069 138.44 449.923 138.43L450.04 137.914H454.626L454.509 138.43C454.363 138.435 454.178 138.458 453.954 138.5C453.73 138.542 453.561 138.581 453.446 138.617C453.243 138.685 453.097 138.792 453.009 138.938C452.92 139.083 452.855 139.24 452.813 139.406L451.267 146.078L458.157 139.523C458.162 139.492 458.17 139.443 458.181 139.375C458.191 139.307 458.196 139.247 458.196 139.195C458.196 139.086 458.173 138.987 458.126 138.898C458.079 138.81 457.998 138.737 457.884 138.68C457.774 138.622 457.61 138.57 457.392 138.523C457.173 138.477 456.998 138.445 456.868 138.43L456.985 137.914H461.571L461.454 138.43C461.308 138.435 461.126 138.458 460.907 138.5C460.688 138.542 460.522 138.581 460.407 138.617C460.204 138.685 460.058 138.792 459.97 138.938C459.881 139.083 459.816 139.24 459.774 139.406L457.915 147.477C457.905 147.518 457.897 147.565 457.892 147.617C457.886 147.669 457.884 147.714 457.884 147.75C457.884 147.859 457.907 147.956 457.954 148.039C458.001 148.122 458.076 148.198 458.181 148.266C458.259 148.312 458.399 148.359 458.603 148.406C458.811 148.453 458.988 148.479 459.134 148.484L459.017 149H454.431L454.548 148.484C454.678 148.474 454.866 148.458 455.11 148.438C455.355 148.417 455.527 148.385 455.626 148.344C455.808 148.276 455.949 148.177 456.048 148.047C456.147 147.917 456.217 147.755 456.259 147.562L457.853 140.719L450.954 147.281C450.933 147.349 450.915 147.43 450.899 147.523C450.884 147.617 450.876 147.69 450.876 147.742C450.876 147.857 450.897 147.958 450.938 148.047C450.985 148.135 451.069 148.208 451.188 148.266C451.298 148.318 451.454 148.365 451.657 148.406C451.866 148.448 452.043 148.474 452.188 148.484L452.071 149H447.485ZM472.907 144.188C472.907 144.818 472.806 145.438 472.603 146.047C472.399 146.651 472.103 147.185 471.712 147.648C471.306 148.143 470.821 148.531 470.259 148.812C469.696 149.094 469.066 149.234 468.368 149.234C467.54 149.234 466.868 148.961 466.353 148.414C465.837 147.867 465.579 147.112 465.579 146.148C465.579 145.982 465.584 145.831 465.595 145.695C465.605 145.56 465.623 145.404 465.649 145.227H463.954L463.095 149H461.634L462.798 143.938C462.834 143.771 462.873 143.581 462.915 143.367C462.957 143.148 462.978 142.966 462.978 142.82C462.978 142.529 462.928 142.336 462.829 142.242C462.735 142.143 462.54 142.094 462.243 142.094C462.129 142.094 461.983 142.115 461.806 142.156C461.629 142.198 461.491 142.232 461.392 142.258L461.509 141.758C461.915 141.576 462.272 141.438 462.579 141.344C462.892 141.25 463.142 141.203 463.329 141.203C463.746 141.203 464.05 141.302 464.243 141.5C464.441 141.693 464.54 141.969 464.54 142.328C464.54 142.411 464.53 142.539 464.509 142.711C464.488 142.878 464.454 143.062 464.407 143.266L464.095 144.609H465.767C465.902 144.109 466.1 143.648 466.36 143.227C466.621 142.799 466.931 142.43 467.29 142.117C467.655 141.805 468.069 141.56 468.532 141.383C468.996 141.206 469.493 141.117 470.024 141.117C470.905 141.117 471.605 141.393 472.126 141.945C472.647 142.492 472.907 143.24 472.907 144.188ZM471.313 143.891C471.313 143.125 471.186 142.565 470.931 142.211C470.675 141.852 470.316 141.672 469.853 141.672C469.353 141.672 468.923 141.828 468.563 142.141C468.209 142.448 467.918 142.857 467.688 143.367C467.47 143.857 467.316 144.38 467.228 144.938C467.139 145.49 467.095 145.982 467.095 146.414C467.095 147.19 467.217 147.763 467.462 148.133C467.712 148.497 468.09 148.68 468.595 148.68C469.048 148.68 469.449 148.534 469.798 148.242C470.147 147.951 470.428 147.581 470.642 147.133C470.866 146.674 471.032 146.164 471.142 145.602C471.256 145.039 471.313 144.469 471.313 143.891ZM481.876 148.594C481.407 148.781 481.045 148.917 480.79 149C480.535 149.089 480.274 149.133 480.009 149.133C479.592 149.133 479.28 149.026 479.071 148.812C478.868 148.594 478.767 148.326 478.767 148.008C478.767 147.893 478.777 147.768 478.798 147.633C478.819 147.492 478.853 147.328 478.899 147.141L479.681 144.094C479.806 143.594 479.899 143.198 479.962 142.906C480.024 142.615 480.056 142.383 480.056 142.211C480.056 142.122 479.967 142.026 479.79 141.922C479.618 141.812 479.423 141.758 479.204 141.758C478.741 141.758 478.332 142.013 477.978 142.523C477.623 143.029 477.246 143.875 476.845 145.062C476.688 145.531 476.506 146.018 476.298 146.523C476.09 147.029 475.871 147.464 475.642 147.828C475.381 148.24 475.11 148.562 474.829 148.797C474.548 149.031 474.23 149.148 473.876 149.148C473.61 149.148 473.407 149.068 473.267 148.906C473.121 148.74 473.048 148.539 473.048 148.305C473.048 148.102 473.123 147.901 473.274 147.703C473.425 147.505 473.636 147.406 473.907 147.406C474.048 147.406 474.194 147.438 474.345 147.5C474.496 147.557 474.657 147.633 474.829 147.727C475.058 147.492 475.3 147.062 475.556 146.438C475.811 145.807 475.996 145.318 476.11 144.969C476.246 144.557 476.41 144.109 476.603 143.625C476.795 143.135 477.011 142.719 477.251 142.375C477.517 141.995 477.847 141.69 478.243 141.461C478.644 141.232 479.131 141.117 479.704 141.117C480.272 141.117 480.72 141.211 481.048 141.398C481.376 141.586 481.54 141.812 481.54 142.078C481.54 142.224 481.509 142.451 481.446 142.758C481.389 143.065 481.324 143.349 481.251 143.609L480.509 146.406C480.462 146.573 480.415 146.766 480.368 146.984C480.321 147.198 480.298 147.365 480.298 147.484C480.298 147.781 480.363 147.984 480.493 148.094C480.629 148.198 480.845 148.25 481.142 148.25C481.241 148.25 481.381 148.234 481.563 148.203C481.751 148.167 481.894 148.13 481.993 148.094L481.876 148.594ZM488.157 146.32C488.157 145.857 488.03 145.503 487.774 145.258C487.519 145.008 487.173 144.883 486.735 144.883C486.506 144.883 486.267 144.909 486.017 144.961C485.772 145.008 485.597 145.044 485.493 145.07L485.173 146.297C485.126 146.464 485.082 146.672 485.04 146.922C485.004 147.172 484.985 147.375 484.985 147.531C484.985 147.932 485.095 148.224 485.313 148.406C485.537 148.589 485.803 148.68 486.11 148.68C486.511 148.68 486.845 148.596 487.11 148.43C487.381 148.263 487.59 148.062 487.735 147.828C487.876 147.604 487.98 147.357 488.048 147.086C488.121 146.815 488.157 146.56 488.157 146.32ZM489.767 146.25C489.767 147.13 489.41 147.849 488.696 148.406C487.988 148.958 487.037 149.234 485.845 149.234C485.1 149.234 484.532 149.086 484.142 148.789C483.751 148.487 483.556 148.073 483.556 147.547C483.556 147.422 483.563 147.284 483.579 147.133C483.595 146.977 483.644 146.734 483.728 146.406L484.407 143.883C484.459 143.674 484.509 143.464 484.556 143.25C484.603 143.031 484.626 142.859 484.626 142.734C484.626 142.458 484.574 142.273 484.47 142.18C484.366 142.086 484.165 142.039 483.868 142.039C483.754 142.039 483.6 142.057 483.407 142.094C483.22 142.13 483.076 142.161 482.978 142.188L483.095 141.688C483.506 141.505 483.873 141.37 484.196 141.281C484.519 141.193 484.774 141.148 484.962 141.148C485.389 141.148 485.691 141.25 485.868 141.453C486.05 141.651 486.142 141.922 486.142 142.266C486.142 142.37 486.129 142.5 486.103 142.656C486.082 142.812 486.048 142.974 486.001 143.141L485.618 144.484C485.764 144.464 485.978 144.435 486.259 144.398C486.54 144.362 486.78 144.344 486.978 144.344C487.863 144.344 488.548 144.505 489.032 144.828C489.522 145.151 489.767 145.625 489.767 146.25Z" fill="#999999"/>
<path d="M548.517 144.5L547.821 140.172L545.165 144.5H548.517ZM547.321 149L547.438 148.484C547.6 148.469 547.787 148.448 548.001 148.422C548.22 148.391 548.389 148.357 548.509 148.32C548.67 148.268 548.79 148.214 548.868 148.156C548.951 148.099 548.993 148.01 548.993 147.891C548.993 147.849 548.962 147.594 548.899 147.125C548.837 146.656 548.748 145.997 548.634 145.148H544.743C544.571 145.419 544.389 145.734 544.196 146.094C544.004 146.448 543.855 146.719 543.751 146.906C543.657 147.073 543.566 147.26 543.478 147.469C543.394 147.672 543.353 147.807 543.353 147.875C543.353 148.047 543.491 148.185 543.767 148.289C544.043 148.393 544.389 148.458 544.806 148.484L544.688 149H540.431L540.548 148.484C540.683 148.474 540.86 148.445 541.079 148.398C541.293 148.346 541.472 148.279 541.618 148.195C541.8 148.091 541.975 147.964 542.142 147.812C542.313 147.656 542.496 147.424 542.688 147.117C543.59 145.69 544.576 144.102 545.649 142.352C546.728 140.602 547.675 139.07 548.493 137.758H549.118L550.595 147.359C550.626 147.552 550.678 147.716 550.751 147.852C550.824 147.982 550.933 148.104 551.079 148.219C551.183 148.292 551.324 148.354 551.501 148.406C551.678 148.453 551.834 148.479 551.97 148.484L551.853 149H547.321ZM560.056 142.703C560.056 143.203 559.879 143.641 559.524 144.016C559.175 144.385 558.639 144.656 557.915 144.828L557.907 144.914C558.47 144.951 558.928 145.107 559.282 145.383C559.642 145.659 559.821 146.029 559.821 146.492C559.821 147.299 559.472 147.958 558.774 148.469C558.082 148.979 557.144 149.234 555.962 149.234C554.993 149.234 554.28 148.995 553.821 148.516C553.368 148.036 553.142 147.349 553.142 146.453C553.142 145.719 553.235 145.034 553.423 144.398C553.61 143.758 553.892 143.19 554.267 142.695C554.631 142.216 555.1 141.833 555.673 141.547C556.246 141.26 556.894 141.117 557.618 141.117C557.972 141.117 558.287 141.146 558.563 141.203C558.845 141.26 559.103 141.357 559.337 141.492C559.561 141.622 559.735 141.786 559.86 141.984C559.991 142.177 560.056 142.417 560.056 142.703ZM558.563 142.828C558.563 142.469 558.444 142.188 558.204 141.984C557.965 141.776 557.66 141.672 557.29 141.672C556.925 141.672 556.603 141.763 556.321 141.945C556.045 142.128 555.8 142.385 555.587 142.719C555.384 143.031 555.222 143.372 555.103 143.742C554.988 144.112 554.892 144.484 554.813 144.859L556.243 144.703C556.707 144.651 557.095 144.565 557.407 144.445C557.72 144.326 557.959 144.185 558.126 144.023C558.287 143.862 558.399 143.685 558.462 143.492C558.53 143.294 558.563 143.073 558.563 142.828ZM558.259 146.484C558.259 146.104 558.118 145.802 557.837 145.578C557.561 145.354 557.105 145.242 556.47 145.242C556.188 145.242 555.871 145.266 555.517 145.312C555.162 145.359 554.894 145.398 554.712 145.43C554.686 145.602 554.668 145.789 554.657 145.992C554.652 146.195 554.649 146.365 554.649 146.5C554.649 146.906 554.696 147.25 554.79 147.531C554.889 147.812 555.011 148.036 555.157 148.203C555.303 148.365 555.472 148.484 555.665 148.562C555.858 148.641 556.053 148.68 556.251 148.68C556.621 148.68 556.936 148.612 557.196 148.477C557.462 148.341 557.673 148.161 557.829 147.938C557.975 147.729 558.082 147.5 558.149 147.25C558.222 146.995 558.259 146.74 558.259 146.484ZM567.704 142.891C567.704 143.333 567.603 143.701 567.399 143.992C567.201 144.279 566.959 144.503 566.673 144.664C566.381 144.831 566.058 144.969 565.704 145.078C565.35 145.188 565.04 145.279 564.774 145.352C564.457 145.445 564.186 145.534 563.962 145.617C563.743 145.695 563.517 145.812 563.282 145.969C563.084 146.104 562.923 146.276 562.798 146.484C562.678 146.693 562.618 146.94 562.618 147.227C562.618 147.539 562.759 147.812 563.04 148.047C563.321 148.276 563.701 148.391 564.181 148.391C564.707 148.391 565.201 148.242 565.665 147.945C566.134 147.648 566.561 147.255 566.946 146.766L567.384 147.125C566.951 147.786 566.407 148.299 565.751 148.664C565.1 149.029 564.35 149.211 563.501 149.211C562.751 149.211 562.149 149.039 561.696 148.695C561.248 148.346 561.024 147.904 561.024 147.367C561.024 146.94 561.136 146.583 561.36 146.297C561.584 146.005 561.868 145.768 562.212 145.586C562.535 145.414 562.884 145.281 563.259 145.188C563.634 145.089 563.907 145.01 564.079 144.953C564.407 144.854 564.699 144.755 564.954 144.656C565.215 144.552 565.428 144.43 565.595 144.289C565.777 144.133 565.91 143.961 565.993 143.773C566.082 143.586 566.126 143.331 566.126 143.008C566.126 142.706 566.001 142.453 565.751 142.25C565.501 142.042 565.152 141.938 564.704 141.938C564.204 141.938 563.743 142.091 563.321 142.398C562.899 142.701 562.504 143.089 562.134 143.562L561.657 143.211C562.1 142.534 562.631 142.016 563.251 141.656C563.871 141.297 564.561 141.117 565.321 141.117C566.035 141.117 566.61 141.281 567.048 141.609C567.485 141.932 567.704 142.359 567.704 142.891ZM573.61 147.867H573.563C573.084 148.268 572.629 148.583 572.196 148.812C571.764 149.042 571.272 149.156 570.72 149.156C570.22 149.156 569.824 149.013 569.532 148.727C569.241 148.435 569.095 148.055 569.095 147.586C569.095 147.461 569.105 147.312 569.126 147.141C569.147 146.969 569.196 146.714 569.274 146.375L569.884 143.938C569.941 143.703 569.985 143.5 570.017 143.328C570.048 143.151 570.063 142.982 570.063 142.82C570.063 142.529 570.014 142.336 569.915 142.242C569.821 142.143 569.626 142.094 569.329 142.094C569.215 142.094 569.069 142.115 568.892 142.156C568.715 142.198 568.576 142.232 568.478 142.258L568.595 141.758C569.001 141.576 569.358 141.438 569.665 141.344C569.978 141.25 570.228 141.203 570.415 141.203C570.832 141.203 571.139 141.297 571.337 141.484C571.54 141.672 571.642 141.953 571.642 142.328C571.642 142.422 571.631 142.549 571.61 142.711C571.59 142.872 571.558 143.034 571.517 143.195L570.806 146.047C570.754 146.266 570.709 146.471 570.673 146.664C570.636 146.852 570.618 146.995 570.618 147.094C570.618 147.443 570.701 147.719 570.868 147.922C571.04 148.125 571.29 148.227 571.618 148.227C571.998 148.227 572.368 148.133 572.728 147.945C573.092 147.758 573.433 147.5 573.751 147.172L575.048 141.328L576.399 141.234L576.493 141.352L575.149 147.469C574.951 148.365 574.699 149.13 574.392 149.766C574.084 150.401 573.725 150.914 573.313 151.305C572.881 151.716 572.415 152.013 571.915 152.195C571.415 152.378 570.845 152.469 570.204 152.469C569.761 152.469 569.41 152.438 569.149 152.375C568.889 152.312 568.683 152.227 568.532 152.117C568.381 152.013 568.28 151.896 568.228 151.766C568.175 151.635 568.149 151.505 568.149 151.375C568.149 151.151 568.217 150.953 568.353 150.781C568.488 150.609 568.683 150.523 568.938 150.523C569.131 150.523 569.295 150.578 569.431 150.688C569.566 150.797 569.675 150.917 569.759 151.047C569.853 151.188 569.938 151.346 570.017 151.523C570.095 151.701 570.157 151.841 570.204 151.945H570.392C570.688 151.945 571.001 151.872 571.329 151.727C571.662 151.581 571.967 151.354 572.243 151.047C572.54 150.714 572.806 150.284 573.04 149.758C573.28 149.232 573.47 148.602 573.61 147.867ZM580.438 149.219C579.527 149.219 578.806 148.953 578.274 148.422C577.748 147.891 577.485 147.135 577.485 146.156C577.485 145.505 577.584 144.883 577.782 144.289C577.985 143.69 578.267 143.159 578.626 142.695C578.985 142.232 579.438 141.854 579.985 141.562C580.537 141.266 581.149 141.117 581.821 141.117C582.566 141.117 583.131 141.276 583.517 141.594C583.907 141.906 584.103 142.302 584.103 142.781C584.103 143.141 584.017 143.456 583.845 143.727C583.678 143.997 583.425 144.133 583.087 144.133C582.806 144.133 582.595 144.062 582.454 143.922C582.313 143.781 582.243 143.625 582.243 143.453C582.243 143.286 582.3 143.06 582.415 142.773C582.53 142.482 582.621 142.247 582.688 142.07C582.631 141.93 582.504 141.828 582.306 141.766C582.108 141.698 581.902 141.664 581.688 141.664C580.98 141.664 580.368 142.078 579.853 142.906C579.342 143.729 579.087 144.74 579.087 145.938C579.087 146.677 579.251 147.266 579.579 147.703C579.912 148.135 580.36 148.352 580.923 148.352C581.428 148.352 581.876 148.216 582.267 147.945C582.662 147.674 583.04 147.292 583.399 146.797L583.845 147.125C583.485 147.693 582.996 148.185 582.376 148.602C581.761 149.013 581.116 149.219 580.438 149.219ZM597.845 148.117L597.728 148.617C597.248 148.81 596.866 148.943 596.579 149.016C596.293 149.094 596.048 149.133 595.845 149.133C595.428 149.133 595.116 149.026 594.907 148.812C594.699 148.594 594.595 148.326 594.595 148.008C594.595 147.893 594.605 147.768 594.626 147.633C594.647 147.492 594.681 147.328 594.728 147.141L595.493 144.227C595.55 144.003 595.595 143.799 595.626 143.617C595.662 143.435 595.681 143.289 595.681 143.18C595.681 142.831 595.605 142.555 595.454 142.352C595.303 142.148 595.063 142.047 594.735 142.047C594.386 142.047 594.043 142.13 593.704 142.297C593.371 142.458 592.993 142.763 592.571 143.211L591.212 149H589.759L590.985 143.781C591.011 143.667 591.035 143.547 591.056 143.422C591.082 143.292 591.095 143.195 591.095 143.133C591.095 142.794 591.009 142.529 590.837 142.336C590.67 142.143 590.423 142.047 590.095 142.047C589.798 142.047 589.47 142.122 589.11 142.273C588.751 142.419 588.334 142.75 587.86 143.266L586.54 149H585.087L586.251 143.938C586.293 143.755 586.332 143.56 586.368 143.352C586.41 143.143 586.431 142.966 586.431 142.82C586.431 142.518 586.381 142.32 586.282 142.227C586.183 142.128 585.991 142.078 585.704 142.078C585.59 142.078 585.441 142.099 585.259 142.141C585.082 142.182 584.944 142.216 584.845 142.242L584.962 141.742C585.368 141.56 585.728 141.424 586.04 141.336C586.353 141.247 586.621 141.203 586.845 141.203C587.261 141.203 587.556 141.318 587.728 141.547C587.905 141.771 587.998 142.078 588.009 142.469H588.056C588.67 141.984 589.175 141.638 589.571 141.43C589.967 141.221 590.438 141.117 590.985 141.117C591.449 141.117 591.824 141.253 592.11 141.523C592.402 141.789 592.566 142.125 592.603 142.531H592.634C593.191 142.068 593.686 141.716 594.118 141.477C594.556 141.237 595.063 141.117 595.642 141.117C596.142 141.117 596.524 141.263 596.79 141.555C597.061 141.841 597.196 142.219 597.196 142.688C597.196 142.781 597.181 142.948 597.149 143.188C597.123 143.427 597.079 143.664 597.017 143.898L596.36 146.406C596.313 146.573 596.269 146.766 596.228 146.984C596.186 147.198 596.165 147.365 596.165 147.484C596.165 147.781 596.228 147.984 596.353 148.094C596.478 148.198 596.688 148.25 596.985 148.25C597.084 148.25 597.228 148.237 597.415 148.211C597.603 148.185 597.746 148.154 597.845 148.117Z" fill="#999999"/>
<path d="M650.61 149.258C650.043 149.258 649.506 149.159 649.001 148.961C648.496 148.763 648.056 148.474 647.681 148.094C647.3 147.708 647.001 147.242 646.782 146.695C646.569 146.148 646.462 145.531 646.462 144.844C646.462 143.859 646.629 142.94 646.962 142.086C647.295 141.232 647.754 140.469 648.337 139.797C648.899 139.151 649.574 138.633 650.36 138.242C651.152 137.852 651.978 137.656 652.837 137.656C653.488 137.656 654.058 137.732 654.548 137.883C655.043 138.034 655.449 138.221 655.767 138.445L656.204 137.914H656.829L655.985 141.867H655.345V141.555C655.345 141.128 655.311 140.721 655.243 140.336C655.175 139.945 655.045 139.594 654.853 139.281C654.665 138.979 654.407 138.74 654.079 138.562C653.756 138.38 653.342 138.289 652.837 138.289C652.196 138.289 651.6 138.461 651.048 138.805C650.501 139.143 650.027 139.596 649.626 140.164C649.23 140.716 648.912 141.396 648.673 142.203C648.433 143.01 648.313 143.833 648.313 144.672C648.313 145.781 648.584 146.682 649.126 147.375C649.673 148.062 650.405 148.406 651.321 148.406C652.087 148.406 652.79 148.18 653.431 147.727C654.076 147.273 654.603 146.667 655.009 145.906L655.571 146.203C654.915 147.323 654.183 148.112 653.376 148.57C652.569 149.029 651.647 149.258 650.61 149.258ZM663.196 142.742C663.196 143.294 663.022 143.768 662.673 144.164C662.329 144.56 661.826 144.875 661.165 145.109C660.681 145.286 660.191 145.43 659.696 145.539C659.201 145.648 658.655 145.74 658.056 145.812C658.056 146.635 658.207 147.266 658.509 147.703C658.816 148.135 659.264 148.352 659.853 148.352C660.373 148.352 660.832 148.221 661.228 147.961C661.629 147.701 662.022 147.312 662.407 146.797L662.853 147.125C662.436 147.76 661.915 148.268 661.29 148.648C660.665 149.029 660.017 149.219 659.345 149.219C658.423 149.219 657.717 148.961 657.228 148.445C656.743 147.93 656.501 147.198 656.501 146.25C656.501 145.594 656.603 144.969 656.806 144.375C657.014 143.776 657.316 143.229 657.712 142.734C658.097 142.25 658.569 141.859 659.126 141.562C659.688 141.266 660.308 141.117 660.985 141.117C661.735 141.117 662.29 141.271 662.649 141.578C663.014 141.88 663.196 142.268 663.196 142.742ZM661.759 142.547C661.759 142.344 661.73 142.185 661.673 142.07C661.616 141.951 661.543 141.862 661.454 141.805C661.36 141.742 661.261 141.703 661.157 141.688C661.053 141.672 660.946 141.664 660.837 141.664C660.212 141.664 659.634 142.008 659.103 142.695C658.576 143.383 658.243 144.24 658.103 145.266C658.467 145.214 658.879 145.141 659.337 145.047C659.795 144.948 660.175 144.82 660.478 144.664C660.91 144.44 661.23 144.154 661.438 143.805C661.652 143.451 661.759 143.031 661.759 142.547ZM666.829 144.602H669.97L670.735 141.328L672.095 141.234L672.188 141.352L671.024 146.383C670.988 146.534 670.944 146.732 670.892 146.977C670.845 147.216 670.821 147.385 670.821 147.484C670.821 147.781 670.886 147.984 671.017 148.094C671.147 148.198 671.36 148.25 671.657 148.25C671.756 148.25 671.897 148.234 672.079 148.203C672.267 148.167 672.41 148.13 672.509 148.094L672.392 148.594C671.923 148.781 671.558 148.917 671.298 149C671.037 149.089 670.774 149.133 670.509 149.133C670.092 149.133 669.78 149.026 669.571 148.812C669.363 148.594 669.259 148.326 669.259 148.008C669.259 147.893 669.269 147.768 669.29 147.633C669.316 147.492 669.35 147.32 669.392 147.117L669.829 145.227H666.688L665.829 149H664.368L665.532 143.938C665.569 143.771 665.608 143.581 665.649 143.367C665.691 143.148 665.712 142.966 665.712 142.82C665.712 142.529 665.662 142.336 665.563 142.242C665.47 142.143 665.274 142.094 664.978 142.094C664.863 142.094 664.717 142.115 664.54 142.156C664.363 142.198 664.225 142.232 664.126 142.258L664.243 141.758C664.649 141.576 665.006 141.438 665.313 141.344C665.626 141.25 665.876 141.203 666.063 141.203C666.48 141.203 666.785 141.302 666.978 141.5C667.175 141.693 667.274 141.969 667.274 142.328C667.274 142.411 667.264 142.539 667.243 142.711C667.222 142.878 667.188 143.062 667.142 143.266L666.829 144.602ZM686.548 148.117L686.431 148.617C685.951 148.81 685.569 148.943 685.282 149.016C684.996 149.094 684.751 149.133 684.548 149.133C684.131 149.133 683.819 149.026 683.61 148.812C683.402 148.594 683.298 148.326 683.298 148.008C683.298 147.893 683.308 147.768 683.329 147.633C683.35 147.492 683.384 147.328 683.431 147.141L684.196 144.227C684.254 144.003 684.298 143.799 684.329 143.617C684.366 143.435 684.384 143.289 684.384 143.18C684.384 142.831 684.308 142.555 684.157 142.352C684.006 142.148 683.767 142.047 683.438 142.047C683.09 142.047 682.746 142.13 682.407 142.297C682.074 142.458 681.696 142.763 681.274 143.211L679.915 149H678.462L679.688 143.781C679.715 143.667 679.738 143.547 679.759 143.422C679.785 143.292 679.798 143.195 679.798 143.133C679.798 142.794 679.712 142.529 679.54 142.336C679.373 142.143 679.126 142.047 678.798 142.047C678.501 142.047 678.173 142.122 677.813 142.273C677.454 142.419 677.037 142.75 676.563 143.266L675.243 149H673.79L674.954 143.938C674.996 143.755 675.035 143.56 675.071 143.352C675.113 143.143 675.134 142.966 675.134 142.82C675.134 142.518 675.084 142.32 674.985 142.227C674.886 142.128 674.694 142.078 674.407 142.078C674.293 142.078 674.144 142.099 673.962 142.141C673.785 142.182 673.647 142.216 673.548 142.242L673.665 141.742C674.071 141.56 674.431 141.424 674.743 141.336C675.056 141.247 675.324 141.203 675.548 141.203C675.965 141.203 676.259 141.318 676.431 141.547C676.608 141.771 676.701 142.078 676.712 142.469H676.759C677.373 141.984 677.879 141.638 678.274 141.43C678.67 141.221 679.142 141.117 679.688 141.117C680.152 141.117 680.527 141.253 680.813 141.523C681.105 141.789 681.269 142.125 681.306 142.531H681.337C681.894 142.068 682.389 141.716 682.821 141.477C683.259 141.237 683.767 141.117 684.345 141.117C684.845 141.117 685.228 141.263 685.493 141.555C685.764 141.841 685.899 142.219 685.899 142.688C685.899 142.781 685.884 142.948 685.853 143.188C685.826 143.427 685.782 143.664 685.72 143.898L685.063 146.406C685.017 146.573 684.972 146.766 684.931 146.984C684.889 147.198 684.868 147.365 684.868 147.484C684.868 147.781 684.931 147.984 685.056 148.094C685.181 148.198 685.392 148.25 685.688 148.25C685.787 148.25 685.931 148.237 686.118 148.211C686.306 148.185 686.449 148.154 686.548 148.117ZM692.095 141.641C691.876 141.641 691.657 141.677 691.438 141.75C691.225 141.823 691.019 141.935 690.821 142.086C690.639 142.227 690.485 142.414 690.36 142.648C690.241 142.878 690.181 143.141 690.181 143.438C690.181 143.891 690.329 144.263 690.626 144.555C690.923 144.846 691.373 144.992 691.978 144.992H692.782L693.024 144.086C693.139 143.643 693.222 143.266 693.274 142.953C693.326 142.635 693.353 142.388 693.353 142.211C693.353 142.096 693.246 141.974 693.032 141.844C692.824 141.708 692.511 141.641 692.095 141.641ZM694.853 142.078C694.853 142.234 694.824 142.464 694.767 142.766C694.709 143.068 694.644 143.349 694.571 143.609L693.821 146.406C693.774 146.573 693.728 146.766 693.681 146.984C693.634 147.198 693.61 147.365 693.61 147.484C693.61 147.781 693.675 147.984 693.806 148.094C693.941 148.198 694.157 148.25 694.454 148.25C694.553 148.25 694.694 148.234 694.876 148.203C695.063 148.167 695.207 148.13 695.306 148.094L695.188 148.594C694.72 148.781 694.358 148.917 694.103 149C693.847 149.089 693.587 149.133 693.321 149.133C692.905 149.133 692.592 149.026 692.384 148.812C692.181 148.594 692.079 148.326 692.079 148.008C692.079 147.893 692.09 147.768 692.11 147.633C692.136 147.492 692.173 147.328 692.22 147.141L692.634 145.562H691.938C691.746 145.562 691.579 145.589 691.438 145.641C691.303 145.688 691.147 145.784 690.97 145.93C690.798 146.076 690.639 146.255 690.493 146.469C690.347 146.682 690.217 146.888 690.103 147.086C689.967 147.31 689.834 147.534 689.704 147.758C689.574 147.977 689.394 148.206 689.165 148.445C688.92 148.706 688.686 148.885 688.462 148.984C688.238 149.083 687.996 149.133 687.735 149.133C687.459 149.133 687.238 149.06 687.071 148.914C686.905 148.763 686.821 148.555 686.821 148.289C686.821 148.055 686.894 147.857 687.04 147.695C687.186 147.534 687.397 147.453 687.673 147.453C687.834 147.453 687.97 147.477 688.079 147.523C688.194 147.565 688.376 147.708 688.626 147.953C688.709 147.859 688.8 147.716 688.899 147.523C688.998 147.331 689.126 147.094 689.282 146.812C689.407 146.589 689.574 146.354 689.782 146.109C689.991 145.865 690.212 145.677 690.446 145.547V145.477C689.879 145.398 689.423 145.193 689.079 144.859C688.741 144.521 688.571 144.096 688.571 143.586C688.571 142.836 688.941 142.237 689.681 141.789C690.42 141.336 691.35 141.109 692.47 141.109C693.22 141.109 693.803 141.206 694.22 141.398C694.642 141.586 694.853 141.812 694.853 142.078ZM703.829 144.164C703.829 144.826 703.72 145.464 703.501 146.078C703.287 146.688 702.98 147.221 702.579 147.68C702.168 148.164 701.686 148.544 701.134 148.82C700.582 149.096 699.941 149.234 699.212 149.234C698.811 149.234 698.431 149.164 698.071 149.023C697.712 148.888 697.402 148.677 697.142 148.391C696.876 148.104 696.665 147.734 696.509 147.281C696.358 146.828 696.282 146.299 696.282 145.695C696.282 144.904 696.407 144.018 696.657 143.039C696.907 142.06 697.222 141.177 697.603 140.391C697.754 140.073 697.941 139.763 698.165 139.461C698.389 139.154 698.636 138.888 698.907 138.664C699.209 138.419 699.53 138.229 699.868 138.094C700.207 137.953 700.626 137.867 701.126 137.836C701.501 137.815 701.868 137.794 702.228 137.773C702.592 137.753 702.894 137.732 703.134 137.711C703.358 137.695 703.566 137.635 703.759 137.531C703.957 137.422 704.181 137.229 704.431 136.953L704.829 137.273C704.662 137.456 704.488 137.659 704.306 137.883C704.123 138.107 703.944 138.307 703.767 138.484C703.48 138.776 703.264 138.945 703.118 138.992C702.978 139.039 702.709 139.073 702.313 139.094C702.043 139.104 701.793 139.122 701.563 139.148C701.34 139.169 701.092 139.185 700.821 139.195C700.431 139.216 700.082 139.299 699.774 139.445C699.472 139.591 699.194 139.784 698.938 140.023C698.6 140.336 698.293 140.789 698.017 141.383C697.741 141.971 697.519 142.604 697.353 143.281L697.462 143.305C697.853 142.633 698.334 142.102 698.907 141.711C699.48 141.32 700.113 141.125 700.806 141.125C701.759 141.125 702.501 141.396 703.032 141.938C703.563 142.479 703.829 143.221 703.829 144.164ZM701.517 147.164C701.761 146.69 701.941 146.177 702.056 145.625C702.175 145.073 702.235 144.49 702.235 143.875C702.235 143.151 702.103 142.604 701.837 142.234C701.576 141.859 701.194 141.672 700.688 141.672C700.178 141.672 699.728 141.831 699.337 142.148C698.951 142.461 698.639 142.878 698.399 143.398C698.191 143.836 698.03 144.331 697.915 144.883C697.806 145.435 697.751 145.953 697.751 146.438C697.751 147.172 697.892 147.729 698.173 148.109C698.459 148.49 698.868 148.68 699.399 148.68C699.868 148.68 700.28 148.539 700.634 148.258C700.993 147.971 701.287 147.607 701.517 147.164ZM713.056 144.102C713.056 144.799 712.933 145.461 712.688 146.086C712.444 146.711 712.118 147.253 711.712 147.711C711.259 148.216 710.767 148.591 710.235 148.836C709.709 149.081 709.168 149.203 708.61 149.203C708.162 149.203 707.795 149.148 707.509 149.039C707.222 148.93 706.967 148.794 706.743 148.633L706.29 150.68C706.259 150.81 706.233 150.932 706.212 151.047C706.196 151.161 706.188 151.253 706.188 151.32C706.188 151.461 706.238 151.573 706.337 151.656C706.441 151.74 706.558 151.799 706.688 151.836C706.819 151.878 706.965 151.909 707.126 151.93C707.287 151.951 707.433 151.966 707.563 151.977L707.454 152.469H703.149L703.259 151.977C703.425 151.966 703.582 151.953 703.728 151.938C703.873 151.922 704.011 151.896 704.142 151.859C704.303 151.812 704.431 151.724 704.524 151.594C704.623 151.469 704.694 151.312 704.735 151.125L706.368 143.938C706.41 143.74 706.449 143.542 706.485 143.344C706.522 143.141 706.54 142.966 706.54 142.82C706.54 142.529 706.493 142.333 706.399 142.234C706.311 142.135 706.116 142.086 705.813 142.086C705.699 142.086 705.553 142.109 705.376 142.156C705.199 142.198 705.061 142.232 704.962 142.258L705.079 141.758C705.475 141.581 705.832 141.445 706.149 141.352C706.467 141.253 706.738 141.203 706.962 141.203C707.326 141.203 707.603 141.297 707.79 141.484C707.978 141.667 708.095 141.922 708.142 142.25H708.204C708.558 141.922 708.936 141.651 709.337 141.438C709.743 141.224 710.147 141.117 710.548 141.117C711.34 141.117 711.954 141.388 712.392 141.93C712.834 142.466 713.056 143.19 713.056 144.102ZM710.618 147.328C710.884 146.901 711.087 146.417 711.228 145.875C711.373 145.328 711.446 144.75 711.446 144.141C711.446 143.865 711.42 143.589 711.368 143.312C711.321 143.031 711.243 142.799 711.134 142.617C711.019 142.414 710.863 142.258 710.665 142.148C710.467 142.034 710.207 141.977 709.884 141.977C709.644 141.977 709.379 142.049 709.087 142.195C708.8 142.341 708.449 142.615 708.032 143.016L707.032 147.445C707.069 147.742 707.228 148.021 707.509 148.281C707.795 148.536 708.139 148.664 708.54 148.664C708.951 148.664 709.337 148.544 709.696 148.305C710.056 148.065 710.363 147.74 710.618 147.328ZM719.282 146.32C719.282 145.857 719.155 145.503 718.899 145.258C718.644 145.008 718.298 144.883 717.86 144.883C717.631 144.883 717.392 144.909 717.142 144.961C716.897 145.008 716.722 145.044 716.618 145.07L716.298 146.297C716.251 146.464 716.207 146.672 716.165 146.922C716.129 147.172 716.11 147.375 716.11 147.531C716.11 147.932 716.22 148.224 716.438 148.406C716.662 148.589 716.928 148.68 717.235 148.68C717.636 148.68 717.97 148.596 718.235 148.43C718.506 148.263 718.715 148.062 718.86 147.828C719.001 147.604 719.105 147.357 719.173 147.086C719.246 146.815 719.282 146.56 719.282 146.32ZM720.892 146.25C720.892 147.13 720.535 147.849 719.821 148.406C719.113 148.958 718.162 149.234 716.97 149.234C716.225 149.234 715.657 149.086 715.267 148.789C714.876 148.487 714.681 148.073 714.681 147.547C714.681 147.422 714.688 147.284 714.704 147.133C714.72 146.977 714.769 146.734 714.853 146.406L715.532 143.883C715.584 143.674 715.634 143.464 715.681 143.25C715.728 143.031 715.751 142.859 715.751 142.734C715.751 142.458 715.699 142.273 715.595 142.18C715.491 142.086 715.29 142.039 714.993 142.039C714.879 142.039 714.725 142.057 714.532 142.094C714.345 142.13 714.201 142.161 714.103 142.188L714.22 141.688C714.631 141.505 714.998 141.37 715.321 141.281C715.644 141.193 715.899 141.148 716.087 141.148C716.514 141.148 716.816 141.25 716.993 141.453C717.175 141.651 717.267 141.922 717.267 142.266C717.267 142.37 717.254 142.5 717.228 142.656C717.207 142.812 717.173 142.974 717.126 143.141L716.743 144.484C716.889 144.464 717.103 144.435 717.384 144.398C717.665 144.362 717.905 144.344 718.103 144.344C718.988 144.344 719.673 144.505 720.157 144.828C720.647 145.151 720.892 145.625 720.892 146.25Z" fill="#999999"/>
</g>
<path d="M358.006 429H359.098V419.13H358.286L355.892 419.956L356.158 420.852L358.006 420.278V429Z" fill="#C4C4C4"/>
<g opacity="0.8">
<path d="M448.613 429H455.459V427.992H450.265L452.883 425.668C454.591 424.156 455.361 423.288 455.361 421.86C455.361 420.236 454.087 419.06 452.323 419.06C450.601 419.06 449.677 419.83 448.795 421.146L449.607 421.734C450.391 420.642 451.119 420.054 452.239 420.054C453.303 420.054 454.213 420.782 454.213 421.93C454.213 422.91 453.681 423.68 452.169 425.01L448.613 428.146V429Z" fill="#C4C4C4"/>
</g>
<g opacity="0.8">
<path d="M546.178 429.168C547.998 429.168 549.454 427.964 549.454 426.214C549.454 424.394 547.928 423.568 546.22 423.428L549.3 420.012V419.2H543.042V420.194H547.83L544.736 423.68L544.96 424.338H545.59C547.2 424.338 548.334 425.01 548.334 426.228C548.334 427.404 547.382 428.16 546.192 428.16C544.988 428.16 544.078 427.628 543.322 426.704L542.524 427.418C543.322 428.454 544.54 429.168 546.178 429.168Z" fill="#C4C4C4"/>
</g>
<g opacity="0.8">
<path d="M640.954 429H642.018V426.676H643.544V425.752H642.018V419.13H641.052L635.508 425.878L635.788 426.676H640.954V429ZM636.838 425.752L640.954 420.698V425.752H636.838Z" fill="#C4C4C4"/>
</g>
<defs>
<filter id="filter0_d" x="0" y="0" width="717" height="501" filterUnits="userSpaceOnUse" color-interpolation-filters="sRGB">
<feFlood flood-opacity="0" result="BackgroundImageFix"/>
<feColorMatrix in="SourceAlpha" type="matrix" values="0 0 0 0 0 0 0 0 0 0 0 0 0 0 0 0 0 0 127 0"/>
<feOffset/>
<feGaussianBlur stdDeviation="17.5"/>
<feColorMatrix type="matrix" values="0 0 0 0 0 0 0 0 0 0 0 0 0 0 0 0 0 0 0.14 0"/>
<feBlend mode="normal" in2="BackgroundImageFix" result="effect1_dropShadow"/>
<feBlend mode="normal" in="SourceGraphic" in2="effect1_dropShadow" result="shape"/>
</filter>
<clipPath id="clip0">
<rect x="633.646" y="81" width="21" height="18.2" fill="white"/>
</clipPath>
<clipPath id="clip1">
<rect x="35.6807" y="123" width="646.319" height="38" fill="white"/>
</clipPath>
</defs>
</svg>
