<svg width="60" height="124" viewBox="0 0 60 124" fill="none" xmlns="http://www.w3.org/2000/svg">
<path d="M3.19313 103.062V108.195H2.62661V103.621H0.566524V108.195H0V103.062H3.19313Z" fill="black"/>
<path d="M4.53209 106.366C4.53209 107.179 4.94411 107.789 5.51063 107.789C6.07715 107.789 6.48917 107.179 6.48917 106.366C6.48917 105.756 6.23166 104.943 5.56213 104.943C4.8411 104.943 4.53209 105.654 4.53209 106.366ZM7.05569 106.315C7.05569 107.687 6.23166 108.297 5.45913 108.297C4.58359 108.297 3.91406 107.585 3.91406 106.416C3.91406 105.197 4.63509 104.485 5.51063 104.485C6.43767 104.434 7.05569 105.197 7.05569 106.315Z" fill="black"/>
<path d="M10.1979 104.485V108.195H9.63133V105.044H8.54978V106.01C8.54978 107.026 8.44678 107.738 8.03476 108.043C7.88026 108.195 7.67425 108.297 7.41674 108.297L7.36523 107.789C7.46824 107.789 7.62274 107.738 7.67425 107.636C7.98326 107.382 7.98326 106.874 7.98326 106.061V104.587H10.1979V104.485Z" fill="black"/>
<path d="M11.6903 104.485V105.959H13.1839V104.485H13.7504V108.195H13.1839V106.518H11.6903V108.195H11.0723V104.485H11.6903Z" fill="black"/>
<path d="M15.0379 106.366C15.0379 107.179 15.45 107.789 16.0165 107.789C16.583 107.789 16.995 107.179 16.995 106.366C16.995 105.756 16.7375 104.943 16.068 104.943C15.347 104.943 15.0379 105.654 15.0379 106.366ZM17.5616 106.315C17.5616 107.687 16.7375 108.297 15.965 108.297C15.0894 108.297 14.4199 107.585 14.4199 106.416C14.4199 105.197 15.141 104.485 16.0165 104.485C16.9435 104.434 17.5616 105.197 17.5616 106.315Z" fill="black"/>
<path d="M20.9098 104.485V108.195H20.3433V104.994H18.8497V108.195H18.2832V104.485H20.9098Z" fill="black"/>
<path d="M22.4547 106.67C22.4547 106.772 22.4547 106.874 22.5062 106.925C22.6092 107.382 22.9697 107.687 23.3817 107.687C23.9998 107.687 24.3603 107.128 24.3603 106.264C24.3603 105.552 23.9998 104.892 23.4332 104.892C23.0212 104.892 22.6607 105.197 22.5577 105.705C22.5577 105.806 22.5062 105.908 22.5062 105.959V106.67H22.4547ZM21.8367 105.705C21.8367 105.247 21.8367 104.841 21.7852 104.485H22.3002L22.3517 105.095C22.5577 104.638 22.9697 104.384 23.4847 104.384C24.2573 104.384 24.8238 105.146 24.8238 106.264C24.8238 107.585 24.1028 108.246 23.3817 108.246C22.9697 108.246 22.6092 108.043 22.4032 107.687V109.669H21.8367V105.705Z" fill="black"/>
<path d="M27.2969 106.315C26.6789 106.315 25.9579 106.416 25.9579 107.128C25.9579 107.585 26.2154 107.788 26.4729 107.788C26.8849 107.788 27.1424 107.484 27.2454 107.179C27.2454 107.128 27.2969 107.026 27.2969 106.975V106.315ZM27.8119 107.28C27.8119 107.585 27.8119 107.89 27.8634 108.144H27.3484L27.2969 107.738C27.1424 108.043 26.7819 108.297 26.3184 108.297C25.6489 108.297 25.3398 107.788 25.3398 107.229C25.3398 106.315 26.0094 105.857 27.2454 105.857V105.806C27.2454 105.502 27.1939 104.943 26.5244 104.943C26.2154 104.943 25.9064 105.044 25.7004 105.197L25.5459 104.739C25.8034 104.536 26.2154 104.434 26.5759 104.434C27.5544 104.434 27.7604 105.197 27.7604 105.959V107.28H27.8119Z" fill="black"/>
<path d="M29.3048 106.061H29.7168C30.1288 106.061 30.5924 105.908 30.5924 105.451C30.5924 105.095 30.3349 104.892 29.7168 104.892C29.5108 104.892 29.4078 104.892 29.2533 104.943V106.061H29.3048ZM29.3048 107.738C29.4593 107.738 29.5623 107.738 29.7683 107.738C30.1803 107.738 30.7469 107.636 30.7469 107.077C30.7469 106.569 30.2833 106.416 29.7168 106.416H29.3048V107.738ZM28.7383 104.536C28.9443 104.485 29.4078 104.434 29.7683 104.434C30.2833 104.434 31.2104 104.536 31.2104 105.349C31.2104 105.806 30.9014 106.111 30.5409 106.162C31.0044 106.264 31.3649 106.518 31.3649 107.077C31.3649 108.043 30.3349 108.144 29.6653 108.144C29.3048 108.144 28.9443 108.093 28.7898 108.093V104.536H28.7383Z" fill="black"/>
<path d="M32.6017 104.485V105.959H34.0952V104.485H34.6618V108.195H34.0952V106.518H32.6017V108.195H32.0352V104.485H32.6017Z" fill="black"/>
<path d="M39.0385 104.485V108.195H38.472V104.485H39.0385ZM36.2059 107.687C36.3089 107.687 36.4634 107.738 36.6179 107.738C37.0815 107.738 37.545 107.535 37.545 106.976C37.545 106.366 37.0815 106.213 36.6694 106.213C36.5149 106.213 36.3604 106.213 36.2574 106.264V107.687H36.2059ZM36.2059 104.485V105.756C36.3089 105.756 36.5149 105.705 36.7209 105.705C37.3905 105.705 38.1115 106.01 38.1115 106.925C38.1115 107.331 37.957 107.585 37.751 107.789C37.3905 108.144 36.8754 108.195 36.4634 108.195C36.1544 108.195 35.8454 108.195 35.5879 108.144V104.485H36.2059Z" fill="black"/>
<path d="M42.0259 105.959C42.0259 105.552 41.8714 104.892 41.2018 104.892C40.6353 104.892 40.3778 105.502 40.3263 105.959H42.0259ZM40.3263 106.467C40.3263 107.382 40.8413 107.738 41.4078 107.738C41.8199 107.738 42.0774 107.636 42.2834 107.534L42.3864 107.992C42.1804 108.093 41.8198 108.246 41.3048 108.246C40.3263 108.246 39.7598 107.484 39.7598 106.366C39.7598 105.247 40.3263 104.384 41.2533 104.384C42.2834 104.384 42.5924 105.451 42.5924 106.111C42.5924 106.264 42.5924 106.366 42.5924 106.416H40.3263V106.467Z" fill="black"/>
<path d="M46.8678 104.485V108.195H46.3013V105.044H45.2197V106.01C45.2197 107.026 45.1167 107.738 44.7047 108.043C44.5502 108.195 44.3442 108.297 44.0867 108.297L44.0352 107.789C44.1382 107.789 44.2927 107.738 44.3442 107.636C44.6532 107.382 44.6532 106.874 44.6532 106.061V104.587H46.8678V104.485Z" fill="black"/>
<path d="M51.1426 106.315C51.1426 105.654 50.885 104.892 50.3185 104.892C49.752 104.892 49.443 105.603 49.443 106.315C49.443 107.026 49.7005 107.738 50.267 107.738C50.885 107.788 51.1426 107.026 51.1426 106.315ZM48.3614 104.485V106.061H48.928C49.031 105.095 49.5975 104.434 50.3185 104.434C51.1426 104.434 51.7091 105.197 51.7091 106.315C51.7091 107.534 51.0911 108.297 50.267 108.297C49.4945 108.297 48.928 107.636 48.8765 106.569H48.3614V108.195H47.7949V104.485H48.3614Z" fill="black"/>
<path d="M53.3039 105.603C53.3039 106.112 53.2524 106.569 53.1494 106.976C53.0979 107.23 52.9949 107.433 52.8919 107.687H54.3339V104.994H53.3039V105.603ZM54.9005 104.485V107.687H55.2095L55.158 109.364H54.6945L54.643 108.195H52.5314L52.4799 109.364H52.0163L51.9648 107.687H52.2224C52.3769 107.433 52.4799 107.179 52.5314 106.925C52.6344 106.467 52.7374 105.959 52.7374 105.451V104.485H54.9005Z" fill="black"/>
<path d="M56.4454 104.485V106.061C56.4454 106.62 56.4454 107.026 56.3939 107.535C56.5999 107.077 56.7029 106.823 56.9089 106.416L57.8875 104.485H58.557V108.195H57.9905V106.62C57.9905 106.01 57.9905 105.705 58.042 105.095C57.836 105.553 57.6815 105.857 57.527 106.264C57.218 106.823 56.8574 107.535 56.5484 108.195H55.8789V104.485H56.4454Z" fill="black"/>
<path d="M59.5871 108.246C59.3811 108.246 59.2266 108.043 59.2266 107.788C59.2266 107.484 59.3811 107.28 59.6386 107.28C59.8446 107.28 59.9991 107.484 59.9991 107.738C59.9991 108.043 59.8446 108.246 59.5871 108.246Z" fill="black"/>
<path d="M2.57506 112.21L3.45059 114.395C3.5536 114.7 3.6566 115.005 3.75961 115.31C3.86261 115.056 3.91411 114.751 4.01712 114.395L4.73815 112.21H5.35617L4.42913 114.852C4.17162 115.564 3.91411 116.326 3.6051 116.784C3.34759 117.19 2.98707 117.393 2.62656 117.393C2.47205 117.393 2.36905 117.393 2.31755 117.343L2.36905 116.784C2.42055 116.784 2.47205 116.784 2.57506 116.784C3.03858 116.784 3.29609 116.275 3.45059 115.92C3.5021 115.818 3.5021 115.716 3.45059 115.615L1.95703 112.159H2.57506V112.21Z" fill="black"/>
<path d="M8.0861 117.19C7.9316 117.292 7.62259 117.394 7.15907 117.394C6.18053 117.394 5.5625 116.631 5.5625 115.513C5.5625 114.395 6.23203 113.531 7.26207 113.531C7.62259 113.531 7.9316 113.633 8.0861 113.735L7.9316 114.243C7.77709 114.141 7.57108 114.09 7.26207 114.09C6.54104 114.09 6.12902 114.7 6.12902 115.462C6.12902 116.326 6.59254 116.835 7.21057 116.835C7.51958 116.835 7.77709 116.733 7.9316 116.682L8.0861 117.19Z" fill="black"/>
<path d="M10.9189 113.633V114.141H9.88882V117.343H9.32229V114.141H8.34375V113.633H10.9189Z" fill="black"/>
<path d="M11.7938 115.513C11.7938 116.326 12.2058 116.936 12.7723 116.936C13.3389 116.936 13.7509 116.326 13.7509 115.513C13.7509 114.903 13.4934 114.09 12.7723 114.09C12.1028 114.09 11.7938 114.802 11.7938 115.513ZM14.3174 115.462C14.3174 116.834 13.4934 117.444 12.7208 117.444C11.8453 117.444 11.1758 116.733 11.1758 115.564C11.1758 114.344 11.8968 113.633 12.7723 113.633C13.6994 113.582 14.3174 114.344 14.3174 115.462Z" fill="black"/>
<path d="M15.9661 112.159C15.9661 112.464 16.1206 112.718 16.3781 112.718C16.6356 112.718 16.7901 112.464 16.8416 112.159H17.2537C17.2022 112.769 16.8931 113.125 16.3781 113.125C15.8116 113.125 15.5541 112.718 15.5541 112.159H15.9661ZM15.6056 113.633V115.208C15.6056 115.767 15.6056 116.174 15.5541 116.682C15.7601 116.225 15.8631 115.97 16.0691 115.564L17.0476 113.633H17.7172V117.343H17.1507V115.767C17.1507 115.157 17.1507 114.852 17.2022 114.243C16.9961 114.7 16.8416 115.005 16.6871 115.411C16.3781 115.97 16.0176 116.682 15.7086 117.343H15.0391V113.633H15.6056Z" fill="black"/>
<path d="M19.2111 113.633V114.853C19.2111 115.31 19.3656 115.615 19.8806 115.615C20.1381 115.615 20.3956 115.513 20.5501 115.361V113.582H21.1166V117.292H20.5501V115.869C20.3441 116.021 19.9836 116.123 19.6746 116.123C19.0565 116.123 18.6445 115.767 18.6445 114.903V113.582H19.2111V113.633Z" fill="black"/>
<path d="M22.6088 113.633V115.208C22.6088 115.767 22.6088 116.174 22.5573 116.682C22.7633 116.225 22.8663 115.971 23.0723 115.564L24.0508 113.633H24.7204V117.343H24.2053V115.767C24.2053 115.157 24.2053 114.852 24.2568 114.243C24.0508 114.7 23.8963 115.005 23.7418 115.412C23.4328 115.971 23.0723 116.682 22.7633 117.343H22.0938V113.633H22.6088Z" fill="black"/>
<path d="M26.2657 115.208H26.6778C27.0898 115.208 27.5533 115.056 27.5533 114.598C27.5533 114.243 27.2958 114.039 26.6778 114.039C26.4718 114.039 26.3687 114.039 26.2142 114.09V115.208H26.2657ZM26.2657 116.885C26.4202 116.885 26.5233 116.885 26.7293 116.885C27.1413 116.885 27.7078 116.784 27.7078 116.225C27.7078 115.716 27.2443 115.564 26.6778 115.564H26.2657V116.885ZM25.6992 113.684C25.9052 113.633 26.3687 113.582 26.7293 113.582C27.2443 113.582 28.1713 113.684 28.1713 114.497C28.1713 114.954 27.8623 115.259 27.5018 115.31C27.9653 115.412 28.3258 115.666 28.3258 116.225C28.3258 117.19 27.2958 117.292 26.6263 117.292C26.2657 117.292 25.9052 117.241 25.7507 117.241V113.684H25.6992Z" fill="black"/>
<path d="M32.4455 113.633V117.343H31.879V113.633H32.4455ZM29.5614 116.834C29.6644 116.834 29.8189 116.885 29.9734 116.885C30.4369 116.885 30.9004 116.682 30.9004 116.123C30.9004 115.513 30.4369 115.361 30.0249 115.361C29.8704 115.361 29.7159 115.361 29.6129 115.412V116.834H29.5614ZM29.5614 113.633V114.903C29.6644 114.903 29.8704 114.852 30.0764 114.852C30.7459 114.852 31.467 115.157 31.467 116.072C31.467 116.479 31.3125 116.733 31.1064 116.936C30.7459 117.292 30.2309 117.343 29.8189 117.343C29.5099 117.343 29.2009 117.343 28.9434 117.292V113.633H29.5614Z" fill="black"/>
<path d="M35.3813 115.107C35.3813 114.7 35.2268 114.039 34.5573 114.039C33.9908 114.039 33.7333 114.649 33.6818 115.107H35.3813ZM33.6818 115.615C33.6818 116.53 34.1968 116.885 34.7633 116.885C35.1753 116.885 35.4328 116.784 35.6388 116.682L35.7418 117.139C35.5358 117.241 35.1753 117.394 34.6603 117.394C33.6818 117.394 33.1152 116.631 33.1152 115.513C33.1152 114.395 33.6818 113.531 34.6088 113.531C35.6388 113.531 35.9479 114.598 35.9479 115.259C35.9479 115.412 35.9479 115.513 35.9479 115.564H33.6818V115.615Z" fill="black"/>
<path d="M40.1193 117.19C39.9648 117.292 39.6558 117.394 39.1923 117.394C38.2137 117.394 37.5957 116.631 37.5957 115.513C37.5957 114.395 38.2652 113.531 39.2953 113.531C39.6558 113.531 39.9648 113.633 40.1193 113.735L39.9648 114.243C39.8103 114.141 39.6043 114.09 39.2953 114.09C38.5742 114.09 38.1622 114.7 38.1622 115.462C38.1622 116.326 38.6257 116.835 39.2438 116.835C39.5528 116.835 39.8103 116.733 39.9648 116.682L40.1193 117.19Z" fill="black"/>
<path d="M42.9521 113.633V114.141H41.9735V117.343H41.3555V114.141H40.377V113.633H42.9521Z" fill="black"/>
<path d="M44.0855 115.818C44.0855 115.92 44.0855 116.021 44.137 116.072C44.24 116.53 44.6006 116.835 45.0126 116.835C45.6306 116.835 45.9911 116.276 45.9911 115.412C45.9911 114.7 45.6306 114.039 45.0641 114.039C44.6521 114.039 44.2916 114.344 44.1885 114.853C44.1885 114.954 44.137 115.056 44.137 115.107V115.818H44.0855ZM43.4675 114.853C43.4675 114.395 43.4675 113.989 43.416 113.633H43.931L43.9825 114.243C44.1885 113.785 44.6006 113.531 45.1156 113.531C45.8881 113.531 46.4546 114.294 46.4546 115.412C46.4546 116.733 45.7336 117.394 45.0126 117.394C44.6006 117.394 44.24 117.19 44.034 116.835V118.817H43.4675V114.853Z" fill="black"/>
<path d="M48.9278 115.462C48.3098 115.462 47.5887 115.564 47.5887 116.275C47.5887 116.733 47.8462 116.936 48.1038 116.936C48.5158 116.936 48.7733 116.631 48.8763 116.326C48.8763 116.275 48.9278 116.174 48.9278 116.123V115.462ZM49.4428 116.428C49.4428 116.733 49.4428 117.038 49.4943 117.292H48.9793L48.9278 116.885C48.7733 117.19 48.4128 117.444 47.9492 117.444C47.2797 117.444 46.9707 116.936 46.9707 116.377C46.9707 115.462 47.6402 115.005 48.8763 115.005V114.954C48.8763 114.649 48.8248 114.09 48.1553 114.09C47.8462 114.09 47.5372 114.192 47.3312 114.344L47.1767 113.887C47.4342 113.684 47.8462 113.582 48.2068 113.582C49.1853 113.582 49.3913 114.344 49.3913 115.107V116.428H49.4428Z" fill="black"/>
<path d="M50.9357 113.633V115.107H52.4807V113.633H53.0473V117.343H52.4807V115.666H50.9357V117.343H50.3691V113.633H50.9357Z" fill="black"/>
<path d="M57.424 113.633V117.343H56.8575V113.633H57.424ZM54.5399 116.834C54.6429 116.834 54.7974 116.885 54.9519 116.885C55.4154 116.885 55.879 116.682 55.879 116.123C55.879 115.513 55.4154 115.361 55.0034 115.361C54.8489 115.361 54.6944 115.361 54.5914 115.412V116.834H54.5399ZM54.5399 113.633V114.903C54.6429 114.903 54.8489 114.852 55.0549 114.852C55.7245 114.852 56.4455 115.157 56.4455 116.072C56.4455 116.479 56.291 116.733 56.085 116.936C55.7245 117.292 55.2094 117.343 54.7974 117.343C54.4884 117.343 54.1794 117.343 53.9219 117.292V113.633H54.5399Z" fill="black"/>
<path d="M58.3527 117.393C58.1467 117.393 57.9922 117.19 57.9922 116.936C57.9922 116.631 58.1467 116.428 58.4042 116.428C58.6102 116.428 58.7647 116.631 58.7647 116.885C58.7647 117.19 58.6102 117.393 58.3527 117.393Z" fill="black"/>
<path d="M29.1493 68.6575H6.90039V46.7034H29.1493V68.6575Z" fill="#006BB6"/>
<path d="M12.5664 50.3115V58.9509C12.5664 63.5246 14.884 65.2017 17.9226 65.2017C21.1158 65.2017 23.5364 63.3722 23.5364 58.8492V50.3115H21.5793V59.0017C21.5793 62.2541 20.1372 63.6771 17.9741 63.6771C15.9655 63.6771 14.5235 62.305 14.5235 59.0017V50.3115H12.5664Z" fill="white"/>
<path d="M52.7899 68.6575H30.541V46.7034H52.7899V68.6575Z" fill="#006BB6"/>
<path d="M37.9054 64.9984V58.7476C37.9054 56.3082 37.9054 54.5296 37.7509 52.7H37.8024C38.5234 54.2755 39.5019 55.9525 40.5835 57.5787L45.3217 64.9984H47.2788V50.3623H45.4762V56.5115C45.4762 58.7984 45.5277 60.5771 45.6822 62.5083H45.6307C44.9612 60.9837 44.0856 59.4591 43.0041 57.7312L38.2659 50.3115H36.1543V64.9984H37.9054Z" fill="white"/>
<path d="M52.7899 91.9836H30.541V70.0295H52.7899V91.9836Z" fill="#006BB6"/>
<path d="M45.424 74.705C44.5485 73.9427 43.1579 73.4854 41.2524 73.4854C39.7073 73.4854 38.4712 73.6378 37.5957 73.7903V88.2739H39.5013V82.3788C39.9648 82.4804 40.4798 82.5312 41.0463 82.5312C42.9004 82.5312 44.5485 81.9722 45.5785 80.905C46.3511 80.1427 46.7631 79.0755 46.7631 77.7542C46.7631 76.4837 46.2481 75.4165 45.424 74.705Z" fill="white"/>
<path d="M41.0985 81.1083C40.4805 81.1083 39.914 81.0575 39.502 80.9558V75.264C39.811 75.2132 40.4805 75.1116 41.3045 75.1116C43.4161 75.1116 44.8067 76.0263 44.8067 78.0083C44.8067 79.9903 43.4161 81.1083 41.0985 81.1083Z" fill="#006BB6"/>
<path d="M29.1493 91.9836H6.90039V70.0295H29.1493V91.9836Z" fill="#006BB6"/>
<path d="M22.5073 75.3149C21.2197 74.0952 19.2626 73.4854 16.4815 73.4854C14.9364 73.4854 13.5974 73.6378 12.3613 73.7903V88.223C13.3399 88.3755 14.4729 88.3755 15.8635 88.3755C18.7476 88.3755 21.0652 87.664 22.4557 86.2919C23.7948 84.9198 24.5673 82.9886 24.5673 80.6001C24.6188 78.2116 23.8978 76.4837 22.5073 75.3149Z" fill="white"/>
<path d="M16.2754 86.8508C15.5029 86.8508 14.8334 86.8508 14.3184 86.7491V75.1623C14.8334 75.0606 15.5544 74.959 16.5845 74.959C20.6531 74.959 22.6102 77.0934 22.6102 80.6C22.6102 84.6147 20.3956 86.9016 16.2754 86.8508Z" fill="#006BB6"/>
<path d="M6.90039 45.3311H52.7888V0H6.90039V45.3311Z" fill="#006BB6"/>
<path d="M46.3013 23.5803C45.6833 24.495 44.8592 25.3081 44.2927 26.2229C44.3442 25.5114 44.4472 24.5967 44.1382 23.936C43.6232 22.4622 43.2111 20.9376 43.0566 19.3114V18.7016C43.4172 20.3786 45.0652 21.4967 44.9622 23.377C45.0137 23.8344 44.8592 24.1901 44.7562 24.5967L44.8077 24.6475L44.8592 24.5458C45.1167 23.6311 45.2197 22.6655 45.5802 21.8016C46.1468 20.5819 46.8163 19.3622 46.5073 17.8376C47.4343 19.6163 47.1768 21.954 46.3013 23.5803Z" fill="white"/>
<path d="M45.2707 14.1788C46.3523 15.6525 46.6098 17.9394 45.7858 19.6165C45.4768 20.3279 45.2707 21.0902 45.1677 21.8525C45.1162 21.7001 45.1162 21.5476 45.0647 21.3952C44.6527 19.7689 43.0562 18.6001 42.4381 17.0755C42.2321 16.5673 42.0776 16.0591 41.9746 15.5001C42.6441 16.7706 44.3437 17.3804 44.8072 18.7525C45.0132 19.1083 44.9617 19.5148 45.1162 19.9214C45.1677 19.9214 45.1677 19.9214 45.1677 19.8706C44.9617 18.4476 45.0132 16.9738 45.2192 15.5509C45.2192 14.7886 45.1162 14.0771 44.7042 13.4673C44.9617 13.6706 45.0647 13.9755 45.2707 14.1788Z" fill="white"/>
<path d="M44.4976 13.9246C44.8066 15.1951 44.3946 16.4148 44.6521 17.6853C43.9311 16.3131 42.4891 15.7033 41.459 14.5853C40.841 13.9246 40.5835 13.1623 40.4805 12.2984C41.047 13.6705 42.6436 14.0262 43.5706 15.1951C43.8796 15.4492 43.9826 15.8558 44.1886 16.1607L44.2401 16.1098C43.7251 14.9918 43.5191 13.7721 43.2101 12.6033C43.0041 12.0951 42.6436 11.5869 42.18 11.282C43.2101 11.5869 44.2401 12.8066 44.4976 13.9246Z" fill="white"/>
<path d="M41.3043 11.028C42.1799 11.8411 42.5919 12.8575 42.8494 13.9247L43.0039 14.2805C41.7164 13.3657 40.5318 12.0952 39.7078 10.8247L38.6777 9.80835C39.6048 10.1133 40.5833 10.3165 41.3043 11.028Z" fill="white"/>
<path d="M24.3097 10.0115C26.0092 9.19838 27.8633 8.74101 29.8719 8.69019C34.5071 8.69019 38.8848 11.3836 40.8934 15.6017C42.1809 18.041 42.5414 21.3443 41.7174 24.0885C40.8934 27.341 38.1122 30.5935 34.9191 31.9148C31.314 33.6426 26.1637 33.2361 22.9706 30.9492C18.4899 27.9508 16.6873 22.7164 18.0264 17.5836C18.7989 14.5344 21.271 11.4344 24.3097 10.0115Z" fill="white"/>
<path d="M20.7551 9.90991C19.8796 10.6722 19.2101 11.6886 18.5406 12.6034C17.9225 13.3148 17.2015 13.823 16.4805 14.4329C16.841 13.6706 16.841 12.8066 17.4075 12.0952C18.18 10.8247 19.5191 10.3673 20.7551 9.90991Z" fill="white"/>
<path d="M15.8632 12.6033C16.2752 12.0443 16.8418 11.6886 17.4598 11.5361C16.2752 12.3492 16.3268 13.823 15.9662 15.0427C15.8632 15.5001 15.6057 15.9066 15.5027 16.364H15.5542C15.7602 15.8558 16.1207 15.3476 16.5328 14.8902C17.4083 14.1279 18.6958 13.6197 19.1079 12.4509C19.1079 14.0771 17.7173 15.3476 16.4298 16.2624C15.8632 16.7197 15.3482 17.2788 15.0907 17.8378C15.0392 17.4312 15.1422 17.0247 15.1422 16.5673C14.9362 15.246 14.8332 13.6706 15.8632 12.6033Z" fill="white"/>
<path d="M13.3914 17.431C13.3399 16.0081 13.9579 14.8392 14.7819 13.772L14.8334 13.7212C13.9064 15.0933 14.6789 16.872 14.6274 18.4474L14.5244 20.0737C14.5244 20.0737 14.5244 20.1245 14.5759 20.1245C14.6274 19.9212 14.6274 19.7687 14.6789 19.5655C14.8849 18.2441 16.0695 17.3294 17.048 16.4146C17.254 16.1605 17.46 15.9573 17.5631 15.6523C17.46 16.313 17.254 16.9736 16.9965 17.5835C16.224 19.1081 14.7819 20.3277 14.5244 22.0556C14.4214 20.4294 13.2884 19.1589 13.3914 17.431Z" fill="white"/>
<path d="M12.6689 19.4639C12.7719 19.0065 12.8749 18.5491 13.0294 18.1426C12.6689 20.0229 13.9564 21.395 14.3684 23.0213C14.5229 23.6311 14.5744 24.2918 14.832 24.8508C14.832 24.8508 14.8835 24.8508 14.8835 24.8C14.2654 23.0721 15.141 21.4459 16.068 20.0737C16.274 19.718 16.4285 19.3114 16.5315 18.8541C16.6345 19.6163 16.4285 20.5311 16.3255 21.3442C16.1195 22.3606 15.759 23.377 15.5015 24.3934C15.2955 25.0032 15.347 25.7147 15.45 26.3754L15.347 26.3245C14.6774 25.1049 13.3384 24.1393 12.9779 22.818C12.6689 21.8524 12.4629 20.5819 12.6689 19.4639Z" fill="white"/>
<path d="M12.6171 23.123C12.7716 25.105 14.9347 26.1722 15.9648 27.8492C16.2223 28.205 16.4283 28.5607 16.7373 28.8656C16.6858 28.6623 16.4798 28.4591 16.4283 28.2558C16.0678 27.5443 15.9648 26.7312 16.0163 25.9181C16.1193 24.9017 16.5313 23.9361 16.3768 22.8689C17.2523 24.7492 16.9948 27.1377 17.5098 29.1705C17.6128 29.6279 17.9219 30.0345 18.0764 30.441C16.2738 29.2214 13.7502 28.0525 12.9777 25.8164C12.5656 25.0033 12.5656 24.0377 12.6171 23.123Z" fill="white"/>
<path d="M13.6992 27.7474C14.7293 30.0343 17.2529 30.1868 18.9524 31.6097C19.2614 31.8638 19.622 32.1179 19.931 32.2704C19.519 31.9147 19.1069 31.5081 18.7979 31.0507C17.8194 29.6786 18.1284 27.7475 17.4074 26.2737C18.0769 27.0868 18.6949 27.8999 19.1069 28.8147C19.725 30.2884 19.931 31.9655 21.373 33.0835C19.828 32.5753 18.0254 32.7278 16.6863 31.813C15.2958 30.8983 14.0082 29.3737 13.6992 27.7474Z" fill="white"/>
<path d="M16.3262 31.9655C17.9742 33.795 20.6009 33.1851 22.7639 33.6425C23.073 33.6933 23.3305 33.795 23.691 33.7442C23.4335 33.5917 23.073 33.5917 22.7639 33.4392C21.0644 32.8294 20.8069 31.0507 19.8798 29.8311C21.0644 30.5933 22.0429 31.6606 23.1245 32.677C23.897 33.3376 24.824 33.6425 25.8541 33.8458C25.5966 33.9474 25.2875 33.8966 25.03 33.9474C23.2275 34.4048 21.2704 35.0655 19.3648 34.4556C18.2318 34.0999 16.9442 33.1343 16.3262 31.9655Z" fill="white"/>
<path d="M38.4212 36.2344C36.5672 36.895 34.6616 36.1835 33.2195 35.1163C32.653 34.7606 32.138 34.2524 31.3654 34.2524C31.1079 34.2524 30.8504 34.2524 30.5929 34.3032C31.9835 34.9639 33.271 35.8278 34.4556 36.9458C34.2496 37.1491 33.9921 37.4032 33.7345 37.5557C32.6015 36.336 31.3139 35.1672 29.9234 34.5065C29.6659 34.5573 29.4084 34.7098 29.1508 34.8622C28.0178 35.5737 26.8848 36.4885 26.0092 37.6573L25.2882 37.0475C26.4727 35.8786 27.7603 34.9639 29.2024 34.3032C27.8118 33.8458 26.8848 35.0147 25.8547 35.6245C24.6187 36.4885 22.8676 36.895 21.374 36.2852C20.55 35.9803 19.7775 35.5229 19.2109 34.8114C20.3955 35.6245 22.1466 35.6753 23.4856 35.1671C25.2882 34.4049 27.1423 33.4393 29.3054 33.8967C29.6659 33.8967 29.9749 34.2524 30.2839 33.9475C31.8805 33.5409 33.683 33.8458 35.0736 34.5573L36.5157 35.1163C37.8547 35.6245 39.5543 35.4721 40.6873 34.659C40.0693 35.4212 39.2453 35.9294 38.4212 36.2344Z" fill="white"/>
<path d="M40.4287 34.3541C38.3686 35.1164 36.3086 34.2017 34.3 33.8459L33.9395 33.7951C34.8665 33.5918 35.7935 33.2869 36.5661 32.6263C37.6476 31.559 38.6776 30.4918 39.9137 29.6787C38.9867 30.8476 38.8837 32.4738 37.3901 33.2361C37.0296 33.4902 36.5661 33.541 36.154 33.6935C36.7206 33.6935 37.1841 33.4902 37.7506 33.4394C39.7592 33.1345 42.0768 33.4394 43.5189 31.7623C42.9008 32.9312 41.6133 33.9476 40.4287 34.3541Z" fill="white"/>
<path d="M41.5623 32.2706C40.5322 32.5247 39.3992 32.6263 38.3691 32.982C40.1202 31.5083 40.0172 29.2214 41.1503 27.5443C41.5108 27.0361 41.8198 26.5279 42.2318 26.0706C41.5108 27.4427 41.8198 29.2722 41.0473 30.6443C40.7382 31.2033 40.2747 31.7115 39.8112 32.1181C39.9657 32.1181 40.1202 31.9656 40.2747 31.864C41.6138 30.5935 43.3133 30.1869 44.7039 29.1706C45.2704 28.7132 45.7854 28.1542 46.043 27.4935C45.7339 29.6279 43.5709 31.6099 41.5623 32.2706Z" fill="white"/>
<path d="M44.1374 28.6114C43.3134 29.1196 42.4893 29.6278 41.7168 30.2377V30.1868C42.9013 28.2049 42.3348 25.5114 43.0559 23.377L43.3134 22.6655C43.2104 23.936 43.7769 25.1049 43.7769 26.4262C43.7254 27.2393 43.4679 27.9508 43.0044 28.6114H43.0559C43.6224 27.8491 44.0859 27.036 44.8069 26.3245C45.8885 25.3082 46.97 24.2918 47.073 22.8688C47.485 25.2573 46.146 27.2901 44.1374 28.6114Z" fill="white"/>
<path d="M34.9696 28.459L35.0726 28.3574C35.4331 28.0524 35.8451 27.7983 36.1541 27.4426H36.2057C36.1541 27.4426 36.0511 27.4934 35.9481 27.4426C35.7936 27.341 35.7421 27.1885 35.7421 27.0361L34.9696 26.2738L34.9181 26.1721C34.8666 26.3246 34.7636 26.4262 34.6606 26.5279C34.6606 26.6295 34.6091 26.782 34.7636 26.8328C35.0211 26.9344 35.3301 27.0869 35.3816 27.341C35.2786 27.5951 34.7636 27.8492 35.0726 28.1541C35.1756 28.3065 34.9181 28.3574 34.9696 28.459Z" fill="#006BB6"/>
<path d="M30.5917 18.6508C30.7462 18.7524 30.7977 18.6 30.9522 18.5491C31.1067 18.5491 31.2612 18.7016 31.3642 18.8032C31.4672 18.8541 31.5702 18.8032 31.6732 18.7524C31.7248 18.2442 32.3943 18.3459 32.5488 17.8377L32.4458 17.8885C32.3943 17.8377 32.2913 17.8377 32.2913 17.736C32.3943 17.6344 32.5488 17.4819 32.6518 17.4311C32.0853 17.0754 31.5187 16.8213 30.9007 16.6688C30.6432 16.618 30.3857 16.618 30.1797 16.5164C30.2827 16.8721 30.1797 17.3803 30.2827 17.7869L30.6947 17.9393C30.8492 17.736 31.1067 17.6852 31.2097 17.4819C31.3127 17.4311 31.3642 17.4819 31.4672 17.5328C31.4672 17.6852 31.4672 17.8377 31.4157 17.9901C31.2097 18.3967 30.7977 18.4475 30.5917 18.6508Z" fill="#006BB6"/>
<path d="M37.0812 22.7163C36.8236 23.5294 36.5146 24.2917 35.9996 25.0032C35.7936 25.2573 35.5876 25.613 35.3301 25.7147L35.8966 26.2229C35.9481 26.1721 35.8966 26.1212 35.8966 26.1212C35.8966 26.0704 35.9481 25.9688 35.9996 25.9688C36.2571 25.9688 36.2571 26.2229 36.4116 26.3753C36.3601 26.6294 36.5661 26.7819 36.5146 26.9852C38.0597 25.3589 38.8322 23.4278 38.9867 21.2425L39.0897 21.1409C38.5232 21.1917 37.9567 21.1409 37.3902 21.1409L37.2357 21.0901C37.2872 21.4458 37.1842 21.8016 37.1327 22.1573L37.3387 22.3606C37.3902 22.4622 37.3902 22.5639 37.2872 22.6147C37.2872 22.818 37.1842 22.7671 37.0812 22.7163Z" fill="#006BB6"/>
<path d="M35.6396 17.3802C35.4336 16.9736 35.1245 16.6687 34.8155 16.313L34.764 16.3638C34.1975 16.9228 33.5795 17.5327 33.0645 18.1425C33.116 18.1933 33.1675 18.295 33.219 18.295C33.219 18.1425 33.322 18.0409 33.322 17.8884C33.4765 17.6851 33.6825 17.8376 33.8885 17.8376C34.1975 17.7868 34.455 17.8884 34.764 17.8884C34.97 17.99 35.0215 18.295 35.2275 18.3966C35.279 18.4982 35.2275 18.5491 35.176 18.6507C35.2275 19.1081 35.4336 18.5491 35.6911 18.6507C35.7941 18.7015 35.8971 18.6507 36.0001 18.7523C36.0516 18.9556 36.2576 18.9048 36.2576 19.1081C36.2576 19.2097 36.1546 19.2097 36.1031 19.2605C36.1546 19.4638 35.8971 19.5654 36.0001 19.7687C36.3606 19.8195 36.3606 19.413 36.5151 19.2605C36.4121 18.9556 36.3606 18.6507 36.1546 18.3458C35.9486 18.295 35.8456 18.0917 35.6396 18.0409C35.2275 17.8376 35.6911 17.6343 35.6396 17.3802Z" fill="#006BB6"/>
<path d="M30.1804 29.9837C30.6439 29.8312 31.159 29.8821 31.674 29.7804C31.571 29.7296 31.468 29.7296 31.4165 29.628C31.1074 29.628 31.0044 29.323 30.9014 29.0689C30.8499 28.9165 30.9529 28.764 31.0559 28.6116C30.9529 28.3575 30.5409 28.5607 30.3349 28.4591C30.2834 28.4083 30.2319 28.3575 30.1289 28.3066L30.2319 28.4591C30.1804 28.9673 30.2319 29.4755 30.1804 29.9837Z" fill="#006BB6"/>
<path d="M30.54 25.2575C30.6945 25.3083 30.5915 25.4608 30.6945 25.5116C30.952 25.4099 31.158 25.7149 31.3126 25.5624C31.3126 25.2575 31.6216 25.3083 31.8276 25.2067C32.0851 25.0542 32.3941 24.8509 32.3941 24.4444L32.3426 24.3936C32.1366 24.3936 32.0336 24.546 31.9306 24.6477C31.7761 24.7493 31.6731 24.4444 31.5186 24.546C31.5186 24.5968 31.5701 24.5968 31.5701 24.5968C31.6216 24.6477 31.6216 24.7493 31.5701 24.7493C31.3641 24.9526 31.2611 24.6477 31.055 24.6985V24.7493C31.055 24.8001 31.055 24.8509 31.0035 24.8509C30.9005 24.6477 30.643 24.7493 30.4885 24.546C30.3855 24.4952 30.334 24.546 30.2825 24.5968C30.231 24.6985 30.025 24.5968 30.0765 24.7493C29.922 24.8001 29.922 24.9526 29.819 25.0542C29.613 25.0034 29.5615 25.2575 29.3555 25.2067C29.3555 25.2575 29.3555 25.3083 29.407 25.3083C29.51 25.3591 29.613 25.3591 29.7675 25.3591C29.9735 25.1559 30.2825 25.4099 30.54 25.2575Z" fill="#006BB6"/>
<path d="M32.3438 22.9198C32.3438 23.0214 32.3438 23.123 32.4468 23.2247C32.7043 23.1739 32.6013 23.5296 32.8073 23.4788C32.9103 23.428 32.8073 23.3263 32.8588 23.2755C32.8073 23.0722 32.6528 23.0722 32.4983 22.9706C32.4983 22.9198 32.4983 22.9198 32.5498 22.869C32.4468 22.8181 32.4468 22.8689 32.3438 22.9198Z" fill="#006BB6"/>
<path d="M32.086 14.5853C31.468 14.382 30.7984 14.2804 30.1289 14.1787L30.1804 14.3312V15.9574L30.3349 15.9066C31.365 16.059 32.292 16.364 33.0645 17.0246L33.116 17.1771C33.3735 16.8213 33.7856 16.4656 34.1461 16.1099L34.4551 15.9574L34.3006 15.9066C33.6311 15.2967 32.8585 14.8394 32.086 14.5853Z" fill="#006BB6"/>
<path d="M20.7038 21.3441L20.8584 22.4621C20.9099 22.8687 21.1159 23.3261 21.1159 23.7326C21.1674 23.631 21.1159 23.4785 21.3219 23.4277C21.2704 23.2753 21.4249 23.1736 21.3219 23.072C21.3734 22.7671 21.4249 22.4621 21.6824 22.2589C21.9914 22.2589 22.0429 21.8523 22.3519 21.8015C22.5064 21.8015 22.6094 22.0048 22.6609 22.0556C22.4549 21.8015 22.4549 21.4457 22.5064 21.1917L22.3519 21.2425C21.7854 21.2425 21.1674 21.2933 20.6523 21.1917L20.7038 21.3441Z" fill="#006BB6"/>
<path d="M31.6747 24.1393C31.8292 23.9868 32.1382 23.9868 32.1382 23.7835C31.9322 23.7327 31.8292 23.8852 31.6747 23.9868C31.6747 24.0376 31.5717 24.1393 31.6747 24.1393Z" fill="#006BB6"/>
<path d="M35.5879 21.1409L35.7939 21.3441C35.9999 21.4966 35.8454 21.7507 36.0514 21.8523C36.3089 21.954 36.3604 22.2589 36.4634 22.4622C36.5149 22.4114 36.5149 22.3605 36.5149 22.3097C36.6179 21.954 36.5664 21.5982 36.6694 21.2933C36.3089 21.2425 35.8969 21.2425 35.5879 21.1409Z" fill="#006BB6"/>
<path d="M33.1169 25.359C33.3229 25.4098 33.4774 25.6639 33.7349 25.6131C33.9409 25.5115 34.3014 25.6639 34.4559 25.4607C34.4559 25.2574 34.6104 25.0541 34.7134 24.9016H34.7649C34.8679 25.0033 34.8679 25.2066 34.9194 25.359C35.0739 25.1557 35.2284 25.0033 35.3829 24.8C35.795 24.241 36.1555 23.5803 36.2585 22.9197C36.104 22.9197 35.9495 22.9705 35.795 23.0213C35.6405 23.0213 35.3829 23.123 35.2284 22.9705C35.1769 22.9197 35.1254 22.9705 35.1254 23.0213C35.0739 23.123 35.0224 23.2246 34.8679 23.1738C34.7649 23.123 34.7649 23.0213 34.7134 22.9197C34.7134 22.9705 34.7134 23.0721 34.6619 23.123C34.5589 23.2754 34.5074 23.3771 34.4044 23.5295C34.2499 23.682 34.0439 23.6312 33.9409 23.7328C33.9409 24.0377 33.5804 23.9361 33.4259 24.0377C33.4259 24.0885 33.4774 24.0885 33.4774 24.0885C33.5804 24.0885 33.6834 24.0885 33.7349 24.0377C33.9924 24.0885 33.9409 23.7836 34.0954 23.682C34.1984 23.682 34.3529 23.5803 34.4559 23.6312C34.6104 23.7836 34.6104 24.0377 34.6104 24.241C34.4559 24.3935 34.5589 24.5967 34.4559 24.8C34.4559 25.0033 34.2499 25.1049 34.2499 25.3082C34.1469 25.4098 34.0439 25.4098 33.8894 25.4098C33.4259 25.2066 32.9108 25.1049 32.3443 25.0541C32.2928 25.0541 32.2413 25.1049 32.2928 25.1557C32.6018 25.2574 32.8593 25.2574 33.1169 25.359Z" fill="#006BB6"/>
<path d="M29.4583 30.6444L29.5098 30.5427L29.3038 30.5936C26.9347 30.4411 24.8231 29.5772 23.072 27.9509V28.0017L21.8359 29.2722C23.7415 30.8985 25.9046 31.9657 28.3767 32.2706C28.7887 32.3214 29.2007 32.3214 29.6128 32.4231L29.5098 32.2706V30.6444H29.4583Z" fill="#006BB6"/>
<path d="M26.9863 24.1393C27.6559 24.6475 28.3769 25.0032 29.2009 25.1557C29.2524 25.0032 29.2009 24.8 29.2524 24.6475C29.3039 24.495 29.4584 24.495 29.6129 24.5459C29.6644 24.5459 29.7159 24.4442 29.6644 24.3934C29.5099 24.3426 29.5614 24.1901 29.5099 24.0377C29.5099 23.9868 29.6129 23.9868 29.6129 23.936C29.5099 23.8344 29.6644 23.7328 29.5614 23.6311C29.6129 23.6311 29.6129 23.5803 29.6644 23.5295C29.3039 23.6819 28.8919 23.4787 28.5829 23.3262C28.4284 23.2246 28.1709 23.1229 28.1709 22.9705C27.8619 23.3262 27.3468 23.7328 26.9863 24.1393Z" fill="#006BB6"/>
<path d="M26.3695 22.259C26.318 22.2082 26.318 22.259 26.2665 22.3098C26.215 22.3098 26.215 22.3098 26.1635 22.3098C26.1635 21.9541 25.7514 22.1573 25.6484 22.0049C25.8029 22.3098 25.9059 22.6655 26.112 22.9705C26.215 23.2246 26.4725 23.4787 26.5755 23.7328C26.6785 23.5295 26.936 23.3262 27.0905 23.1229C27.0905 23.0213 27.0905 22.9705 27.039 22.8688C26.9875 22.7164 27.039 22.5639 26.936 22.4623C26.7815 22.5131 26.9875 22.6655 26.936 22.7672C26.8845 22.818 26.7815 22.7672 26.7815 22.7164C26.627 22.7164 26.524 22.5639 26.4725 22.4623C26.524 22.3606 26.3695 22.3098 26.3695 22.259Z" fill="#006BB6"/>
<path d="M27.5544 22.4114C27.5029 22.5638 27.3999 22.7163 27.2969 22.8179C27.4514 22.7163 27.5544 22.513 27.7604 22.513L27.5544 22.4114Z" fill="#006BB6"/>
<path d="M29.3048 28.3065C27.8113 28.2557 26.5237 27.6967 25.3392 26.8328C25.3907 26.9852 25.5452 27.0869 25.4937 27.2393C25.3907 27.3918 25.1847 27.3918 25.0302 27.3918C24.6696 27.341 24.4121 27.5951 24.1031 27.6459C23.7941 27.7475 23.6911 27.3918 23.4336 27.3918C25.1332 28.8655 27.0902 29.7803 29.3563 29.8819L29.5108 29.9836L29.4593 29.7803V28.2049L29.3048 28.3065Z" fill="#006BB6"/>
<path d="M22.7119 27.4933C22.5059 27.3409 22.2999 27.1376 22.1453 26.9343C21.9393 26.8835 21.7333 26.731 21.6303 26.5278C21.5788 26.4769 21.6303 26.3245 21.5788 26.2737L21.5273 26.3753C21.3213 26.4769 21.2183 26.2737 21.0638 26.172C20.8578 26.0704 20.9608 25.7146 20.7033 25.7655C20.6003 25.7655 20.6003 25.6638 20.4973 25.613C20.2398 25.613 20.1883 25.3589 20.0853 25.2573C20.0853 25.3081 20.0853 25.3589 20.0338 25.4097C19.7763 25.4605 19.7248 25.1556 19.5187 25.054C19.4672 25.054 19.4672 25.1048 19.3642 25.1048C19.2097 24.9523 19.1067 24.7999 19.1067 24.5966C18.9007 24.3933 19.0037 24.0376 19.0552 23.7327C19.1067 23.6819 19.2097 23.631 19.1582 23.5294C19.2097 23.4278 19.3642 23.3769 19.4672 23.3769C19.5187 23.3769 19.5702 23.4278 19.5702 23.4786C19.6732 23.4278 19.8278 23.4786 19.7763 23.3261C19.8793 23.2245 20.0338 23.2245 20.1883 23.1737C20.2913 23.2753 20.3428 23.4278 20.4458 23.5294L20.3428 23.3769C20.2398 22.8687 20.0853 22.2589 20.0853 21.5982C20.0853 21.5474 20.0338 21.5474 20.0338 21.4966C20.0338 21.3441 20.0338 21.2425 20.0338 21.1409L19.8793 21.1917H18.1797C18.2827 23.1228 18.7977 24.9015 19.6732 26.4769C20.0853 27.29 20.7548 28.0015 21.3213 28.713L22.5574 27.4933H22.7119Z" fill="#006BB6"/>
<path d="M24.6702 13.4165C24.3096 13.6706 23.9491 14.0263 23.5371 14.2296C24.0006 14.5345 24.3611 14.9919 24.7732 15.3476L24.8247 15.4493C25.8547 14.4837 27.1423 13.8739 28.4813 13.6198C28.7903 13.5689 29.1508 13.4673 29.4599 13.5689C29.4599 13.0099 29.4084 12.4001 29.4599 11.8411C27.6573 11.9427 26.0607 12.4509 24.6702 13.4165Z" fill="#006BB6"/>
<path d="M23.176 19.7181C23.1245 20.023 23.1245 20.3279 23.0215 20.6329C23.2275 20.5312 23.5365 20.582 23.794 20.582C23.6395 20.5312 23.794 20.3279 23.691 20.2263C23.691 20.0738 23.6395 19.8706 23.794 19.7689C23.794 19.5148 24.0515 19.4132 24.0515 19.1591C24.103 18.905 24.412 19.0575 24.5665 18.9558C24.6696 18.905 24.5665 18.8034 24.5665 18.7525C24.6696 18.6001 24.8756 18.6001 25.0301 18.4984C25.1331 18.346 25.2876 18.1935 25.4421 18.0919C25.8026 18.0919 25.8026 17.5837 26.1631 17.5837C25.6996 17.2279 25.2361 16.7706 24.8241 16.364C24 17.3804 23.4335 18.4476 23.176 19.7181Z" fill="#006BB6"/>
<path d="M23.4335 22.1572C23.4335 22.0556 23.279 22.0048 23.279 21.9031C23.382 21.6998 23.279 21.2933 23.588 21.2425C23.382 21.2933 23.176 21.3441 23.0215 21.1917L23.1245 21.3441C23.1245 21.7507 23.279 22.1064 23.2275 22.513C23.279 22.4113 23.279 22.2589 23.4335 22.1572Z" fill="#006BB6"/>
<path d="M25.1318 26.5277L25.082 26.4771L25.1318 26.5277Z" fill="#006BB6"/>
<path d="M23.0729 14.7376L22.4034 15.5507C21.3219 17.0245 20.8069 18.7016 20.6523 20.5819L22.3519 20.5311L22.5064 20.5819C22.4549 20.5311 22.4549 20.4802 22.4549 20.4294C22.6094 18.7016 23.2275 17.177 24.412 15.9065C23.9485 15.4999 23.5365 15.0934 23.1244 14.636L23.0729 14.7376Z" fill="#006BB6"/>
<path d="M28.275 26.0197C28.4295 25.8672 28.584 25.7656 28.7385 25.7148C28.1719 25.8164 27.7084 25.4607 27.2449 25.2066C26.9874 25.0033 26.6269 24.8508 26.4724 24.5459C26.1119 25.0033 25.6998 25.4098 25.2363 25.7656C25.4423 25.7656 25.5453 25.9688 25.6998 26.0705C26.6269 26.8328 27.7599 27.1885 28.8415 27.4426L28.5325 27.2902C28.3265 27.0361 28.0174 26.7311 27.9659 26.4262C28.2235 26.4262 28.1719 26.1721 28.275 26.0197Z" fill="#006BB6"/>
<path d="M24.0506 21.2427L23.9991 21.5477C23.9476 21.7509 23.69 21.5985 23.587 21.7001C23.484 21.8018 23.587 21.9542 23.6385 22.0559C23.484 22.4624 24.0506 22.5641 23.9991 22.9198C24.1536 23.1231 23.9991 23.428 24.2051 23.6313C24.2566 24.0378 24.1536 24.546 24.5141 24.8509L24.5656 25.2067C24.6171 25.4608 24.2566 25.41 24.3081 25.6132C24.3596 25.5624 24.4111 25.6641 24.4111 25.7149C24.8746 25.1559 25.4411 24.5968 26.0076 24.1395L25.7501 23.8854C25.3381 23.2247 24.9776 22.5641 24.8231 21.8018L24.6686 21.7001C24.6686 21.9034 24.5656 22.0559 24.5656 22.2591L24.5141 22.31C24.4111 22.31 24.3081 22.2083 24.2051 22.1575C24.2051 22.1067 24.1021 22.005 24.2051 21.9034C24.2566 21.9034 24.3081 21.9034 24.3596 21.9542C24.4111 21.9034 24.4111 21.8018 24.4111 21.7001C24.4111 21.5477 24.3081 21.446 24.4111 21.2936C24.5141 21.2936 24.6171 21.3952 24.6686 21.4968C24.7716 21.5477 24.8746 21.446 24.9776 21.3952C24.9776 21.2936 25.1321 21.1411 24.9776 21.0903C25.0806 20.8362 24.9776 20.5821 24.9776 20.3788C24.9261 20.1755 24.6686 20.2263 24.5141 20.2263C23.9991 20.3788 24.6171 20.7345 24.4626 21.0395C24.3596 21.3444 24.2051 21.1411 24.0506 21.2427Z" fill="#006BB6"/>
<path d="M39.7589 21.1917L39.6559 21.1409L39.7074 21.2933C39.6044 23.3261 38.9349 25.054 37.7503 26.6802C37.5443 26.9343 37.3383 27.2901 37.0293 27.4425C37.4928 27.7982 38.0078 28.3573 38.3684 28.7638L38.4199 28.6622C40.2739 26.5786 41.3555 24.0884 41.4585 21.2933L41.51 21.1409L41.407 21.1917H39.7589Z" fill="#006BB6"/>
<path d="M23.1764 13.823V13.7213C24.979 12.0951 27.0391 11.2312 29.4082 11.1295L29.3567 10.9771V9.50329L29.4082 9.35083C26.9361 9.45247 24.773 10.2656 22.8159 11.6377C22.4554 11.8918 22.0949 12.2984 21.7344 12.5016H21.7859C22.3009 12.8574 22.7644 13.3656 23.1764 13.823Z" fill="#006BB6"/>
<path d="M29.3558 14.2295C27.8107 14.3312 26.4717 14.9918 25.2871 15.9574C25.7506 16.2623 26.1626 16.7705 26.5747 17.1771C26.6262 17.1263 26.6262 17.0754 26.6777 17.0246C27.2442 16.6181 27.8622 16.2623 28.5317 16.059C28.8408 16.0082 29.1498 15.9066 29.4588 15.9574C29.4073 15.3984 29.4073 14.7377 29.4588 14.1787L29.3558 14.2295Z" fill="#006BB6"/>
<path d="M29.4586 16.6179C28.4801 16.7704 27.5531 17.0753 26.832 17.8376H26.9865C27.141 17.9901 27.3471 17.9392 27.5016 18.1425C27.5531 18.2442 27.3986 18.2441 27.3986 18.3458C27.4501 18.3966 27.4501 18.3966 27.5016 18.3966C27.6046 18.4474 27.6046 18.3458 27.6561 18.295C27.8106 18.1425 27.8106 18.4474 27.9651 18.4474C28.0681 18.3966 28.2226 18.3966 28.2741 18.4982C28.3771 18.3966 28.5831 18.4982 28.6346 18.3458C28.8406 18.1425 28.7376 17.8376 28.9951 17.736C29.0981 17.7868 28.9951 17.8884 29.0466 17.9901C29.2526 18.0917 29.4586 17.8376 29.6131 18.0409C29.4071 17.5327 29.4586 17.0245 29.4586 16.6179Z" fill="#006BB6"/>
<path d="M29.5099 19.3115C29.3039 19.6164 29.0464 19.6672 28.7374 19.7689C28.6344 19.8705 28.6859 20.0738 28.4799 20.0738C28.4284 20.2263 28.2224 20.2771 28.2739 20.4804C28.1709 20.6836 28.2224 20.9377 28.1709 21.1918C27.8104 21.3951 27.9134 20.8869 27.7074 20.7853V20.8361C27.6559 20.8361 27.6044 20.8361 27.5529 20.7853C27.5013 20.7853 27.3983 20.7345 27.3468 20.7853C27.2438 20.9377 27.1408 21.0394 27.1923 21.1918C27.1408 21.2935 26.9863 21.2427 26.9863 21.3951C27.1923 21.3951 27.3983 21.3443 27.6044 21.2935C27.7589 21.3443 27.8619 21.2427 28.0164 21.2427C28.0679 21.2427 28.1194 21.2935 28.1194 21.3951H28.1709C28.2739 21.3443 28.3254 21.1918 28.2739 21.0902C28.2739 20.9377 28.4284 20.9377 28.5314 20.9377C28.6344 20.9886 28.5829 21.0394 28.5829 21.0902C28.8404 21.1918 28.5314 21.3951 28.4799 21.5476C28.4284 21.6492 28.4799 21.9033 28.2739 21.9033C28.2224 21.9033 28.2224 21.8525 28.2224 21.8017H28.1709C28.1709 21.9033 28.2224 22.0558 28.3254 22.0558C28.4799 21.9033 28.4799 21.7 28.7374 21.6492C28.8404 21.4968 28.6859 21.2935 28.8919 21.1918C29.2009 21.1918 29.5614 21.0394 29.8189 21.2935C29.8189 21.3951 29.7674 21.4459 29.8704 21.5476C29.8189 21.7 29.7674 21.8525 29.6644 21.9541C29.7159 22.0558 29.6644 22.1066 29.6129 22.2082C29.5099 22.564 29.0979 22.4115 28.8404 22.5131C29.2009 22.8181 29.6644 22.9197 30.1795 22.8689C30.437 22.8689 30.334 22.5131 30.437 22.4115C30.54 22.0049 30.9005 22.259 31.158 22.1574C31.261 21.9541 31.364 21.8017 31.364 21.5984C31.2095 21.4968 31.158 21.3443 31.2095 21.141C31.1065 20.9886 31.1065 20.7345 30.9005 20.7345C30.849 20.6836 30.9005 20.6328 30.9005 20.582C30.9005 20.4295 31.0035 20.4295 31.055 20.2771C30.9005 20.1754 30.952 19.9722 30.952 19.8705C30.6945 19.9213 30.6945 19.6164 30.4885 19.5656C30.437 19.4131 30.2825 19.4131 30.1795 19.3623C29.8704 19.5148 29.8189 19.159 29.6129 19.0574C29.6129 19.0066 29.5614 18.9049 29.6129 18.8541C29.7159 18.7525 29.8704 18.8541 29.9735 18.8541L29.8704 18.8033C29.7674 18.7017 29.5614 18.7525 29.4069 18.8033C29.5099 18.9558 29.4584 19.159 29.5099 19.3115Z" fill="#006BB6"/>
<path d="M20.0853 20.582L20.0338 20.3279C20.1368 18.3968 20.7548 16.6689 21.8878 15.1443C22.1453 14.8394 22.3514 14.4328 22.7119 14.2296C22.2999 13.8738 21.8878 13.4164 21.4758 13.0099L21.4243 12.8574C19.6732 14.7886 18.5917 16.9738 18.2827 19.464C18.2312 19.8197 18.2827 20.1755 18.1797 20.582C18.7977 20.5312 19.4672 20.5312 20.0853 20.582Z" fill="#006BB6"/>
<path d="M36.6175 27.7983C36.463 28.1541 36.0509 28.3574 35.7934 28.6115C35.3814 29.018 34.7634 29.0688 34.5574 29.6787C34.3514 29.8819 34.2484 30.1869 33.9908 30.2885C33.8878 30.5934 33.5788 30.5426 33.3728 30.7459C32.8578 31.2033 32.5488 30.441 32.0853 30.3901L31.1582 30.5426C30.8492 30.5426 30.4887 30.6442 30.1797 30.5426C30.2312 31.1524 30.2312 31.8131 30.1797 32.4229L30.2827 32.3721C33.2183 32.2705 35.7934 31.1524 37.9565 29.1705L36.669 27.9508L36.6175 27.7983Z" fill="#006BB6"/>
<path d="M30.1296 10.9771C30.1296 10.9263 30.1296 10.8755 30.1811 10.8247C30.2841 10.7739 30.3356 10.8247 30.3871 10.9263C30.3871 11.028 30.4386 11.1804 30.3356 11.1804C30.3871 11.1804 30.4386 11.1296 30.4901 11.1296C31.8807 11.2312 33.1682 11.6378 34.3528 12.2984V12.2476C34.6103 12.146 34.9193 11.9935 35.1253 12.1968C35.4343 12.0952 35.4858 12.4509 35.6919 12.5017C36.0009 12.6542 36.3099 13.0099 36.3614 13.3148C36.4129 13.4165 36.5674 13.5181 36.6189 13.6198C36.8249 13.2132 37.1854 12.9083 37.5459 12.5525L37.7519 12.4509C35.8979 10.723 33.6833 9.75746 31.2627 9.40173C30.8507 9.35091 30.4386 9.35091 30.0781 9.24927C30.1811 9.80828 30.1811 10.4181 30.1296 10.9771Z" fill="#006BB6"/>
<path d="M30.1289 13.5688C30.3864 13.4671 30.5924 13.5688 30.8499 13.5688C32.0345 13.772 33.1675 14.1278 34.1461 14.8901C34.0431 14.7884 33.8886 14.636 33.8886 14.4327C33.8886 14.4327 33.9401 14.3819 33.9401 14.4327C33.9401 14.2294 33.7341 14.1278 33.7341 13.9753C33.7856 13.9245 33.7856 13.9245 33.8886 13.9245C34.0946 14.1278 34.2491 14.3311 34.4036 14.5343C34.5581 14.4835 34.6611 14.5852 34.7641 14.636C34.9186 14.7376 34.8156 14.9409 34.9701 15.0934C34.9701 15.4491 35.4336 15.6524 35.4336 16.0081C35.4336 16.1097 35.5366 16.0081 35.5881 16.0589L35.9487 16.5163C35.8972 16.6179 35.9487 16.7196 36.0002 16.7704C36.1547 16.8212 36.2577 16.6179 36.4122 16.6688C36.6697 16.8212 36.3607 16.9737 36.4122 17.1261C36.5152 17.1261 36.6182 17.0753 36.7212 17.1261C36.7727 17.2786 36.6182 17.3294 36.5667 17.4311C36.5667 17.5835 36.6697 17.5327 36.7727 17.5835C36.8757 17.5835 36.9272 17.736 36.9272 17.7868C37.2362 18.0917 36.8242 18.4475 36.9787 18.7524C37.0817 18.9557 36.9787 19.1589 36.8242 19.3622C36.8242 19.6163 36.5667 19.7688 36.5152 20.0229L36.0517 20.0737C35.8971 20.2261 36.2062 20.4294 36.0517 20.5311H36.7212L36.6697 20.4802C36.5667 20.2261 36.5667 19.8196 36.7212 19.6163C36.8242 19.413 36.8757 19.1589 37.0302 18.9557C37.0817 18.9557 37.1332 18.854 37.1847 18.9557C37.1847 19.1589 37.1847 19.413 37.0817 19.5655C37.2877 19.8196 37.2362 20.2261 37.2877 20.5311C37.9057 20.4802 38.4723 20.4802 39.0903 20.4802L39.0388 20.3786C38.9358 19.2606 38.7298 18.1934 38.2663 17.2278C38.1632 17.2278 38.0602 17.3294 37.9057 17.2786C37.8542 17.2786 37.8027 17.2278 37.8542 17.177C37.5967 16.9229 37.4422 16.6688 37.1847 16.4147C36.8757 16.4655 36.7212 16.1097 36.4637 16.0589C36.2062 15.9573 36.3607 15.5507 36.0002 15.6524C35.8456 15.6016 35.6396 15.4491 35.6396 15.2458C35.6396 14.9409 35.5881 14.5852 35.2791 14.3819C35.0731 14.2802 34.9701 14.5852 34.7641 14.5343C34.6611 14.4835 34.7126 14.3311 34.6611 14.2294C34.6096 14.1278 34.5066 14.077 34.5581 13.9753C34.8671 13.6196 34.1976 13.6196 34.3521 13.2638C34.3006 13.0097 34.0431 12.9081 33.8886 12.7048C32.9615 12.2983 31.983 11.9934 30.9014 11.8409C30.6439 11.7901 30.3864 11.8409 30.1804 11.7393L30.2319 11.8409C30.1289 12.4507 30.1804 13.0606 30.1289 13.5688Z" fill="#006BB6"/>
<path d="M36.8242 14.1787C36.9787 14.2296 36.9787 14.382 37.0817 14.4328C37.5452 14.6869 37.6483 15.1443 38.0603 15.3984C38.2663 15.8558 38.7813 16.2115 38.7813 16.7197C39.2963 17.8886 39.6568 19.1082 39.7083 20.4804L39.6568 20.582C39.7083 20.582 39.7598 20.582 39.8113 20.5312L41.5624 20.4804C41.4594 20.3279 41.5109 20.0738 41.4594 19.8705C41.2019 17.1771 40.0689 14.8902 38.2663 12.8574C37.9058 13.3148 37.4937 13.7214 37.0302 14.1279L36.8242 14.1787Z" fill="#006BB6"/>
<path d="M30.3866 10.6722C30.4381 10.5705 30.5926 10.6214 30.6441 10.6214L31.5196 10.2656C31.8801 10.3164 32.2406 10.3164 32.4982 10.6214V10.6722C32.2921 10.8755 31.9831 10.9771 31.7256 10.8755C31.3136 10.9771 30.7471 11.1804 30.4381 10.7738C30.3866 10.7738 30.3351 10.723 30.3866 10.6722Z" fill="white"/>
<path d="M35.6398 11.7902C35.7428 11.841 35.8973 11.8918 35.8973 11.9935C35.8458 12.1459 36.0518 12.2476 35.9488 12.3492C35.6398 12.4508 35.5883 12.0443 35.3308 11.9935C35.2793 11.9426 35.2793 11.8918 35.2793 11.841C35.3823 11.6885 35.4853 11.8918 35.6398 11.7902Z" fill="white"/>
</svg>
