<svg width="30" height="42" viewBox="0 0 30 42" fill="none" xmlns="http://www.w3.org/2000/svg">
<path d="M29 15C29 21 20.6 33.6 16.8 39.1C15.9 40.4 14 40.4 13.1 39.1C9.4 33.6 1 21 1 15C1 7.3 7.3 1 15 1C22.7 1 29 7.3 29 15Z" fill="white" stroke="black" stroke-width="2" stroke-miterlimit="10" stroke-linecap="round"/>
<path d="M15.0004 18.6C17.2648 18.6 19.1004 16.7644 19.1004 14.5C19.1004 12.2357 17.2648 10.4 15.0004 10.4C12.736 10.4 10.9004 12.2357 10.9004 14.5C10.9004 16.7644 12.736 18.6 15.0004 18.6Z" fill="white" stroke="black" stroke-width="2" stroke-miterlimit="10" stroke-linecap="round"/>
</svg>
