<svg width="186" height="51" viewBox="0 0 186 51" fill="none" xmlns="http://www.w3.org/2000/svg">
<path d="M119 11H185V50H1V11H67" stroke="black" stroke-width="2" stroke-miterlimit="10"/>
<path d="M78 10H68V21H78V10Z" stroke="black" stroke-width="2" stroke-miterlimit="10"/>
<path d="M88 6H78V21H88V6Z" stroke="black" stroke-width="2" stroke-miterlimit="10"/>
<path d="M108 21L118 21L118 10L108 10L108 21Z" stroke="black" stroke-width="2" stroke-miterlimit="10"/>
<path d="M98 21L108 21L108 6L98 6L98 21Z" stroke="black" stroke-width="2" stroke-miterlimit="10"/>
<path d="M98 1H88V21H98V1Z" stroke="black" stroke-width="2" stroke-miterlimit="10"/>
<path d="M1 21H185" stroke="black" stroke-width="2" stroke-miterlimit="10"/>
<path d="M16 24H8V34H16V24Z" stroke="black" stroke-width="2" stroke-miterlimit="10"/>
<path d="M68 21H64V37H68V21Z" stroke="black" stroke-width="2" stroke-miterlimit="10"/>
<path d="M8 21H4V37H8V21Z" stroke="black" stroke-width="2" stroke-miterlimit="10"/>
<path d="M24 21H16V37H24V21Z" stroke="black" stroke-width="2" stroke-miterlimit="10"/>
<path d="M40 21H32V37H40V21Z" stroke="black" stroke-width="2" stroke-miterlimit="10"/>
<path d="M56 21H48V37H56V21Z" stroke="black" stroke-width="2" stroke-miterlimit="10"/>
<path d="M0 41H185" stroke="black" stroke-width="2" stroke-miterlimit="10"/>
<path d="M12 23V34" stroke="black" stroke-width="2" stroke-miterlimit="10"/>
<path d="M32 24H24V34H32V24Z" stroke="black" stroke-width="2" stroke-miterlimit="10"/>
<path d="M28 23V34" stroke="black" stroke-width="2" stroke-miterlimit="10"/>
<path d="M48 24H40V34H48V24Z" stroke="black" stroke-width="2" stroke-miterlimit="10"/>
<path d="M44 23V34" stroke="black" stroke-width="2" stroke-miterlimit="10"/>
<path d="M64 24H56V34H64V24Z" stroke="black" stroke-width="2" stroke-miterlimit="10"/>
<path d="M60 23V34" stroke="black" stroke-width="2" stroke-miterlimit="10"/>
<path d="M130 24H122V34H130V24Z" stroke="black" stroke-width="2" stroke-miterlimit="10"/>
<path d="M126 23V34" stroke="black" stroke-width="2" stroke-miterlimit="10"/>
<path d="M146 24H138V34H146V24Z" stroke="black" stroke-width="2" stroke-miterlimit="10"/>
<path d="M142 23V34" stroke="black" stroke-width="2" stroke-miterlimit="10"/>
<path d="M162 24H154V34H162V24Z" stroke="black" stroke-width="2" stroke-miterlimit="10"/>
<path d="M158 23V34" stroke="black" stroke-width="2" stroke-miterlimit="10"/>
<path d="M178 24H170V34H178V24Z" stroke="black" stroke-width="2" stroke-miterlimit="10"/>
<path d="M174 23V34" stroke="black" stroke-width="2" stroke-miterlimit="10"/>
<path d="M118 37L122 37L122 21L118 21L118 37Z" stroke="black" stroke-width="2" stroke-miterlimit="10"/>
<path d="M178 37L182 37L182 21L178 21L178 37Z" stroke="black" stroke-width="2" stroke-miterlimit="10"/>
<path d="M162 37L170 37L170 21L162 21L162 37Z" stroke="black" stroke-width="2" stroke-miterlimit="10"/>
<path d="M146 37L154 37L154 21L146 21L146 37Z" stroke="black" stroke-width="2" stroke-miterlimit="10"/>
<path d="M130 37L138 37L138 21L130 21L130 37Z" stroke="black" stroke-width="2" stroke-miterlimit="10"/>
<path d="M98 24H88V41H98V24Z" stroke="black" stroke-width="2" stroke-miterlimit="10"/>
<path d="M88 28H98" stroke="black" stroke-width="2" stroke-miterlimit="10"/>
<path d="M93 41V29" stroke="black" stroke-width="2" stroke-miterlimit="10"/>
<path d="M67 37V41" stroke="black" stroke-width="2" stroke-miterlimit="10"/>
<path d="M119 37V41" stroke="black" stroke-width="2" stroke-miterlimit="10"/>
<path d="M71 21V41" stroke="black" stroke-width="2" stroke-miterlimit="10"/>
<path d="M115 21V41" stroke="black" stroke-width="2" stroke-miterlimit="10"/>
<path d="M119 41H67V44H119V41Z" stroke="black" stroke-width="2" stroke-miterlimit="10"/>
<path d="M121 44H65V47H121V44Z" stroke="black" stroke-width="2" stroke-miterlimit="10"/>
<path d="M123 47H63V50H123V47Z" stroke="black" stroke-width="2" stroke-miterlimit="10"/>
</svg>
