<svg width="36" height="36" viewBox="0 0 36 36" fill="none" xmlns="http://www.w3.org/2000/svg">
<path d="M36 0H0V36H36V0Z" fill="black"/>
<path d="M7.9 14.5H12.2V28.5H7.9V14.5ZM10 7.59998C11.4 7.59998 12.5 8.69998 12.5 10.1C12.5 11.5 11.4 12.6 10 12.6C8.6 12.6 7.5 11.5 7.5 10.1C7.5 8.69998 8.6 7.59998 10 7.59998Z" fill="white"/>
<path d="M14.8999 14.5H19.0999V16.4H19.1999C19.7999 15.3 21.1999 14.1 23.2999 14.1C27.6999 14.1 28.4999 17 28.4999 20.8V28.5H24.1999V21.7C24.1999 20.1 24.1999 18 21.8999 18C19.5999 18 19.2999 19.8 19.2999 21.6V28.5H14.9999V14.5H14.8999Z" fill="white"/>
</svg>
