<svg width="60" height="124" viewBox="0 0 60 124" fill="none" xmlns="http://www.w3.org/2000/svg">
<path d="M3.19313 103.062V108.195H2.62661V103.621H0.566524V108.195H0V103.062H3.19313Z" fill="black"/>
<path d="M4.53221 106.366C4.53221 107.179 4.94423 107.789 5.51075 107.789C6.07728 107.789 6.48929 107.179 6.48929 106.366C6.48929 105.756 6.23178 104.943 5.56225 104.943C4.84122 104.943 4.53221 105.654 4.53221 106.366ZM7.05582 106.315C7.05582 107.687 6.23178 108.297 5.45925 108.297C4.58371 108.297 3.91418 107.585 3.91418 106.416C3.91418 105.197 4.63521 104.485 5.51075 104.485C6.43779 104.434 7.05582 105.197 7.05582 106.315Z" fill="black"/>
<path d="M10.1974 104.485V108.195H9.6309V105.044H8.54936V106.01C8.54936 107.026 8.44635 107.738 8.03434 108.043C7.87983 108.195 7.67382 108.297 7.41631 108.297L7.36481 107.789C7.46781 107.789 7.62232 107.738 7.67382 107.636C7.98283 107.382 7.98283 106.874 7.98283 106.061V104.587H10.1974V104.485Z" fill="black"/>
<path d="M11.691 104.485V105.959H13.1845V104.485H13.751V108.195H13.1845V106.518H11.691V108.195H11.0729V104.485H11.691Z" fill="black"/>
<path d="M15.0386 106.366C15.0386 107.179 15.4506 107.789 16.0172 107.789C16.5837 107.789 16.9957 107.179 16.9957 106.366C16.9957 105.756 16.7382 104.943 16.0687 104.943C15.3476 104.943 15.0386 105.654 15.0386 106.366ZM17.5622 106.315C17.5622 107.687 16.7382 108.297 15.9657 108.297C15.0901 108.297 14.4206 107.585 14.4206 106.416C14.4206 105.197 15.1416 104.485 16.0172 104.485C16.9442 104.434 17.5622 105.197 17.5622 106.315Z" fill="black"/>
<path d="M20.9099 104.485V108.195H20.3433V104.994H18.8498V108.195H18.2833V104.485H20.9099Z" fill="black"/>
<path d="M22.4549 106.67C22.4549 106.772 22.4549 106.874 22.5064 106.925C22.6094 107.382 22.97 107.687 23.382 107.687C24 107.687 24.3605 107.128 24.3605 106.264C24.3605 105.552 24 104.892 23.4335 104.892C23.0215 104.892 22.6609 105.197 22.5579 105.705C22.5579 105.806 22.5064 105.908 22.5064 105.959V106.67H22.4549ZM21.8369 105.705C21.8369 105.247 21.8369 104.841 21.7854 104.485H22.3004L22.3519 105.095C22.5579 104.638 22.97 104.384 23.485 104.384C24.2575 104.384 24.824 105.146 24.824 106.264C24.824 107.585 24.103 108.246 23.382 108.246C22.97 108.246 22.6094 108.043 22.4034 107.687V109.669H21.8369V105.705Z" fill="black"/>
<path d="M27.2961 106.315C26.6781 106.315 25.9571 106.416 25.9571 107.128C25.9571 107.585 26.2146 107.788 26.4721 107.788C26.8841 107.788 27.1416 107.484 27.2446 107.179C27.2446 107.128 27.2961 107.026 27.2961 106.975V106.315ZM27.8112 107.28C27.8112 107.585 27.8112 107.89 27.8627 108.144H27.3476L27.2961 107.738C27.1416 108.043 26.7811 108.297 26.3176 108.297C25.6481 108.297 25.3391 107.788 25.3391 107.229C25.3391 106.315 26.0086 105.857 27.2446 105.857V105.806C27.2446 105.502 27.1931 104.943 26.5236 104.943C26.2146 104.943 25.9056 105.044 25.6996 105.197L25.5451 104.739C25.8026 104.536 26.2146 104.434 26.5751 104.434C27.5536 104.434 27.7597 105.197 27.7597 105.959V107.28H27.8112Z" fill="black"/>
<path d="M29.3047 106.061H29.7168C30.1288 106.061 30.5923 105.908 30.5923 105.451C30.5923 105.095 30.3348 104.892 29.7168 104.892C29.5108 104.892 29.4077 104.892 29.2532 104.943V106.061H29.3047ZM29.3047 107.738C29.4593 107.738 29.5623 107.738 29.7683 107.738C30.1803 107.738 30.7468 107.636 30.7468 107.077C30.7468 106.569 30.2833 106.416 29.7168 106.416H29.3047V107.738ZM28.7382 104.536C28.9442 104.485 29.4077 104.434 29.7683 104.434C30.2833 104.434 31.2103 104.536 31.2103 105.349C31.2103 105.806 30.9013 106.111 30.5408 106.162C31.0043 106.264 31.3648 106.518 31.3648 107.077C31.3648 108.043 30.3348 108.144 29.6653 108.144C29.3047 108.144 28.9442 108.093 28.7897 108.093V104.536H28.7382Z" fill="black"/>
<path d="M32.6009 104.485V105.959H34.0944V104.485H34.661V108.195H34.0944V106.518H32.6009V108.195H32.0344V104.485H32.6009Z" fill="black"/>
<path d="M39.0387 104.485V108.195H38.4721V104.485H39.0387ZM36.206 107.687C36.309 107.687 36.4635 107.738 36.6181 107.738C37.0816 107.738 37.5451 107.535 37.5451 106.976C37.5451 106.366 37.0816 106.213 36.6696 106.213C36.5151 106.213 36.3605 106.213 36.2575 106.264V107.687H36.206ZM36.206 104.485V105.756C36.309 105.756 36.5151 105.705 36.7211 105.705C37.3906 105.705 38.1116 106.01 38.1116 106.925C38.1116 107.331 37.9571 107.585 37.7511 107.789C37.3906 108.144 36.8756 108.195 36.4636 108.195C36.1545 108.195 35.8455 108.195 35.588 108.144V104.485H36.206Z" fill="black"/>
<path d="M42.0257 105.959C42.0257 105.552 41.8712 104.892 41.2017 104.892C40.6352 104.892 40.3777 105.502 40.3262 105.959H42.0257ZM40.3262 106.467C40.3262 107.382 40.8412 107.738 41.4077 107.738C41.8197 107.738 42.0772 107.636 42.2832 107.534L42.3863 107.992C42.1802 108.093 41.8197 108.246 41.3047 108.246C40.3262 108.246 39.7596 107.484 39.7596 106.366C39.7596 105.247 40.3262 104.384 41.2532 104.384C42.2832 104.384 42.5923 105.451 42.5923 106.111C42.5923 106.264 42.5923 106.366 42.5923 106.416H40.3262V106.467Z" fill="black"/>
<path d="M46.8669 104.485V108.195H46.3004V105.044H45.2189V106.01C45.2189 107.026 45.1158 107.738 44.7038 108.043C44.5493 108.195 44.3433 108.297 44.0858 108.297L44.0343 107.789C44.1373 107.789 44.2918 107.738 44.3433 107.636C44.6523 107.382 44.6523 106.874 44.6523 106.061V104.587H46.8669V104.485Z" fill="black"/>
<path d="M51.1416 106.315C51.1416 105.654 50.8841 104.892 50.3176 104.892C49.7511 104.892 49.4421 105.603 49.4421 106.315C49.4421 107.026 49.6996 107.738 50.2661 107.738C50.8841 107.788 51.1416 107.026 51.1416 106.315ZM48.3605 104.485V106.061H48.9271C49.0301 105.095 49.5966 104.434 50.3176 104.434C51.1416 104.434 51.7082 105.197 51.7082 106.315C51.7082 107.534 51.0901 108.297 50.2661 108.297C49.4936 108.297 48.9271 107.636 48.8756 106.569H48.3605V108.195H47.794V104.485H48.3605Z" fill="black"/>
<path d="M53.3048 105.603C53.3048 106.112 53.2532 106.569 53.1502 106.976C53.0987 107.23 52.9957 107.433 52.8927 107.687H54.3348V104.994H53.3048V105.603ZM54.9013 104.485V107.687H55.2103L55.1588 109.364H54.6953L54.6438 108.195H52.5322L52.4807 109.364H52.0172L51.9657 107.687H52.2232C52.3777 107.433 52.4807 107.179 52.5322 106.925C52.6352 106.467 52.7382 105.959 52.7382 105.451V104.485H54.9013Z" fill="black"/>
<path d="M56.4463 104.485V106.061C56.4463 106.62 56.4463 107.026 56.3948 107.535C56.6009 107.077 56.7039 106.823 56.9099 106.416L57.8884 104.485H58.5579V108.195H57.9914V106.62C57.9914 106.01 57.9914 105.705 58.0429 105.095C57.8369 105.553 57.6824 105.857 57.5279 106.264C57.2189 106.823 56.8584 107.535 56.5494 108.195H55.8798V104.485H56.4463Z" fill="black"/>
<path d="M59.588 108.246C59.382 108.246 59.2275 108.043 59.2275 107.788C59.2275 107.484 59.382 107.28 59.6395 107.28C59.8455 107.28 60 107.484 60 107.738C60 108.043 59.8455 108.246 59.588 108.246Z" fill="black"/>
<path d="M2.57512 112.21L3.45065 114.395C3.55366 114.7 3.65666 115.005 3.75967 115.31C3.86267 115.056 3.91417 114.751 4.01718 114.395L4.73821 112.21H5.35623L4.4292 114.852C4.17168 115.564 3.91417 116.326 3.60516 116.784C3.34765 117.19 2.98714 117.393 2.62662 117.393C2.47211 117.393 2.36911 117.393 2.31761 117.343L2.36911 116.784C2.42061 116.784 2.47211 116.784 2.57512 116.784C3.03864 116.784 3.29615 116.275 3.45065 115.92C3.50216 115.818 3.50216 115.716 3.45065 115.615L1.95709 112.159H2.57512V112.21Z" fill="black"/>
<path d="M8.08586 117.19C7.93135 117.292 7.62234 117.394 7.15882 117.394C6.18028 117.394 5.56226 116.631 5.56226 115.513C5.56226 114.395 6.23178 113.531 7.26183 113.531C7.62234 113.531 7.93135 113.633 8.08586 113.735L7.93135 114.243C7.77685 114.141 7.57084 114.09 7.26183 114.09C6.5408 114.09 6.12878 114.7 6.12878 115.462C6.12878 116.326 6.5923 116.835 7.21032 116.835C7.51934 116.835 7.77685 116.733 7.93135 116.682L8.08586 117.19Z" fill="black"/>
<path d="M10.9184 113.633V114.141H9.88839V117.343H9.32186V114.141H8.34332V113.633H10.9184Z" fill="black"/>
<path d="M11.794 115.513C11.794 116.326 12.206 116.936 12.7725 116.936C13.3391 116.936 13.7511 116.326 13.7511 115.513C13.7511 114.903 13.4936 114.09 12.7725 114.09C12.103 114.09 11.794 114.802 11.794 115.513ZM14.3176 115.462C14.3176 116.834 13.4936 117.444 12.721 117.444C11.8455 117.444 11.176 116.733 11.176 115.564C11.176 114.344 11.897 113.633 12.7725 113.633C13.6996 113.582 14.3176 114.344 14.3176 115.462Z" fill="black"/>
<path d="M15.9657 112.159C15.9657 112.464 16.1202 112.718 16.3777 112.718C16.6352 112.718 16.7897 112.464 16.8412 112.159H17.2532C17.2017 112.769 16.8927 113.125 16.3777 113.125C15.8112 113.125 15.5537 112.718 15.5537 112.159H15.9657ZM15.6052 113.633V115.208C15.6052 115.767 15.6052 116.174 15.5537 116.682C15.7597 116.225 15.8627 115.97 16.0687 115.564L17.0472 113.633H17.7167V117.343H17.1502V115.767C17.1502 115.157 17.1502 114.852 17.2017 114.243C16.9957 114.7 16.8412 115.005 16.6867 115.411C16.3777 115.97 16.0172 116.682 15.7082 117.343H15.0386V113.633H15.6052Z" fill="black"/>
<path d="M19.2103 113.633V114.853C19.2103 115.31 19.3648 115.615 19.8798 115.615C20.1374 115.615 20.3949 115.513 20.5494 115.361V113.582H21.1159V117.292H20.5494V115.869C20.3434 116.021 19.9829 116.123 19.6738 116.123C19.0558 116.123 18.6438 115.767 18.6438 114.903V113.582H19.2103V113.633Z" fill="black"/>
<path d="M22.6094 113.633V115.208C22.6094 115.767 22.6094 116.174 22.5579 116.682C22.7639 116.225 22.867 115.971 23.073 115.564L24.0515 113.633H24.721V117.343H24.206V115.767C24.206 115.157 24.206 114.852 24.2575 114.243C24.0515 114.7 23.897 115.005 23.7425 115.412C23.4335 115.971 23.073 116.682 22.7639 117.343H22.0944V113.633H22.6094Z" fill="black"/>
<path d="M26.2661 115.208H26.6781C27.0901 115.208 27.5537 115.056 27.5537 114.598C27.5537 114.243 27.2962 114.039 26.6781 114.039C26.4721 114.039 26.3691 114.039 26.2146 114.09V115.208H26.2661ZM26.2661 116.885C26.4206 116.885 26.5236 116.885 26.7296 116.885C27.1416 116.885 27.7082 116.784 27.7082 116.225C27.7082 115.716 27.2446 115.564 26.6781 115.564H26.2661V116.885ZM25.6996 113.684C25.9056 113.633 26.3691 113.582 26.7296 113.582C27.2447 113.582 28.1717 113.684 28.1717 114.497C28.1717 114.954 27.8627 115.259 27.5022 115.31C27.9657 115.412 28.3262 115.666 28.3262 116.225C28.3262 117.19 27.2962 117.292 26.6266 117.292C26.2661 117.292 25.9056 117.241 25.7511 117.241V113.684H25.6996Z" fill="black"/>
<path d="M32.4464 113.633V117.343H31.8798V113.633H32.4464ZM29.5622 116.834C29.6652 116.834 29.8197 116.885 29.9743 116.885C30.4378 116.885 30.9013 116.682 30.9013 116.123C30.9013 115.513 30.4378 115.361 30.0258 115.361C29.8713 115.361 29.7167 115.361 29.6137 115.412V116.834H29.5622ZM29.5622 113.633V114.903C29.6652 114.903 29.8713 114.852 30.0773 114.852C30.7468 114.852 31.4678 115.157 31.4678 116.072C31.4678 116.479 31.3133 116.733 31.1073 116.936C30.7468 117.292 30.2318 117.343 29.8197 117.343C29.5107 117.343 29.2017 117.343 28.9442 117.292V113.633H29.5622Z" fill="black"/>
<path d="M35.382 115.107C35.382 114.7 35.2275 114.039 34.558 114.039C33.9914 114.039 33.7339 114.649 33.6824 115.107H35.382ZM33.6824 115.615C33.6824 116.53 34.1974 116.885 34.764 116.885C35.176 116.885 35.4335 116.784 35.6395 116.682L35.7425 117.139C35.5365 117.241 35.176 117.394 34.661 117.394C33.6824 117.394 33.1159 116.631 33.1159 115.513C33.1159 114.395 33.6824 113.531 34.6095 113.531C35.6395 113.531 35.9485 114.598 35.9485 115.259C35.9485 115.412 35.9485 115.513 35.9485 115.564H33.6824V115.615Z" fill="black"/>
<path d="M40.1202 117.19C39.9657 117.292 39.6566 117.394 39.1931 117.394C38.2146 117.394 37.5966 116.631 37.5966 115.513C37.5966 114.395 38.2661 113.531 39.2961 113.531C39.6566 113.531 39.9657 113.633 40.1202 113.735L39.9657 114.243C39.8111 114.141 39.6051 114.09 39.2961 114.09C38.5751 114.09 38.1631 114.7 38.1631 115.462C38.1631 116.326 38.6266 116.835 39.2446 116.835C39.5536 116.835 39.8111 116.733 39.9657 116.682L40.1202 117.19Z" fill="black"/>
<path d="M42.9528 113.633V114.141H41.9743V117.343H41.3562V114.141H40.3777V113.633H42.9528Z" fill="black"/>
<path d="M44.0858 115.818C44.0858 115.92 44.0858 116.021 44.1373 116.072C44.2404 116.53 44.6009 116.835 45.0129 116.835C45.6309 116.835 45.9914 116.276 45.9914 115.412C45.9914 114.7 45.6309 114.039 45.0644 114.039C44.6524 114.039 44.2919 114.344 44.1889 114.853C44.1889 114.954 44.1373 115.056 44.1373 115.107V115.818H44.0858ZM43.4678 114.853C43.4678 114.395 43.4678 113.989 43.4163 113.633H43.9313L43.9828 114.243C44.1889 113.785 44.6009 113.531 45.1159 113.531C45.8884 113.531 46.4549 114.294 46.4549 115.412C46.4549 116.733 45.7339 117.394 45.0129 117.394C44.6009 117.394 44.2404 117.19 44.0343 116.835V118.817H43.4678V114.853Z" fill="black"/>
<path d="M48.9271 115.462C48.309 115.462 47.588 115.564 47.588 116.275C47.588 116.733 47.8455 116.936 48.103 116.936C48.515 116.936 48.7726 116.631 48.8756 116.326C48.8756 116.275 48.9271 116.174 48.9271 116.123V115.462ZM49.4421 116.428C49.4421 116.733 49.4421 117.038 49.4936 117.292H48.9786L48.9271 116.885C48.7725 117.19 48.412 117.444 47.9485 117.444C47.279 117.444 46.97 116.936 46.97 116.377C46.97 115.462 47.6395 115.005 48.8756 115.005V114.954C48.8756 114.649 48.8241 114.09 48.1545 114.09C47.8455 114.09 47.5365 114.192 47.3305 114.344L47.176 113.887C47.4335 113.684 47.8455 113.582 48.206 113.582C49.1846 113.582 49.3906 114.344 49.3906 115.107V116.428H49.4421Z" fill="black"/>
<path d="M50.9356 113.633V115.107H52.4807V113.633H53.0472V117.343H52.4807V115.666H50.9356V117.343H50.3691V113.633H50.9356Z" fill="black"/>
<path d="M57.4249 113.633V117.343H56.8584V113.633H57.4249ZM54.5408 116.834C54.6438 116.834 54.7983 116.885 54.9528 116.885C55.4163 116.885 55.8798 116.682 55.8798 116.123C55.8798 115.513 55.4163 115.361 55.0043 115.361C54.8498 115.361 54.6953 115.361 54.5923 115.412V116.834H54.5408ZM54.5408 113.633V114.903C54.6438 114.903 54.8498 114.852 55.0558 114.852C55.7253 114.852 56.4463 115.157 56.4463 116.072C56.4463 116.479 56.2918 116.733 56.0858 116.936C55.7253 117.292 55.2103 117.343 54.7983 117.343C54.4893 117.343 54.1802 117.343 53.9227 117.292V113.633H54.5408Z" fill="black"/>
<path d="M58.3519 117.393C58.1459 117.393 57.9914 117.19 57.9914 116.936C57.9914 116.631 58.1459 116.428 58.4034 116.428C58.6094 116.428 58.7639 116.631 58.7639 116.885C58.7639 117.19 58.6094 117.393 58.3519 117.393Z" fill="black"/>
<path d="M29.1502 68.6575H6.90131V46.7034H29.1502V68.6575Z" fill="#006BB6"/>
<path d="M12.5665 50.3115V58.9509C12.5665 63.5246 14.8841 65.2017 17.9228 65.2017C21.1159 65.2017 23.5365 63.3722 23.5365 58.8492V50.3115H21.5794V59.0017C21.5794 62.2541 20.1373 63.6771 17.9743 63.6771C15.9657 63.6771 14.5236 62.305 14.5236 59.0017V50.3115H12.5665Z" fill="white"/>
<path d="M52.7897 68.6575H30.5408V46.7034H52.7897V68.6575Z" fill="#006BB6"/>
<path d="M37.9056 64.9984V58.7476C37.9056 56.3082 37.9056 54.5296 37.7511 52.7H37.8026C38.5236 54.2755 39.5021 55.9525 40.5837 57.5787L45.3219 64.9984H47.279V50.3623H45.4764V56.5115C45.4764 58.7984 45.5279 60.5771 45.6824 62.5083H45.6309C44.9614 60.9837 44.0858 59.4591 43.0043 57.7312L38.2661 50.3115H36.1545V64.9984H37.9056Z" fill="white"/>
<path d="M52.7897 91.9836H30.5408V70.0295H52.7897V91.9836Z" fill="#006BB6"/>
<path d="M45.4249 74.705C44.5493 73.9427 43.1588 73.4854 41.2532 73.4854C39.7081 73.4854 38.4721 73.6378 37.5966 73.7903V88.2739H39.5021V82.3788C39.9657 82.4804 40.4807 82.5312 41.0472 82.5312C42.9013 82.5312 44.5493 81.9722 45.5794 80.905C46.3519 80.1427 46.7639 79.0755 46.7639 77.7542C46.7639 76.4837 46.2489 75.4165 45.4249 74.705Z" fill="white"/>
<path d="M41.0987 81.1083C40.4807 81.1083 39.9142 81.0575 39.5021 80.9558V75.264C39.8111 75.2132 40.4807 75.1116 41.3047 75.1116C43.4163 75.1116 44.8069 76.0263 44.8069 78.0083C44.8069 79.9903 43.4163 81.1083 41.0987 81.1083Z" fill="#006BB6"/>
<path d="M29.1502 91.9836H6.90131V70.0295H29.1502V91.9836Z" fill="#006BB6"/>
<path d="M22.5065 75.3149C21.2189 74.0952 19.2618 73.4854 16.4807 73.4854C14.9356 73.4854 13.5966 73.6378 12.3605 73.7903V88.223C13.3391 88.3755 14.4721 88.3755 15.8627 88.3755C18.7468 88.3755 21.0644 87.664 22.455 86.2919C23.794 84.9198 24.5665 82.9886 24.5665 80.6001C24.618 78.2116 23.897 76.4837 22.5065 75.3149Z" fill="white"/>
<path d="M16.2747 86.8508C15.5022 86.8508 14.8326 86.8508 14.3176 86.7491V75.1623C14.8326 75.0606 15.5537 74.959 16.5837 74.959C20.6524 74.959 22.6095 77.0934 22.6095 80.6C22.6095 84.6147 20.3949 86.9016 16.2747 86.8508Z" fill="#006BB6"/>
<path d="M6.90131 45.3311H52.7897V0H6.90131V45.3311Z" fill="#006BB6"/>
<path d="M46.3004 23.5803C45.6824 24.495 44.8584 25.3081 44.2918 26.2229C44.3433 25.5114 44.4463 24.5967 44.1373 23.936C43.6223 22.4622 43.2103 20.9376 43.0558 19.3114V18.7016C43.4163 20.3786 45.0644 21.4967 44.9614 23.377C45.0129 23.8344 44.8584 24.1901 44.7554 24.5967L44.8069 24.6475L44.8584 24.5458C45.1159 23.6311 45.2189 22.6655 45.5794 21.8016C46.1459 20.5819 46.8154 19.3622 46.5064 17.8376C47.4335 19.6163 47.176 21.954 46.3004 23.5803Z" fill="white"/>
<path d="M45.2704 14.1788C46.3519 15.6525 46.6094 17.9394 45.7854 19.6165C45.4764 20.3279 45.2704 21.0902 45.1674 21.8525C45.1159 21.7001 45.1159 21.5476 45.0644 21.3952C44.6524 19.7689 43.0558 18.6001 42.4378 17.0755C42.2318 16.5673 42.0772 16.0591 41.9742 15.5001C42.6438 16.7706 44.3433 17.3804 44.8069 18.7525C45.0129 19.1083 44.9614 19.5148 45.1159 19.9214C45.1674 19.9214 45.1674 19.9214 45.1674 19.8706C44.9614 18.4476 45.0129 16.9738 45.2189 15.5509C45.2189 14.7886 45.1159 14.0771 44.7039 13.4673C44.9614 13.6706 45.0644 13.9755 45.2704 14.1788Z" fill="white"/>
<path d="M44.4979 13.9246C44.8069 15.1951 44.3949 16.4148 44.6524 17.6853C43.9314 16.3131 42.4893 15.7033 41.4593 14.5853C40.8412 13.9246 40.5837 13.1623 40.4807 12.2984C41.0472 13.6705 42.6438 14.0262 43.5708 15.1951C43.8799 15.4492 43.9829 15.8558 44.1889 16.1607L44.2404 16.1098C43.7253 14.9918 43.5193 13.7721 43.2103 12.6033C43.0043 12.0951 42.6438 11.5869 42.1803 11.282C43.2103 11.5869 44.2404 12.8066 44.4979 13.9246Z" fill="white"/>
<path d="M41.3047 11.028C42.1802 11.8411 42.5923 12.8575 42.8498 13.9247L43.0043 14.2805C41.7167 13.3657 40.5322 12.0952 39.7081 10.8247L38.6781 9.80835C39.6051 10.1133 40.5837 10.3165 41.3047 11.028Z" fill="white"/>
<path d="M24.309 10.0115C26.0086 9.19838 27.8626 8.74101 29.8712 8.69019C34.5064 8.69019 38.8841 11.3836 40.8927 15.6017C42.1802 18.041 42.5408 21.3443 41.7167 24.0885C40.8927 27.341 38.1116 30.5935 34.9184 31.9148C31.3133 33.6426 26.1631 33.2361 22.9699 30.9492C18.4893 27.9508 16.6867 22.7164 18.0257 17.5836C18.7983 14.5344 21.2704 11.4344 24.309 10.0115Z" fill="white"/>
<path d="M20.7554 9.90991C19.8799 10.6722 19.2103 11.6886 18.5408 12.6034C17.9228 13.3148 17.2017 13.823 16.4807 14.4329C16.8412 13.6706 16.8412 12.8066 17.4078 12.0952C18.1803 10.8247 19.5193 10.3673 20.7554 9.90991Z" fill="white"/>
<path d="M15.8627 12.6033C16.2747 12.0443 16.8412 11.6886 17.4592 11.5361C16.2747 12.3492 16.3262 13.823 15.9657 15.0427C15.8627 15.5001 15.6052 15.9066 15.5022 16.364H15.5537C15.7597 15.8558 16.1202 15.3476 16.5322 14.8902C17.4077 14.1279 18.6953 13.6197 19.1073 12.4509C19.1073 14.0771 17.7168 15.3476 16.4292 16.2624C15.8627 16.7197 15.3477 17.2788 15.0901 17.8378C15.0386 17.4312 15.1417 17.0247 15.1417 16.5673C14.9356 15.246 14.8326 13.6706 15.8627 12.6033Z" fill="white"/>
<path d="M13.3905 17.431C13.339 16.0081 13.957 14.8392 14.7811 13.772L14.8326 13.7212C13.9055 15.0933 14.6781 16.872 14.6266 18.4474L14.5236 20.0737C14.5236 20.0737 14.5236 20.1245 14.5751 20.1245C14.6266 19.9212 14.6266 19.7687 14.6781 19.5655C14.8841 18.2441 16.0686 17.3294 17.0472 16.4146C17.2532 16.1605 17.4592 15.9573 17.5622 15.6523C17.4592 16.313 17.2532 16.9736 16.9957 17.5835C16.2231 19.1081 14.7811 20.3277 14.5236 22.0556C14.4206 20.4294 13.2875 19.1589 13.3905 17.431Z" fill="white"/>
<path d="M12.6695 19.4639C12.7725 19.0065 12.8755 18.5491 13.03 18.1426C12.6695 20.0229 13.9571 21.395 14.3691 23.0213C14.5236 23.6311 14.5751 24.2918 14.8326 24.8508C14.8326 24.8508 14.8841 24.8508 14.8841 24.8C14.2661 23.0721 15.1416 21.4459 16.0687 20.0737C16.2747 19.718 16.4292 19.3114 16.5322 18.8541C16.6352 19.6163 16.4292 20.5311 16.3262 21.3442C16.1202 22.3606 15.7597 23.377 15.5022 24.3934C15.2961 25.0032 15.3476 25.7147 15.4506 26.3754L15.3476 26.3245C14.6781 25.1049 13.3391 24.1393 12.9785 22.818C12.6695 21.8524 12.4635 20.5819 12.6695 19.4639Z" fill="white"/>
<path d="M12.6181 23.123C12.7726 25.105 14.9357 26.1722 15.9657 27.8492C16.2232 28.205 16.4292 28.5607 16.7382 28.8656C16.6867 28.6623 16.4807 28.4591 16.4292 28.2558C16.0687 27.5443 15.9657 26.7312 16.0172 25.9181C16.1202 24.9017 16.5322 23.9361 16.3777 22.8689C17.2532 24.7492 16.9957 27.1377 17.5108 29.1705C17.6138 29.6279 17.9228 30.0345 18.0773 30.441C16.2747 29.2214 13.7511 28.0525 12.9786 25.8164C12.5666 25.0033 12.5666 24.0377 12.6181 23.123Z" fill="white"/>
<path d="M13.6996 27.7474C14.7296 30.0343 17.2532 30.1868 18.9528 31.6097C19.2618 31.8638 19.6223 32.1179 19.9313 32.2704C19.5193 31.9147 19.1073 31.5081 18.7983 31.0507C17.8198 29.6786 18.1288 27.7475 17.4077 26.2737C18.0773 27.0868 18.6953 27.8999 19.1073 28.8147C19.7253 30.2884 19.9313 31.9655 21.3734 33.0835C19.8283 32.5753 18.0258 32.7278 16.6867 31.813C15.2962 30.8983 14.0086 29.3737 13.6996 27.7474Z" fill="white"/>
<path d="M16.3262 31.9655C17.9742 33.795 20.6009 33.1851 22.7639 33.6425C23.073 33.6933 23.3305 33.795 23.691 33.7442C23.4335 33.5917 23.073 33.5917 22.7639 33.4392C21.0644 32.8294 20.8069 31.0507 19.8798 29.8311C21.0644 30.5933 22.0429 31.6606 23.1245 32.677C23.897 33.3376 24.824 33.6425 25.8541 33.8458C25.5966 33.9474 25.2875 33.8966 25.03 33.9474C23.2275 34.4048 21.2704 35.0655 19.3648 34.4556C18.2318 34.0999 16.9442 33.1343 16.3262 31.9655Z" fill="white"/>
<path d="M38.4206 36.2344C36.5665 36.895 34.661 36.1835 33.2189 35.1163C32.6524 34.7606 32.1374 34.2524 31.3648 34.2524C31.1073 34.2524 30.8498 34.2524 30.5923 34.3032C31.9829 34.9639 33.2704 35.8278 34.455 36.9458C34.249 37.1491 33.9914 37.4032 33.7339 37.5557C32.6009 36.336 31.3133 35.1672 29.9228 34.5065C29.6653 34.5573 29.4077 34.7098 29.1502 34.8622C28.0172 35.5737 26.8841 36.4885 26.0086 37.6573L25.2876 37.0475C26.4721 35.8786 27.7597 34.9639 29.2017 34.3032C27.8112 33.8458 26.8841 35.0147 25.8541 35.6245C24.6181 36.4885 22.867 36.895 21.3734 36.2852C20.5494 35.9803 19.7769 35.5229 19.2103 34.8114C20.3949 35.6245 22.1459 35.6753 23.485 35.1671C25.2876 34.4049 27.1417 33.4393 29.3047 33.8967C29.6653 33.8967 29.9743 34.2524 30.2833 33.9475C31.8799 33.5409 33.6824 33.8458 35.073 34.5573L36.515 35.1163C37.8541 35.6245 39.5537 35.4721 40.6867 34.659C40.0687 35.4212 39.2447 35.9294 38.4206 36.2344Z" fill="white"/>
<path d="M40.4292 34.3541C38.3691 35.1164 36.309 34.2017 34.3005 33.8459L33.9399 33.7951C34.867 33.5918 35.794 33.2869 36.5666 32.6263C37.6481 31.559 38.6781 30.4918 39.9142 29.6787C38.9872 30.8476 38.8841 32.4738 37.3906 33.2361C37.0301 33.4902 36.5665 33.541 36.1545 33.6935C36.7211 33.6935 37.1846 33.4902 37.7511 33.4394C39.7597 33.1345 42.0773 33.4394 43.5193 31.7623C42.9013 32.9312 41.6138 33.9476 40.4292 34.3541Z" fill="white"/>
<path d="M41.5622 32.2706C40.5322 32.5247 39.3991 32.6263 38.3691 32.982C40.1202 31.5083 40.0171 29.2214 41.1502 27.5443C41.5107 27.0361 41.8197 26.5279 42.2317 26.0706C41.5107 27.4427 41.8197 29.2722 41.0472 30.6443C40.7382 31.2033 40.2747 31.7115 39.8111 32.1181C39.9656 32.1181 40.1202 31.9656 40.2747 31.864C41.6137 30.5935 43.3133 30.1869 44.7038 29.1706C45.2704 28.7132 45.7854 28.1542 46.0429 27.4935C45.7339 29.6279 43.5708 31.6099 41.5622 32.2706Z" fill="white"/>
<path d="M44.1373 28.6114C43.3133 29.1196 42.4893 29.6278 41.7167 30.2377V30.1868C42.9013 28.2049 42.3348 25.5114 43.0558 23.377L43.3133 22.6655C43.2103 23.936 43.7768 25.1049 43.7768 26.4262C43.7253 27.2393 43.4678 27.9508 43.0043 28.6114H43.0558C43.6223 27.8491 44.0858 27.036 44.8069 26.3245C45.8884 25.3082 46.97 24.2918 47.073 22.8688C47.485 25.2573 46.1459 27.2901 44.1373 28.6114Z" fill="white"/>
<path d="M34.97 28.459L35.073 28.3574C35.4335 28.0524 35.8455 27.7983 36.1545 27.4426H36.206C36.1545 27.4426 36.0515 27.4934 35.9485 27.4426C35.794 27.341 35.7425 27.1885 35.7425 27.0361L34.97 26.2738L34.9185 26.1721C34.867 26.3246 34.764 26.4262 34.661 26.5279C34.661 26.6295 34.6094 26.782 34.764 26.8328C35.0215 26.9344 35.3305 27.0869 35.382 27.341C35.279 27.5951 34.764 27.8492 35.073 28.1541C35.176 28.3065 34.9185 28.3574 34.97 28.459Z" fill="#006BB6"/>
<path d="M30.5923 18.6508C30.7468 18.7524 30.7983 18.6 30.9528 18.5491C31.1073 18.5491 31.2618 18.7016 31.3648 18.8032C31.4678 18.8541 31.5708 18.8032 31.6738 18.7524C31.7253 18.2442 32.3948 18.3459 32.5493 17.8377L32.4463 17.8885C32.3948 17.8377 32.2918 17.8377 32.2918 17.736C32.3948 17.6344 32.5493 17.4819 32.6523 17.4311C32.0858 17.0754 31.5193 16.8213 30.9013 16.6688C30.6438 16.618 30.3862 16.618 30.1802 16.5164C30.2832 16.8721 30.1802 17.3803 30.2832 17.7869L30.6953 17.9393C30.8498 17.736 31.1073 17.6852 31.2103 17.4819C31.3133 17.4311 31.3648 17.4819 31.4678 17.5328C31.4678 17.6852 31.4678 17.8377 31.4163 17.9901C31.2103 18.3967 30.7983 18.4475 30.5923 18.6508Z" fill="#006BB6"/>
<path d="M37.0816 22.7163C36.8241 23.5294 36.5151 24.2917 36 25.0032C35.794 25.2573 35.588 25.613 35.3305 25.7147L35.897 26.2229C35.9485 26.1721 35.897 26.1212 35.897 26.1212C35.897 26.0704 35.9485 25.9688 36 25.9688C36.2575 25.9688 36.2575 26.2229 36.412 26.3753C36.3605 26.6294 36.5666 26.7819 36.5151 26.9852C38.0601 25.3589 38.8327 23.4278 38.9872 21.2425L39.0902 21.1409C38.5236 21.1917 37.9571 21.1409 37.3906 21.1409L37.2361 21.0901C37.2876 21.4458 37.1846 21.8016 37.1331 22.1573L37.3391 22.3606C37.3906 22.4622 37.3906 22.5639 37.2876 22.6147C37.2876 22.818 37.1846 22.7671 37.0816 22.7163Z" fill="#006BB6"/>
<path d="M35.6395 17.3802C35.4335 16.9736 35.1245 16.6687 34.8155 16.313L34.764 16.3638C34.1974 16.9228 33.5794 17.5327 33.0644 18.1425C33.1159 18.1933 33.1674 18.295 33.2189 18.295C33.2189 18.1425 33.3219 18.0409 33.3219 17.8884C33.4764 17.6851 33.6824 17.8376 33.8884 17.8376C34.1974 17.7868 34.455 17.8884 34.764 17.8884C34.97 17.99 35.0215 18.295 35.2275 18.3966C35.279 18.4982 35.2275 18.5491 35.176 18.6507C35.2275 19.1081 35.4335 18.5491 35.691 18.6507C35.794 18.7015 35.897 18.6507 36 18.7523C36.0515 18.9556 36.2575 18.9048 36.2575 19.1081C36.2575 19.2097 36.1545 19.2097 36.103 19.2605C36.1545 19.4638 35.897 19.5654 36 19.7687C36.3605 19.8195 36.3605 19.413 36.515 19.2605C36.412 18.9556 36.3605 18.6507 36.1545 18.3458C35.9485 18.295 35.8455 18.0917 35.6395 18.0409C35.2275 17.8376 35.691 17.6343 35.6395 17.3802Z" fill="#006BB6"/>
<path d="M30.1802 29.9837C30.6437 29.8312 31.1588 29.8821 31.6738 29.7804C31.5708 29.7296 31.4678 29.7296 31.4163 29.628C31.1073 29.628 31.0043 29.323 30.9013 29.0689C30.8498 28.9165 30.9528 28.764 31.0558 28.6116C30.9528 28.3575 30.5407 28.5607 30.3347 28.4591C30.2832 28.4083 30.2317 28.3575 30.1287 28.3066L30.2317 28.4591C30.1802 28.9673 30.2317 29.4755 30.1802 29.9837Z" fill="#006BB6"/>
<path d="M30.5408 25.2575C30.6953 25.3083 30.5923 25.4608 30.6953 25.5116C30.9528 25.4099 31.1588 25.7149 31.3133 25.5624C31.3133 25.2575 31.6223 25.3083 31.8283 25.2067C32.0858 25.0542 32.3948 24.8509 32.3948 24.4444L32.3433 24.3936C32.1373 24.3936 32.0343 24.546 31.9313 24.6477C31.7768 24.7493 31.6738 24.4444 31.5193 24.546C31.5193 24.5968 31.5708 24.5968 31.5708 24.5968C31.6223 24.6477 31.6223 24.7493 31.5708 24.7493C31.3648 24.9526 31.2618 24.6477 31.0558 24.6985V24.7493C31.0558 24.8001 31.0558 24.8509 31.0043 24.8509C30.9013 24.6477 30.6438 24.7493 30.4893 24.546C30.3862 24.4952 30.3347 24.546 30.2832 24.5968C30.2317 24.6985 30.0257 24.5968 30.0772 24.7493C29.9227 24.8001 29.9227 24.9526 29.8197 25.0542C29.6137 25.0034 29.5622 25.2575 29.3562 25.2067C29.3562 25.2575 29.3562 25.3083 29.4077 25.3083C29.5107 25.3591 29.6137 25.3591 29.7682 25.3591C29.9742 25.1559 30.2832 25.4099 30.5408 25.2575Z" fill="#006BB6"/>
<path d="M32.3433 22.9198C32.3433 23.0214 32.3433 23.123 32.4463 23.2247C32.7038 23.1739 32.6008 23.5296 32.8068 23.4788C32.9098 23.428 32.8068 23.3263 32.8583 23.2755C32.8068 23.0722 32.6523 23.0722 32.4978 22.9706C32.4978 22.9198 32.4978 22.9198 32.5493 22.869C32.4463 22.8181 32.4463 22.8689 32.3433 22.9198Z" fill="#006BB6"/>
<path d="M32.0858 14.5853C31.4678 14.382 30.7983 14.2804 30.1287 14.1787L30.1802 14.3312V15.9574L30.3347 15.9066C31.3648 16.059 32.2918 16.364 33.0643 17.0246L33.1159 17.1771C33.3734 16.8213 33.7854 16.4656 34.1459 16.1099L34.4549 15.9574L34.3004 15.9066C33.6309 15.2967 32.8583 14.8394 32.0858 14.5853Z" fill="#006BB6"/>
<path d="M20.7038 21.3441L20.8584 22.4621C20.9099 22.8687 21.1159 23.3261 21.1159 23.7326C21.1674 23.631 21.1159 23.4785 21.3219 23.4277C21.2704 23.2753 21.4249 23.1736 21.3219 23.072C21.3734 22.7671 21.4249 22.4621 21.6824 22.2589C21.9914 22.2589 22.0429 21.8523 22.3519 21.8015C22.5064 21.8015 22.6094 22.0048 22.6609 22.0556C22.4549 21.8015 22.4549 21.4457 22.5064 21.1917L22.3519 21.2425C21.7854 21.2425 21.1674 21.2933 20.6523 21.1917L20.7038 21.3441Z" fill="#006BB6"/>
<path d="M31.6738 24.1393C31.8283 23.9868 32.1374 23.9868 32.1374 23.7835C31.9313 23.7327 31.8283 23.8852 31.6738 23.9868C31.6738 24.0376 31.5708 24.1393 31.6738 24.1393Z" fill="#006BB6"/>
<path d="M35.588 21.1409L35.794 21.3441C36 21.4966 35.8455 21.7507 36.0515 21.8523C36.309 21.954 36.3605 22.2589 36.4636 22.4622C36.5151 22.4114 36.5151 22.3605 36.5151 22.3097C36.6181 21.954 36.5666 21.5982 36.6696 21.2933C36.309 21.2425 35.897 21.2425 35.588 21.1409Z" fill="#006BB6"/>
<path d="M33.1159 25.359C33.3219 25.4098 33.4764 25.6639 33.7339 25.6131C33.9399 25.5115 34.3004 25.6639 34.4549 25.4607C34.4549 25.2574 34.6094 25.0541 34.7124 24.9016H34.7639C34.8669 25.0033 34.867 25.2066 34.9185 25.359C35.073 25.1557 35.2275 25.0033 35.382 24.8C35.794 24.241 36.1545 23.5803 36.2575 22.9197C36.103 22.9197 35.9485 22.9705 35.794 23.0213C35.6395 23.0213 35.382 23.123 35.2275 22.9705C35.176 22.9197 35.1245 22.9705 35.1245 23.0213C35.073 23.123 35.0215 23.2246 34.8669 23.1738C34.7639 23.123 34.7639 23.0213 34.7124 22.9197C34.7124 22.9705 34.7124 23.0721 34.6609 23.123C34.5579 23.2754 34.5064 23.3771 34.4034 23.5295C34.2489 23.682 34.0429 23.6312 33.9399 23.7328C33.9399 24.0377 33.5794 23.9361 33.4249 24.0377C33.4249 24.0885 33.4764 24.0885 33.4764 24.0885C33.5794 24.0885 33.6824 24.0885 33.7339 24.0377C33.9914 24.0885 33.9399 23.7836 34.0944 23.682C34.1974 23.682 34.3519 23.5803 34.4549 23.6312C34.6094 23.7836 34.6094 24.0377 34.6094 24.241C34.4549 24.3935 34.5579 24.5967 34.4549 24.8C34.4549 25.0033 34.2489 25.1049 34.2489 25.3082C34.1459 25.4098 34.0429 25.4098 33.8884 25.4098C33.4249 25.2066 32.9099 25.1049 32.3433 25.0541C32.2918 25.0541 32.2403 25.1049 32.2918 25.1557C32.6009 25.2574 32.8584 25.2574 33.1159 25.359Z" fill="#006BB6"/>
<path d="M29.4592 30.6444L29.5107 30.5427L29.3047 30.5936C26.9356 30.4411 24.824 29.5772 23.073 27.9509V28.0017L21.8369 29.2722C23.7425 30.8985 25.9056 31.9657 28.3777 32.2706C28.7897 32.3214 29.2017 32.3214 29.6137 32.4231L29.5107 32.2706V30.6444H29.4592Z" fill="#006BB6"/>
<path d="M26.9871 24.1393C27.6566 24.6475 28.3777 25.0032 29.2017 25.1557C29.2532 25.0032 29.2017 24.8 29.2532 24.6475C29.3047 24.495 29.4592 24.495 29.6137 24.5459C29.6652 24.5459 29.7167 24.4442 29.6652 24.3934C29.5107 24.3426 29.5622 24.1901 29.5107 24.0377C29.5107 23.9868 29.6137 23.9868 29.6137 23.936C29.5107 23.8344 29.6652 23.7328 29.5622 23.6311C29.6137 23.6311 29.6137 23.5803 29.6652 23.5295C29.3047 23.6819 28.8927 23.4787 28.5837 23.3262C28.4292 23.2246 28.1717 23.1229 28.1717 22.9705C27.8627 23.3262 27.3476 23.7328 26.9871 24.1393Z" fill="#006BB6"/>
<path d="M26.3691 22.259C26.3176 22.2082 26.3176 22.259 26.2661 22.3098C26.2146 22.3098 26.2146 22.3098 26.1631 22.3098C26.1631 21.9541 25.7511 22.1573 25.6481 22.0049C25.8026 22.3098 25.9056 22.6655 26.1116 22.9705C26.2146 23.2246 26.4721 23.4787 26.5751 23.7328C26.6781 23.5295 26.9356 23.3262 27.0901 23.1229C27.0901 23.0213 27.0901 22.9705 27.0386 22.8688C26.9871 22.7164 27.0386 22.5639 26.9356 22.4623C26.7811 22.5131 26.9871 22.6655 26.9356 22.7672C26.8841 22.818 26.7811 22.7672 26.7811 22.7164C26.6266 22.7164 26.5236 22.5639 26.4721 22.4623C26.5236 22.3606 26.3691 22.3098 26.3691 22.259Z" fill="#006BB6"/>
<path d="M27.5537 22.4114C27.5022 22.5638 27.3991 22.7163 27.2961 22.8179C27.4506 22.7163 27.5537 22.513 27.7597 22.513L27.5537 22.4114Z" fill="#006BB6"/>
<path d="M29.3047 28.3065C27.8112 28.2557 26.5236 27.6967 25.3391 26.8328C25.3906 26.9852 25.5451 27.0869 25.4936 27.2393C25.3906 27.3918 25.1845 27.3918 25.03 27.3918C24.6695 27.341 24.412 27.5951 24.103 27.6459C23.794 27.7475 23.691 27.3918 23.4335 27.3918C25.133 28.8655 27.0901 29.7803 29.3562 29.8819L29.5107 29.9836L29.4592 29.7803V28.2049L29.3047 28.3065Z" fill="#006BB6"/>
<path d="M22.7124 27.4933C22.5064 27.3409 22.3004 27.1376 22.1459 26.9343C21.9399 26.8835 21.7339 26.731 21.6309 26.5278C21.5794 26.4769 21.6309 26.3245 21.5794 26.2737L21.5279 26.3753C21.3219 26.4769 21.2189 26.2737 21.0644 26.172C20.8583 26.0704 20.9614 25.7146 20.7038 25.7655C20.6008 25.7655 20.6008 25.6638 20.4978 25.613C20.2403 25.613 20.1888 25.3589 20.0858 25.2573C20.0858 25.3081 20.0858 25.3589 20.0343 25.4097C19.7768 25.4605 19.7253 25.1556 19.5193 25.054C19.4678 25.054 19.4678 25.1048 19.3648 25.1048C19.2103 24.9523 19.1073 24.7999 19.1073 24.5966C18.9013 24.3933 19.0043 24.0376 19.0558 23.7327C19.1073 23.6819 19.2103 23.631 19.1588 23.5294C19.2103 23.4278 19.3648 23.3769 19.4678 23.3769C19.5193 23.3769 19.5708 23.4278 19.5708 23.4786C19.6738 23.4278 19.8283 23.4786 19.7768 23.3261C19.8798 23.2245 20.0343 23.2245 20.1888 23.1737C20.2918 23.2753 20.3433 23.4278 20.4463 23.5294L20.3433 23.3769C20.2403 22.8687 20.0858 22.2589 20.0858 21.5982C20.0858 21.5474 20.0343 21.5474 20.0343 21.4966C20.0343 21.3441 20.0343 21.2425 20.0343 21.1409L19.8798 21.1917H18.1802C18.2832 23.1228 18.7983 24.9015 19.6738 26.4769C20.0858 27.29 20.7553 28.0015 21.3219 28.713L22.5579 27.4933H22.7124Z" fill="#006BB6"/>
<path d="M24.6695 13.4165C24.309 13.6706 23.9485 14.0263 23.5365 14.2296C24 14.5345 24.3605 14.9919 24.7725 15.3476L24.8241 15.4493C25.8541 14.4837 27.1416 13.8739 28.4807 13.6198C28.7897 13.5689 29.1502 13.4673 29.4592 13.5689C29.4592 13.0099 29.4077 12.4001 29.4592 11.8411C27.6567 11.9427 26.0601 12.4509 24.6695 13.4165Z" fill="#006BB6"/>
<path d="M23.1759 19.7181C23.1244 20.023 23.1244 20.3279 23.0214 20.6329C23.2274 20.5312 23.5364 20.582 23.794 20.582C23.6394 20.5312 23.794 20.3279 23.691 20.2263C23.691 20.0738 23.6394 19.8706 23.794 19.7689C23.794 19.5148 24.0515 19.4132 24.0515 19.1591C24.103 18.905 24.412 19.0575 24.5665 18.9558C24.6695 18.905 24.5665 18.8034 24.5665 18.7525C24.6695 18.6001 24.8755 18.6001 25.03 18.4984C25.133 18.346 25.2875 18.1935 25.442 18.0919C25.8025 18.0919 25.8025 17.5837 26.1631 17.5837C25.6995 17.2279 25.236 16.7706 24.824 16.364C24 17.3804 23.4334 18.4476 23.1759 19.7181Z" fill="#006BB6"/>
<path d="M23.4334 22.1572C23.4334 22.0556 23.2789 22.0048 23.2789 21.9031C23.3819 21.6998 23.2789 21.2933 23.5879 21.2425C23.3819 21.2933 23.1759 21.3441 23.0214 21.1917L23.1244 21.3441C23.1244 21.7507 23.2789 22.1064 23.2274 22.513C23.2789 22.4113 23.2789 22.2589 23.4334 22.1572Z" fill="#006BB6"/>
<path d="M25.1313 26.5277L25.0815 26.4771L25.1313 26.5277Z" fill="#006BB6"/>
<path d="M23.0729 14.7376L22.4034 15.5507C21.3219 17.0245 20.8069 18.7016 20.6523 20.5819L22.3519 20.5311L22.5064 20.5819C22.4549 20.5311 22.4549 20.4802 22.4549 20.4294C22.6094 18.7016 23.2275 17.177 24.412 15.9065C23.9485 15.4999 23.5365 15.0934 23.1244 14.636L23.0729 14.7376Z" fill="#006BB6"/>
<path d="M28.2746 26.0197C28.4292 25.8672 28.5837 25.7656 28.7382 25.7148C28.1716 25.8164 27.7081 25.4607 27.2446 25.2066C26.9871 25.0033 26.6266 24.8508 26.4721 24.5459C26.1116 25.0033 25.6995 25.4098 25.236 25.7656C25.442 25.7656 25.545 25.9688 25.6995 26.0705C26.6266 26.8328 27.7596 27.1885 28.8412 27.4426L28.5322 27.2902C28.3262 27.0361 28.0171 26.7311 27.9656 26.4262C28.2231 26.4262 28.1716 26.1721 28.2746 26.0197Z" fill="#006BB6"/>
<path d="M24.0515 21.2427L24 21.5477C23.9485 21.7509 23.691 21.5985 23.588 21.7001C23.485 21.8018 23.588 21.9542 23.6395 22.0559C23.485 22.4624 24.0515 22.5641 24 22.9198C24.1545 23.1231 24 23.428 24.206 23.6313C24.2575 24.0378 24.1545 24.546 24.515 24.8509L24.5665 25.2067C24.618 25.4608 24.2575 25.41 24.309 25.6132C24.3605 25.5624 24.412 25.6641 24.412 25.7149C24.8755 25.1559 25.442 24.5968 26.0086 24.1395L25.751 23.8854C25.339 23.2247 24.9785 22.5641 24.824 21.8018L24.6695 21.7001C24.6695 21.9034 24.5665 22.0559 24.5665 22.2591L24.515 22.31C24.412 22.31 24.309 22.2083 24.206 22.1575C24.206 22.1067 24.103 22.005 24.206 21.9034C24.2575 21.9034 24.309 21.9034 24.3605 21.9542C24.412 21.9034 24.412 21.8018 24.412 21.7001C24.412 21.5477 24.309 21.446 24.412 21.2936C24.515 21.2936 24.618 21.3952 24.6695 21.4968C24.7725 21.5477 24.8755 21.446 24.9785 21.3952C24.9785 21.2936 25.133 21.1411 24.9785 21.0903C25.0815 20.8362 24.9785 20.5821 24.9785 20.3788C24.927 20.1755 24.6695 20.2263 24.515 20.2263C24 20.3788 24.618 20.7345 24.4635 21.0395C24.3605 21.3444 24.206 21.1411 24.0515 21.2427Z" fill="#006BB6"/>
<path d="M39.7596 21.1917L39.6566 21.1409L39.7081 21.2933C39.6051 23.3261 38.9356 25.054 37.7511 26.6802C37.5451 26.9343 37.339 27.2901 37.03 27.4425C37.4935 27.7982 38.0086 28.3573 38.3691 28.7638L38.4206 28.6622C40.2747 26.5786 41.3562 24.0884 41.4592 21.2933L41.5107 21.1409L41.4077 21.1917H39.7596Z" fill="#006BB6"/>
<path d="M23.1759 13.823V13.7213C24.9785 12.0951 27.0386 11.2312 29.4077 11.1295L29.3562 10.9771V9.50329L29.4077 9.35083C26.9356 9.45247 24.7725 10.2656 22.8154 11.6377C22.4549 11.8918 22.0944 12.2984 21.7339 12.5016H21.7854C22.3004 12.8574 22.7639 13.3656 23.1759 13.823Z" fill="#006BB6"/>
<path d="M29.3562 14.2295C27.8111 14.3312 26.4721 14.9918 25.2875 15.9574C25.7511 16.2623 26.1631 16.7705 26.5751 17.1771C26.6266 17.1263 26.6266 17.0754 26.6781 17.0246C27.2446 16.6181 27.8626 16.2623 28.5322 16.059C28.8412 16.0082 29.1502 15.9066 29.4592 15.9574C29.4077 15.3984 29.4077 14.7377 29.4592 14.1787L29.3562 14.2295Z" fill="#006BB6"/>
<path d="M29.4593 16.6179C28.4807 16.7704 27.5537 17.0753 26.8326 17.8376H26.9871C27.1417 17.9901 27.3477 17.9392 27.5022 18.1425C27.5537 18.2442 27.3992 18.2441 27.3992 18.3458C27.4507 18.3966 27.4507 18.3966 27.5022 18.3966C27.6052 18.4474 27.6052 18.3458 27.6567 18.295C27.8112 18.1425 27.8112 18.4474 27.9657 18.4474C28.0687 18.3966 28.2232 18.3966 28.2747 18.4982C28.3777 18.3966 28.5837 18.4982 28.6352 18.3458C28.8412 18.1425 28.7382 17.8376 28.9957 17.736C29.0987 17.7868 28.9957 17.8884 29.0472 17.9901C29.2532 18.0917 29.4593 17.8376 29.6138 18.0409C29.4077 17.5327 29.4593 17.0245 29.4593 16.6179Z" fill="#006BB6"/>
<path d="M29.5107 19.3115C29.3047 19.6164 29.0472 19.6672 28.7382 19.7689C28.6352 19.8705 28.6867 20.0738 28.4807 20.0738C28.4292 20.2263 28.2232 20.2771 28.2747 20.4804C28.1717 20.6836 28.2232 20.9377 28.1717 21.1918C27.8112 21.3951 27.9142 20.8869 27.7082 20.7853V20.8361C27.6566 20.8361 27.6051 20.8361 27.5536 20.7853C27.5021 20.7853 27.3991 20.7345 27.3476 20.7853C27.2446 20.9377 27.1416 21.0394 27.1931 21.1918C27.1416 21.2935 26.9871 21.2427 26.9871 21.3951C27.1931 21.3951 27.3991 21.3443 27.6051 21.2935C27.7597 21.3443 27.8627 21.2427 28.0172 21.2427C28.0687 21.2427 28.1202 21.2935 28.1202 21.3951H28.1717C28.2747 21.3443 28.3262 21.1918 28.2747 21.0902C28.2747 20.9377 28.4292 20.9377 28.5322 20.9377C28.6352 20.9886 28.5837 21.0394 28.5837 21.0902C28.8412 21.1918 28.5322 21.3951 28.4807 21.5476C28.4292 21.6492 28.4807 21.9033 28.2747 21.9033C28.2232 21.9033 28.2232 21.8525 28.2232 21.8017H28.1717C28.1717 21.9033 28.2232 22.0558 28.3262 22.0558C28.4807 21.9033 28.4807 21.7 28.7382 21.6492C28.8412 21.4968 28.6867 21.2935 28.8927 21.1918C29.2017 21.1918 29.5622 21.0394 29.8197 21.2935C29.8197 21.3951 29.7682 21.4459 29.8712 21.5476C29.8197 21.7 29.7682 21.8525 29.6652 21.9541C29.7167 22.0558 29.6652 22.1066 29.6137 22.2082C29.5107 22.564 29.0987 22.4115 28.8412 22.5131C29.2017 22.8181 29.6652 22.9197 30.1803 22.8689C30.4378 22.8689 30.3348 22.5131 30.4378 22.4115C30.5408 22.0049 30.9013 22.259 31.1588 22.1574C31.2618 21.9541 31.3648 21.8017 31.3648 21.5984C31.2103 21.4968 31.1588 21.3443 31.2103 21.141C31.1073 20.9886 31.1073 20.7345 30.9013 20.7345C30.8498 20.6836 30.9013 20.6328 30.9013 20.582C30.9013 20.4295 31.0043 20.4295 31.0558 20.2771C30.9013 20.1754 30.9528 19.9722 30.9528 19.8705C30.6953 19.9213 30.6953 19.6164 30.4893 19.5656C30.4378 19.4131 30.2833 19.4131 30.1803 19.3623C29.8712 19.5148 29.8197 19.159 29.6137 19.0574C29.6137 19.0066 29.5622 18.9049 29.6137 18.8541C29.7167 18.7525 29.8712 18.8541 29.9742 18.8541L29.8712 18.8033C29.7682 18.7017 29.5622 18.7525 29.4077 18.8033C29.5107 18.9558 29.4592 19.159 29.5107 19.3115Z" fill="#006BB6"/>
<path d="M20.0858 20.582L20.0343 20.3279C20.1373 18.3968 20.7553 16.6689 21.8884 15.1443C22.1459 14.8394 22.3519 14.4328 22.7124 14.2296C22.3004 13.8738 21.8884 13.4164 21.4764 13.0099L21.4249 12.8574C19.6738 14.7886 18.5923 16.9738 18.2832 19.464C18.2317 19.8197 18.2832 20.1755 18.1802 20.582C18.7983 20.5312 19.4678 20.5312 20.0858 20.582Z" fill="#006BB6"/>
<path d="M36.618 27.7983C36.4635 28.1541 36.0515 28.3574 35.794 28.6115C35.382 29.018 34.7639 29.0688 34.5579 29.6787C34.3519 29.8819 34.2489 30.1869 33.9914 30.2885C33.8884 30.5934 33.5794 30.5426 33.3734 30.7459C32.8584 31.2033 32.5493 30.441 32.0858 30.3901L31.1588 30.5426C30.8498 30.5426 30.4892 30.6442 30.1802 30.5426C30.2317 31.1524 30.2317 31.8131 30.1802 32.4229L30.2832 32.3721C33.2189 32.2705 35.794 31.1524 37.9571 29.1705L36.6695 27.9508L36.618 27.7983Z" fill="#006BB6"/>
<path d="M30.1288 10.9771C30.1288 10.9263 30.1288 10.8755 30.1803 10.8247C30.2833 10.7739 30.3348 10.8247 30.3863 10.9263C30.3863 11.028 30.4378 11.1804 30.3348 11.1804C30.3863 11.1804 30.4378 11.1296 30.4893 11.1296C31.8798 11.2312 33.1674 11.6378 34.3519 12.2984V12.2476C34.6095 12.146 34.9185 11.9935 35.1245 12.1968C35.4335 12.0952 35.485 12.4509 35.691 12.5017C36 12.6542 36.309 13.0099 36.3605 13.3148C36.412 13.4165 36.5665 13.5181 36.618 13.6198C36.824 13.2132 37.1846 12.9083 37.5451 12.5525L37.7511 12.4509C35.897 10.723 33.6824 9.75746 31.2618 9.40173C30.8498 9.35091 30.4378 9.35091 30.0773 9.24927C30.1803 9.80828 30.1803 10.4181 30.1288 10.9771Z" fill="#006BB6"/>
<path d="M30.1287 13.5688C30.3862 13.4671 30.5922 13.5688 30.8498 13.5688C32.0343 13.772 33.1674 14.1278 34.1459 14.8901C34.0429 14.7884 33.8884 14.636 33.8884 14.4327C33.8884 14.4327 33.9399 14.3819 33.9399 14.4327C33.9399 14.2294 33.7339 14.1278 33.7339 13.9753C33.7854 13.9245 33.7854 13.9245 33.8884 13.9245C34.0944 14.1278 34.2489 14.3311 34.4034 14.5343C34.5579 14.4835 34.6609 14.5852 34.7639 14.636C34.9184 14.7376 34.8154 14.9409 34.9699 15.0934C34.9699 15.4491 35.4334 15.6524 35.4334 16.0081C35.4334 16.1097 35.5364 16.0081 35.588 16.0589L35.9485 16.5163C35.897 16.6179 35.9485 16.7196 36 16.7704C36.1545 16.8212 36.2575 16.6179 36.412 16.6688C36.6695 16.8212 36.3605 16.9737 36.412 17.1261C36.515 17.1261 36.618 17.0753 36.721 17.1261C36.7725 17.2786 36.618 17.3294 36.5665 17.4311C36.5665 17.5835 36.6695 17.5327 36.7725 17.5835C36.8755 17.5835 36.927 17.736 36.927 17.7868C37.236 18.0917 36.824 18.4475 36.9785 18.7524C37.0815 18.9557 36.9785 19.1589 36.824 19.3622C36.824 19.6163 36.5665 19.7688 36.515 20.0229L36.0515 20.0737C35.897 20.2261 36.206 20.4294 36.0515 20.5311H36.721L36.6695 20.4802C36.5665 20.2261 36.5665 19.8196 36.721 19.6163C36.824 19.413 36.8755 19.1589 37.03 18.9557C37.0815 18.9557 37.133 18.854 37.1845 18.9557C37.1845 19.1589 37.1845 19.413 37.0815 19.5655C37.2875 19.8196 37.236 20.2261 37.2875 20.5311C37.9056 20.4802 38.4721 20.4802 39.0901 20.4802L39.0386 20.3786C38.9356 19.2606 38.7296 18.1934 38.2661 17.2278C38.1631 17.2278 38.0601 17.3294 37.9055 17.2786C37.854 17.2786 37.8025 17.2278 37.854 17.177C37.5965 16.9229 37.442 16.6688 37.1845 16.4147C36.8755 16.4655 36.721 16.1097 36.4635 16.0589C36.206 15.9573 36.3605 15.5507 36 15.6524C35.8455 15.6016 35.6395 15.4491 35.6395 15.2458C35.6395 14.9409 35.588 14.5852 35.2789 14.3819C35.0729 14.2802 34.9699 14.5852 34.7639 14.5343C34.6609 14.4835 34.7124 14.3311 34.6609 14.2294C34.6094 14.1278 34.5064 14.077 34.5579 13.9753C34.8669 13.6196 34.1974 13.6196 34.3519 13.2638C34.3004 13.0097 34.0429 12.9081 33.8884 12.7048C32.9613 12.2983 31.9828 11.9934 30.9013 11.8409C30.6437 11.7901 30.3862 11.8409 30.1802 11.7393L30.2317 11.8409C30.1287 12.4507 30.1802 13.0606 30.1287 13.5688Z" fill="#006BB6"/>
<path d="M36.824 14.1787C36.9785 14.2296 36.9785 14.382 37.0815 14.4328C37.5451 14.6869 37.6481 15.1443 38.0601 15.3984C38.2661 15.8558 38.7811 16.2115 38.7811 16.7197C39.2961 17.8886 39.6567 19.1082 39.7082 20.4804L39.6567 20.582C39.7082 20.582 39.7597 20.582 39.8112 20.5312L41.5622 20.4804C41.4592 20.3279 41.5107 20.0738 41.4592 19.8705C41.2017 17.1771 40.0687 14.8902 38.2661 12.8574C37.9056 13.3148 37.4936 13.7214 37.03 14.1279L36.824 14.1787Z" fill="#006BB6"/>
<path d="M30.3863 10.6722C30.4378 10.5705 30.5923 10.6214 30.6438 10.6214L31.5193 10.2656C31.8798 10.3164 32.2403 10.3164 32.4979 10.6214V10.6722C32.2918 10.8755 31.9828 10.9771 31.7253 10.8755C31.3133 10.9771 30.7468 11.1804 30.4378 10.7738C30.3863 10.7738 30.3348 10.723 30.3863 10.6722Z" fill="white"/>
<path d="M35.6395 11.7902C35.7425 11.841 35.897 11.8918 35.897 11.9935C35.8455 12.1459 36.0515 12.2476 35.9485 12.3492C35.6395 12.4508 35.588 12.0443 35.3305 11.9935C35.279 11.9426 35.279 11.8918 35.279 11.841C35.382 11.6885 35.485 11.8918 35.6395 11.7902Z" fill="white"/>
</svg>
