<svg width="46" height="46" viewBox="0 0 46 46" fill="none" xmlns="http://www.w3.org/2000/svg">
<path d="M17 37C16.4477 37 16 37.4477 16 38C16 38.5523 16.4477 39 17 39V37ZM28 39C28.5523 39 29 38.5523 29 38C29 37.4477 28.5523 37 28 37V39ZM16.2929 24.7929C15.9024 25.1834 15.9024 25.8166 16.2929 26.2071C16.6834 26.5976 17.3166 26.5976 17.7071 26.2071L16.2929 24.7929ZM20.9 23.3L20.1191 23.9247L20.1537 23.9679L20.1929 24.0071L20.9 23.3ZM22.6 23.3L21.8929 22.5929L21.8537 22.6321L21.8191 22.6753L22.6 23.3ZM30.2071 17.1071C30.5976 16.7166 30.5976 16.0834 30.2071 15.6929C29.8166 15.3024 29.1834 15.3024 28.7929 15.6929L30.2071 17.1071ZM25.7 15C25.1477 15 24.7 15.4477 24.7 16C24.7 16.5523 25.1477 17 25.7 17V15ZM29.1 20.4C29.1 20.9523 29.5477 21.4 30.1 21.4C30.6523 21.4 31.1 20.9523 31.1 20.4H29.1ZM24 31C24 30.4477 23.5523 30 23 30C22.4477 30 22 30.4477 22 31H24ZM22 37C22 37.5523 22.4477 38 23 38C23.5523 38 24 37.5523 24 37H22ZM33 29H13V31H33V29ZM13 29C11.8523 29 11 28.1477 11 27H9C9 29.2523 10.7477 31 13 31V29ZM11 27V14H9V27H11ZM11 14C11 12.8523 11.8523 12 13 12V10C10.7477 10 9 11.7477 9 14H11ZM13 12H33V10H13V12ZM33 12C34.1477 12 35 12.8523 35 14H37C37 11.7477 35.2523 10 33 10V12ZM35 14V27H37V14H35ZM35 27C35 28.1477 34.1477 29 33 29V31C35.2523 31 37 29.2523 37 27H35ZM17 39H28V37H17V39ZM17.7071 26.2071L19.9071 24.0071L18.4929 22.5929L16.2929 24.7929L17.7071 26.2071ZM19.9071 24.0071C19.968 23.9462 20.0379 23.925 20.0875 23.925C20.1352 23.925 20.132 23.9407 20.1191 23.9247L21.6809 22.6753C20.8412 21.6257 19.3342 21.7516 18.4929 22.5929L19.9071 24.0071ZM20.1929 24.0071C21.0342 24.8484 22.5412 24.9743 23.3809 23.9247L21.8191 22.6753C21.832 22.6593 21.8352 22.675 21.7875 22.675C21.7379 22.675 21.668 22.6538 21.6071 22.5929L20.1929 24.0071ZM23.3071 24.0071L30.2071 17.1071L28.7929 15.6929L21.8929 22.5929L23.3071 24.0071ZM25.7 17H29.4V15H25.7V17ZM29.4 17C29.3432 17 29.2613 16.9755 29.1929 16.9071C29.1245 16.8387 29.1 16.7568 29.1 16.7H31.1C31.1 15.7477 30.3523 15 29.4 15V17ZM29.1 16.7V20.4H31.1V16.7H29.1ZM22 31V37H24V31H22ZM44 23C44 34.598 34.598 44 23 44V46C35.7025 46 46 35.7025 46 23H44ZM23 44C11.402 44 2 34.598 2 23H0C0 35.7025 10.2975 46 23 46V44ZM2 23C2 11.402 11.402 2 23 2V0C10.2975 0 0 10.2975 0 23H2ZM23 2C34.598 2 44 11.402 44 23H46C46 10.2975 35.7025 0 23 0V2Z" fill="#3725E4"/>
</svg>
