<svg width="46" height="46" viewBox="0 0 46 46" fill="none" xmlns="http://www.w3.org/2000/svg">
<path d="M13.2 31C13.7523 31 14.2 30.5523 14.2 30C14.2 29.4477 13.7523 29 13.2 29V31ZM29.4 29C28.8477 29 28.4 29.4477 28.4 30C28.4 30.5523 28.8477 31 29.4 31V29ZM30.7 19.6C30.7 19.0477 30.2523 18.6 29.7 18.6C29.1477 18.6 28.7 19.0477 28.7 19.6H30.7ZM23.5104 24.9061C22.9615 24.8451 22.4671 25.2407 22.4061 25.7896C22.3451 26.3385 22.7407 26.8329 23.2896 26.8939L23.5104 24.9061ZM21 38C21 38.5523 21.4477 39 22 39C22.5523 39 23 38.5523 23 38H21ZM23 32C23 31.4477 22.5523 31 22 31C21.4477 31 21 31.4477 21 32H23ZM18 38C18 38.5523 18.4477 39 19 39C19.5523 39 20 38.5523 20 38H18ZM20 32C20 31.4477 19.5523 31 19 31C18.4477 31 18 31.4477 18 32H20ZM23 20C23 21.1046 22.1046 22 21 22V24C23.2091 24 25 22.2091 25 20H23ZM21 22C19.8954 22 19 21.1046 19 20H17C17 22.2091 18.7909 24 21 24V22ZM19 20C19 18.8954 19.8954 18 21 18V16C18.7909 16 17 17.7909 17 20H19ZM21 18C22.1046 18 23 18.8954 23 20H25C25 17.7909 23.2091 16 21 16V18ZM21.6 31H19.6V33H21.6V31ZM19.6 31C18.7523 31 18 30.2477 18 29.4H16C16 31.3523 17.6477 33 19.6 33V31ZM18 29.4V26.6H16V29.4H18ZM18 26.6C18 25.7523 18.7523 25 19.6 25V23C17.6477 23 16 24.6477 16 26.6H18ZM19.6 25C21.4477 25 23 26.5523 23 28.4H25C25 25.4477 22.5523 23 19.6 23V25ZM23 28.4V29.6H25V28.4H23ZM23 29.6C23 30.3477 22.3477 31 21.6 31V33C23.4523 33 25 31.4523 25 29.6H23ZM13.2 29C11.9725 29 11 27.9681 11 26.8H9C9 29.0319 10.8275 31 13.2 31V29ZM11 26.8V13.8H9V26.8H11ZM11 13.8C11 12.5725 12.0319 11.6 13.2 11.6V9.6C10.9681 9.6 9 11.4276 9 13.8H11ZM13.2 11.6H33.7V9.6H13.2V11.6ZM33.7 11.6C34.9276 11.6 35.9 12.6319 35.9 13.8H37.9C37.9 11.5681 36.0724 9.6 33.7 9.6V11.6ZM35.9 13.8V26.8H37.9V13.8H35.9ZM35.9 26.8C35.9 28.0275 34.8681 29 33.7 29V31C35.9319 31 37.9 29.1724 37.9 26.8H35.9ZM33.7 29H29.4V31H33.7V29ZM28.7 19.6C28.7 21.1973 28.3421 22.2693 27.8744 22.9967C27.4075 23.7232 26.7864 24.1756 26.1439 24.4612C25.4927 24.7506 24.8263 24.8645 24.3105 24.9027C24.0555 24.9216 23.845 24.9214 23.7024 24.9169C23.6313 24.9147 23.5778 24.9113 23.5446 24.9089C23.5281 24.9077 23.5167 24.9067 23.5109 24.9061C23.5079 24.9058 23.5064 24.9057 23.5063 24.9057C23.5063 24.9057 23.5066 24.9057 23.5073 24.9058C23.5076 24.9058 23.5081 24.9059 23.5086 24.9059C23.5088 24.9059 23.5093 24.906 23.5094 24.906C23.5099 24.9061 23.5104 24.9061 23.4 25.9C23.2896 26.8939 23.2901 26.8939 23.2907 26.894C23.2909 26.894 23.2915 26.8941 23.292 26.8941C23.2929 26.8942 23.2939 26.8944 23.295 26.8945C23.2972 26.8947 23.2998 26.895 23.3028 26.8953C23.3088 26.8959 23.3163 26.8966 23.3253 26.8975C23.3433 26.8992 23.3673 26.9012 23.3969 26.9034C23.456 26.9078 23.5378 26.9127 23.639 26.9159C23.8409 26.9223 24.1227 26.9221 24.4582 26.8973C25.1237 26.848 26.0323 26.6994 26.9561 26.2888C27.8886 25.8744 28.8425 25.1893 29.5568 24.0783C30.2704 22.9682 30.7 21.5027 30.7 19.6H28.7ZM23 38V32H21V38H23ZM20 38V32H18V38H20ZM44 23C44 34.598 34.598 44 23 44V46C35.7025 46 46 35.7025 46 23H44ZM23 44C11.402 44 2 34.598 2 23H0C0 35.7025 10.2975 46 23 46V44ZM2 23C2 11.402 11.402 2 23 2V0C10.2975 0 0 10.2975 0 23H2ZM23 2C34.598 2 44 11.402 44 23H46C46 10.2975 35.7025 0 23 0V2Z" fill="#3725E4"/>
</svg>
