<svg width="46" height="46" viewBox="0 0 46 46" fill="none" xmlns="http://www.w3.org/2000/svg">
<path d="M18.7861 25.8224C19.2956 25.6092 19.5357 25.0233 19.3224 24.5139C19.1092 24.0044 18.5233 23.7643 18.0139 23.9776L18.7861 25.8224ZM13.7139 25.7776C13.2044 25.9908 12.9643 26.5767 13.1776 27.0861C13.3908 27.5956 13.9767 27.8357 14.4861 27.6224L13.7139 25.7776ZM23.3295 21.5581C22.9197 21.9285 22.8878 22.5608 23.2581 22.9705C23.6285 23.3803 24.2608 23.4122 24.6705 23.0419L23.3295 21.5581ZM29.8705 18.3419C30.2803 17.9715 30.3122 17.3392 29.9419 16.9295C29.5715 16.5197 28.9392 16.4878 28.5295 16.8581L29.8705 18.3419ZM23.8896 31.5138C24.1182 32.0166 24.711 32.2389 25.2138 32.0104C25.7166 31.7818 25.9389 31.189 25.7104 30.6862L23.8896 31.5138ZM24.2104 27.3862C23.9818 26.8834 23.389 26.6611 22.8862 26.8896C22.3834 27.1182 22.1611 27.711 22.3896 28.2138L24.2104 27.3862ZM19.7662 18.3003C19.4902 17.8219 18.8787 17.6578 18.4003 17.9338C17.9219 18.2098 17.7578 18.8213 18.0338 19.2997L19.7662 18.3003ZM19.5338 21.8997C19.8098 22.3781 20.4213 22.5422 20.8997 22.2662C21.3781 21.9902 21.5422 21.3787 21.2662 20.9003L19.5338 21.8997ZM18.0139 23.9776L13.7139 25.7776L14.4861 27.6224L18.7861 25.8224L18.0139 23.9776ZM12.8 26.6C12.8 27.6493 11.9493 28.5 10.9 28.5V30.5C13.0539 30.5 14.8 28.7539 14.8 26.6H12.8ZM10.9 28.5C9.85066 28.5 9 27.6493 9 26.6H7C7 28.7539 8.74609 30.5 10.9 30.5V28.5ZM9 26.6C9 25.5507 9.85066 24.7 10.9 24.7V22.7C8.74609 22.7 7 24.4461 7 26.6H9ZM10.9 24.7C11.9493 24.7 12.8 25.5507 12.8 26.6H14.8C14.8 24.4461 13.0539 22.7 10.9 22.7V24.7ZM19.7 15.1C19.7 16.1493 18.8493 17 17.8 17V19C19.9539 19 21.7 17.2539 21.7 15.1H19.7ZM17.8 17C16.7507 17 15.9 16.1493 15.9 15.1H13.9C13.9 17.2539 15.6461 19 17.8 19V17ZM15.9 15.1C15.9 14.0507 16.7507 13.2 17.8 13.2V11.2C15.6461 11.2 13.9 12.9461 13.9 15.1H15.9ZM17.8 13.2C18.8493 13.2 19.7 14.0507 19.7 15.1H21.7C21.7 12.9461 19.9539 11.2 17.8 11.2V13.2ZM23.2 24.3C23.2 25.3493 22.3493 26.2 21.3 26.2V28.2C23.4539 28.2 25.2 26.4539 25.2 24.3H23.2ZM21.3 26.2C20.2507 26.2 19.4 25.3493 19.4 24.3H17.4C17.4 26.4539 19.1461 28.2 21.3 28.2V26.2ZM19.4 24.3C19.4 23.2507 20.2507 22.4 21.3 22.4V20.4C19.1461 20.4 17.4 22.1461 17.4 24.3H19.4ZM21.3 22.4C22.3493 22.4 23.2 23.2507 23.2 24.3H25.2C25.2 22.1461 23.4539 20.4 21.3 20.4V22.4ZM29 33.5C29 34.5493 28.1493 35.4 27.1 35.4V37.4C29.2539 37.4 31 35.6539 31 33.5H29ZM27.1 35.4C26.0507 35.4 25.2 34.5493 25.2 33.5H23.2C23.2 35.6539 24.9461 37.4 27.1 37.4V35.4ZM25.2 33.5C25.2 32.4507 26.0507 31.6 27.1 31.6V29.6C24.9461 29.6 23.2 31.3461 23.2 33.5H25.2ZM27.1 31.6C28.1493 31.6 29 32.4507 29 33.5H31C31 31.3461 29.2539 29.6 27.1 29.6V31.6ZM33.6 15.1C33.6 16.1493 32.7493 17 31.7 17V19C33.8539 19 35.6 17.2539 35.6 15.1H33.6ZM31.7 17C30.6507 17 29.8 16.1493 29.8 15.1H27.8C27.8 17.2539 29.5461 19 31.7 19V17ZM29.8 15.1C29.8 14.0507 30.6507 13.2 31.7 13.2V11.2C29.5461 11.2 27.8 12.9461 27.8 15.1H29.8ZM31.7 13.2C32.7493 13.2 33.6 14.0507 33.6 15.1H35.6C35.6 12.9461 33.8539 11.2 31.7 11.2V13.2ZM24.6705 23.0419L29.8705 18.3419L28.5295 16.8581L23.3295 21.5581L24.6705 23.0419ZM25.7104 30.6862L24.2104 27.3862L22.3896 28.2138L23.8896 31.5138L25.7104 30.6862ZM18.0338 19.2997L19.5338 21.8997L21.2662 20.9003L19.7662 18.3003L18.0338 19.2997ZM44 23C44 34.598 34.598 44 23 44V46C35.7025 46 46 35.7025 46 23H44ZM23 44C11.402 44 2 34.598 2 23H0C0 35.7025 10.2975 46 23 46V44ZM2 23C2 11.402 11.402 2 23 2V0C10.2975 0 0 10.2975 0 23H2ZM23 2C34.598 2 44 11.402 44 23H46C46 10.2975 35.7025 0 23 0V2Z" fill="#3725E4"/>
</svg>
