<svg width="46" height="46" viewBox="0 0 46 46" fill="none" xmlns="http://www.w3.org/2000/svg">
<path d="M23 45C35.1503 45 45 35.1503 45 23C45 10.8497 35.1503 1 23 1C10.8497 1 1 10.8497 1 23C1 35.1503 10.8497 45 23 45Z" stroke="#3725E4" stroke-width="2" stroke-miterlimit="10" stroke-linecap="round" stroke-linejoin="bevel"/>
<path d="M32 12H33C34.7 12 36 13.3 36 15V31C36 32.7 34.7 34 33 34H14C12.3 34 11 32.7 11 31V15C11 13.3 12.3 12 14 12H15" stroke="#3725E4" stroke-width="2" stroke-miterlimit="10" stroke-linecap="round" stroke-linejoin="bevel"/>
<path d="M21 12H26" stroke="#3725E4" stroke-width="2" stroke-miterlimit="10" stroke-linecap="round" stroke-linejoin="bevel"/>
<path d="M18 10V14" stroke="#3725E4" stroke-width="2" stroke-miterlimit="10" stroke-linecap="round"/>
<path d="M29 10V14" stroke="#3725E4" stroke-width="2" stroke-miterlimit="10" stroke-linecap="round"/>
<path d="M12 18H36" stroke="#3725E4" stroke-width="2" stroke-miterlimit="10" stroke-linecap="round"/>
<path d="M20 25.2999L22.4 28.5999C22.7 28.9999 23.2 28.8999 23.5 28.5999L28 22.3999" stroke="#3725E4" stroke-width="2" stroke-miterlimit="10" stroke-linecap="round"/>
</svg>
