<svg width="46" height="46" viewBox="0 0 46 46" fill="none" xmlns="http://www.w3.org/2000/svg">
<path d="M23 13C22.4477 13 22 13.4477 22 14C22 14.5523 22.4477 15 23 15V13ZM32 15C32.5523 15 33 14.5523 33 14C33 13.4477 32.5523 13 32 13V15ZM23 18C22.4477 18 22 18.4477 22 19C22 19.5523 22.4477 20 23 20V18ZM32 20C32.5523 20 33 19.5523 33 19C33 18.4477 32.5523 18 32 18V20ZM13 24C12.4477 24 12 24.4477 12 25C12 25.5523 12.4477 26 13 26V24ZM32 26C32.5523 26 33 25.5523 33 25C33 24.4477 32.5523 24 32 24V26ZM13 30C12.4477 30 12 30.4477 12 31C12 31.5523 12.4477 32 13 32V30ZM32 32C32.5523 32 33 31.5523 33 31C33 30.4477 32.5523 30 32 30V32ZM13 18.6H14H13ZM23 15H32V13H23V15ZM23 20H32V18H23V20ZM13 26H32V24H13V26ZM13 32H32V30H13V32ZM13.4 20H17.6V18H13.4V20ZM17.6 20C18.0252 20 18.3668 19.7975 18.5821 19.5821C18.7975 19.3668 19 19.0252 19 18.6H17C17 18.3748 17.1025 18.2332 17.1679 18.1679C17.2332 18.1025 17.3748 18 17.6 18V20ZM19 18.6V14.4H17V18.6H19ZM19 14.4C19 13.9748 18.7975 13.6332 18.5821 13.4179C18.3668 13.2025 18.0252 13 17.6 13V15C17.3748 15 17.2332 14.8975 17.1679 14.8321C17.1025 14.7668 17 14.6252 17 14.4H19ZM17.6 13H13.4V15H17.6V13ZM13.4 13C12.9748 13 12.6332 13.2025 12.4179 13.4179C12.2025 13.6332 12 13.9748 12 14.4H14C14 14.6252 13.8975 14.7668 13.8321 14.8321C13.7668 14.8975 13.6252 15 13.4 15V13ZM12 14.4V18.6H14V14.4H12ZM12 18.6C12 19.0252 12.2025 19.3668 12.4179 19.5821C12.6332 19.7975 12.9748 20 13.4 20V18C13.6252 18 13.7668 18.1025 13.8321 18.1679C13.8975 18.2332 14 18.3748 14 18.6H12ZM44 23C44 34.598 34.598 44 23 44V46C35.7025 46 46 35.7025 46 23H44ZM23 44C11.402 44 2 34.598 2 23H0C0 35.7025 10.2975 46 23 46V44ZM2 23C2 11.402 11.402 2 23 2V0C10.2975 0 0 10.2975 0 23H2ZM23 2C34.598 2 44 11.402 44 23H46C46 10.2975 35.7025 0 23 0V2Z" fill="#3725E4"/>
</svg>
