<svg width="46" height="46" viewBox="0 0 46 46" fill="none" xmlns="http://www.w3.org/2000/svg">
<path d="M23.6 31.4L22.7796 30.8282L22.7653 30.8488L22.752 30.87L23.6 31.4ZM21.4 31.4L22.248 30.87L22.2347 30.8488L22.2204 30.8282L21.4 31.4ZM16.9903 30.4716C17.4716 30.2008 17.6423 29.5911 17.3716 29.1097C17.1008 28.6284 16.4911 28.4577 16.0097 28.7284L16.9903 30.4716ZM11.4191 32.4753C11.0741 32.9066 11.144 33.5359 11.5753 33.8809C12.0066 34.2259 12.6359 34.156 12.9809 33.7247L11.4191 32.4753ZM32.9281 33.6357C33.2792 34.062 33.9094 34.123 34.3357 33.7719C34.762 33.4208 34.823 32.7906 34.4719 32.3643L32.9281 33.6357ZM28.756 28.1655C28.2399 27.9689 27.6621 28.2279 27.4655 28.744C27.2689 29.2601 27.5279 29.8379 28.044 30.0345L28.756 28.1655ZM44 23C44 34.598 34.598 44 23 44V46C35.7025 46 46 35.7025 46 23H44ZM23 44C11.402 44 2 34.598 2 23H0C0 35.7025 10.2975 46 23 46V44ZM2 23C2 11.402 11.402 2 23 2V0C10.2975 0 0 10.2975 0 23H2ZM23 2C34.598 2 44 11.402 44 23H46C46 10.2975 35.7025 0 23 0V2ZM30 16.8C30 17.5035 29.7408 18.5148 29.2393 19.7632C28.7472 20.9881 28.0601 22.35 27.2902 23.7235C25.7511 26.4692 23.9225 29.1885 22.7796 30.8282L24.4204 31.9718C25.5776 30.3115 27.4489 27.5307 29.0348 24.7015C29.8274 23.2875 30.559 21.8432 31.0951 20.5087C31.6217 19.1977 32 17.8965 32 16.8H30ZM22.752 30.87C22.7029 30.9485 22.616 31 22.5 31C22.384 31 22.2971 30.9485 22.248 30.87L20.552 31.93C21.4437 33.3567 23.5563 33.3567 24.448 31.93L22.752 30.87ZM22.2204 30.8282C21.0775 29.1885 19.2489 26.4692 17.7098 23.7235C16.9399 22.35 16.2528 20.9881 15.7607 19.7632C15.2592 18.5148 15 17.5035 15 16.8H13C13 17.8965 13.3783 19.1977 13.9049 20.5087C14.441 21.8432 15.1726 23.2875 15.9652 24.7015C17.5511 27.5307 19.4224 30.3115 20.5796 31.9718L22.2204 30.8282ZM15 16.8C15 12.6523 18.3523 9.3 22.5 9.3V7.3C17.2477 7.3 13 11.5477 13 16.8H15ZM22.5 9.3C26.6477 9.3 30 12.6523 30 16.8H32C32 11.5477 27.7523 7.3 22.5 7.3V9.3ZM24 16.5C24 17.3284 23.3284 18 22.5 18V20C24.433 20 26 18.433 26 16.5H24ZM22.5 18C21.6716 18 21 17.3284 21 16.5H19C19 18.433 20.567 20 22.5 20V18ZM21 16.5C21 15.6716 21.6716 15 22.5 15V13C20.567 13 19 14.567 19 16.5H21ZM22.5 15C23.3284 15 24 15.6716 24 16.5H26C26 14.567 24.433 13 22.5 13V15ZM16.0097 28.7284C14.3413 29.6669 12.7254 30.8425 11.4191 32.4753L12.9809 33.7247C14.0746 32.3575 15.4587 31.3331 16.9903 30.4716L16.0097 28.7284ZM34.4719 32.3643C32.9782 30.5505 31.041 29.036 28.756 28.1655L28.044 30.0345C29.959 30.764 31.6218 32.0495 32.9281 33.6357L34.4719 32.3643Z" fill="#3725E4"/>
</svg>
