<svg width="36" height="36" viewBox="0 0 36 36" fill="none" xmlns="http://www.w3.org/2000/svg">
<path d="M36 0H0V36H36V0Z" fill="#333333"/>
<path fill-rule="evenodd" clip-rule="evenodd" d="M17.6001 26.2001H19.3001C19.3001 26.2001 19.8001 26.1001 20.0001 25.9001C20.2001 25.7001 20.2001 25.2001 20.2001 25.2001C20.2001 25.2001 20.2001 23.0001 21.2001 22.7001C22.2001 22.4001 23.5001 24.8001 24.8001 25.7001C25.8001 26.4001 26.6001 26.3001 26.6001 26.3001L30.2001 26.2001C30.2001 26.2001 32.1001 26.1001 31.2001 24.6001C31.1001 24.5001 30.7001 23.5001 28.5001 21.5001C26.2001 19.4001 26.5001 19.7001 29.3001 16.0001C31.0001 13.8001 31.7001 12.4001 31.4001 11.8001C31.2001 11.2001 30.0001 11.4001 30.0001 11.4001H26.0001C26.0001 11.4001 25.7001 11.4001 25.5001 11.5001C25.3001 11.6001 25.1001 11.9001 25.1001 11.9001C25.1001 11.9001 24.5001 13.6001 23.6001 15.1001C21.8001 18.2001 21.1001 18.4001 20.8001 18.2001C20.1001 17.8001 20.3001 16.4001 20.3001 15.4001C20.3001 12.4001 20.8001 11.2001 19.4001 10.8001C19.0001 10.7001 18.6001 10.6001 17.5001 10.6001C16.0001 10.6001 14.8001 10.6001 14.1001 10.9001C13.6001 11.1001 13.3001 11.6001 13.5001 11.7001C13.8001 11.7001 14.4001 11.9001 14.7001 12.3001C15.1001 12.9001 15.1001 14.1001 15.1001 14.1001C15.1001 14.1001 15.3001 17.6001 14.5001 18.1001C13.9001 18.4001 13.2001 17.8001 11.6001 15.0001C10.8001 13.6001 10.1001 12.0001 10.1001 12.0001C10.1001 12.0001 10.0001 11.7001 9.80012 11.5001C9.50012 11.3001 9.20012 11.4001 9.20012 11.4001H5.40012C5.40012 11.4001 4.80012 11.4001 4.60012 11.7001C4.40012 11.9001 4.60012 12.4001 4.60012 12.4001C4.60012 12.4001 7.60012 19.4001 11.0001 23.0001C14.0001 26.4001 17.6001 26.2001 17.6001 26.2001Z" fill="white"/>
</svg>
