<svg width="36" height="36" viewBox="0 0 36 36" fill="none" xmlns="http://www.w3.org/2000/svg">
<path d="M36 0H0V36H36V0Z" fill="#333333"/>
<path d="M30.4001 10.7C29.5001 11.1 28.6001 11.3 27.6001 11.5C28.6001 10.9 29.4001 10 29.7001 8.8C28.8001 9.4 27.7001 9.8 26.6001 10C25.7001 9.1 24.5001 8.5 23.1001 8.5C20.4001 8.5 18.3001 10.7 18.3001 13.3C18.3001 13.7 18.3001 14 18.4001 14.4C14.4001 14.2 10.8001 12.3 8.4001 9.4C8.0001 10.1 7.7001 10.9 7.7001 11.8C7.7001 13.5 8.6001 15 9.8001 15.8C9.0001 15.8 8.3001 15.6 7.6001 15.2C7.6001 15.2 7.6001 15.2 7.6001 15.3C7.6001 17.6 9.3001 19.6 11.5001 20C11.1001 20.1 10.7001 20.2 10.2001 20.2C9.9001 20.2 9.6001 20.2 9.3001 20.1C9.9001 22 11.7001 23.4 13.8001 23.5C12.1001 24.8 10.1001 25.6 7.8001 25.6C7.4001 25.6 7.0001 25.6 6.6001 25.5C8.7001 26.9 11.3001 27.7 14.0001 27.7C22.9001 27.7 27.7001 20.3 27.7001 14C27.7001 13.8 27.7001 13.6 27.7001 13.4C28.9001 12.5 29.8001 11.6 30.4001 10.7Z" fill="white"/>
</svg>
