<svg width="36" height="36" viewBox="0 0 36 36" fill="none" xmlns="http://www.w3.org/2000/svg">
<path d="M36 0H0V36H36V0Z" fill="#333333"/>
<path d="M24.2 21.7998C23.8 21.7998 23.6 22.0998 23.6 22.6998V23.2998H24.7V22.6998C24.8 22.0998 24.6 21.7998 24.2 21.7998Z" fill="white"/>
<path d="M27 18.4998C26.8 17.4998 25.9 16.6998 24.9 16.5998C22.5 16.2998 20.1 16.2998 17.7 16.2998C15.3 16.2998 12.9 16.2998 10.5 16.5998C9.5 16.6998 8.6 17.4998 8.4 18.4998C8 19.8998 8 21.4998 8 22.9998C8 24.4998 8 26.0998 8.3 27.5998C8.5 28.5998 9.4 29.3998 10.4 29.4998C12.8 29.7998 15.2 29.7998 17.6 29.7998C20 29.7998 22.4 29.7998 24.8 29.4998C25.8 29.3998 26.7 28.5998 26.9 27.5998C27.2 26.0998 27.2 24.4998 27.2 22.9998C27.4 21.4998 27.4 19.8998 27 18.4998ZM13.6 19.7998H12.2V27.1998H10.9V19.7998H9.5V18.4998H13.6V19.7998ZM17 27.1998H15.9V26.4998C15.4 26.9998 15 27.2998 14.6 27.2998C14.2 27.2998 14 27.0998 13.9 26.7998C13.8 26.5998 13.8 26.2998 13.8 25.8998V20.8998H14.9V25.5998C14.9 25.8998 14.9 25.9998 14.9 26.0998C14.9 26.2998 15 26.3998 15.2 26.3998C15.4 26.3998 15.7 26.1998 15.9 25.8998V20.9998H17V27.1998ZM21.5 25.2998C21.5 25.8998 21.5 26.2998 21.4 26.5998C21.2 27.0998 20.9 27.2998 20.5 27.2998C20.1 27.2998 19.7 27.0998 19.3 26.5998V27.1998H18.2V18.5998H19.3V21.3998C19.7 20.8998 20.1 20.6998 20.5 20.6998C21 20.6998 21.3 20.8998 21.4 21.3998C21.5 21.6998 21.5 22.0998 21.5 22.6998V25.2998ZM25.9 24.1998H23.5V25.1998C23.5 25.6998 23.7 25.9998 24 25.9998C24.3 25.9998 24.4 25.8998 24.5 25.5998C24.5 25.4998 24.5 25.2998 24.5 24.8998H25.9V25.0998C25.9 25.4998 25.9 25.6998 25.9 25.8998C25.9 26.1998 25.8 26.3998 25.6 26.5998C25.3 27.0998 24.8 27.2998 24.2 27.2998C23.6 27.2998 23.1 27.0998 22.8 26.5998C22.6 26.2998 22.4 25.7998 22.4 25.0998V22.7998C22.4 22.0998 22.5 21.5998 22.8 21.2998C23.1 20.8998 23.6 20.5998 24.2 20.5998C24.8 20.5998 25.3 20.7998 25.6 21.2998C25.8 21.5998 26 22.0998 26 22.7998V24.1998H25.9Z" fill="white"/>
<path d="M19.9 21.5999C19.7 21.5999 19.5 21.6999 19.3 21.8999V25.9999C19.5 26.1999 19.7 26.2999 19.9 26.2999C20.3 26.2999 20.4 25.9999 20.4 25.3999V22.4999C20.4 21.8999 20.2 21.5999 19.9 21.5999Z" fill="white"/>
<path fill-rule="evenodd" clip-rule="evenodd" d="M15.6 6.3999H14.3L13.4 9.8999L12.5 6.3999H11.2C11.4 7.1999 11.7 7.9999 12 8.7999C12.4 9.9999 12.7 10.8999 12.8 11.5999V15.1999H14V11.5999L15.6 6.3999ZM19.1 12.9999V10.6999C19.1 9.9999 19 9.4999 18.7 9.0999C18.4 8.5999 17.9 8.3999 17.3 8.3999C16.7 8.3999 16.2 8.5999 15.9 9.0999C15.6 9.3999 15.5 9.9999 15.5 10.6999V12.9999C15.5 13.6999 15.6 14.1999 15.9 14.5999C16.2 15.0999 16.7 15.2999 17.3 15.2999C17.9 15.2999 18.4 15.0999 18.7 14.5999C19 14.2999 19.1 13.6999 19.1 12.9999ZM18 13.1999C18 13.7999 17.8 14.0999 17.4 14.0999C17 14.0999 16.8 13.7999 16.8 13.1999V10.3999C16.8 9.7999 17 9.4999 17.4 9.4999C17.8 9.4999 18 9.7999 18 10.3999V13.1999ZM23.5 15.1999V8.5999H22.4V13.5999C22.1 13.9999 21.9 14.1999 21.7 14.1999C21.5 14.1999 21.5 14.0999 21.4 13.8999C21.4 13.8999 21.4 13.6999 21.4 13.3999V8.5999H20.1V13.6999C20.1 14.1999 20.1 14.4999 20.2 14.6999C20.3 14.9999 20.6 15.1999 21 15.1999C21.4 15.1999 21.9 14.8999 22.4 14.3999V15.0999H23.5V15.1999Z" fill="white"/>
</svg>
