<svg width="19" height="19" viewBox="0 0 19 19" fill="none" xmlns="http://www.w3.org/2000/svg">
<path d="M16.2207 2.52095L14.9829 1.28879C14.5961 0.903737 14.0546 0.903737 13.7452 1.28879L10.6507 4.3692C10.2639 4.75425 10.2639 5.29332 10.6507 5.67837L12.198 7.21857C12.3527 7.37259 12.3527 7.68063 12.198 7.91166L7.86576 12.2242C7.71104 12.3783 7.40159 12.3783 7.16951 12.2242L5.6223 10.684C5.2355 10.299 4.69397 10.299 4.38453 10.684L1.2901 13.7644C0.903299 14.1495 0.903299 14.6886 1.2901 14.9966L2.52787 16.2288L3.30148 17.0759C4.53925 18.308 6.62799 18.308 7.94312 17.0759L17.0717 7.98868C18.3094 6.75651 18.3094 4.67724 17.0717 3.36806L16.2207 2.52095Z" fill="white" stroke="black" stroke-width="2" stroke-miterlimit="10"/>
</svg>
